<?xml version="1.0" encoding="utf-8"?>
<!-- Generator: Adobe Illustrator 24.1.3, SVG Export Plug-In . SVG Version: 6.00 Build 0)  -->
<svg version="1.1" id="Capa_1" xmlns="http://www.w3.org/2000/svg" xmlns:xlink="http://www.w3.org/1999/xlink" x="0px" y="0px"
	 viewBox="0 0 841.9 595.3" style="enable-background:new 0 0 841.9 595.3;" xml:space="preserve">
<style type="text/css">
	.st0{fill-rule:evenodd;clip-rule:evenodd;fill:url(#XMLID_2_);}
</style>
<linearGradient id="XMLID_2_" gradientUnits="userSpaceOnUse" x1="55.5519" y1="297.6109" x2="786.7333" y2="297.6109">
	<stop  offset="0" style="stop-color:#F9AF1B"/>
	<stop  offset="1" style="stop-color:#FDD613"/>
</linearGradient>
<path id="XMLID_5_" class="st0" d="M110.6-6.6c1.8,0.7-0.5,1.8-0.4,2.7C108.8-4.7,108.8-5.6,110.6-6.6z M115.3-2
	c0.6-0.9,2.9-2,0.4-2.7C116.4-3.9,113.6-2.7,115.3-2z M108.1,5.6c1.2-0.6,0.9-1.1,1.4-1.7c-0.9-0.5-1.7-0.1-2.6-0.6
	C105.8,4.4,107.5,4.3,108.1,5.6z M66.3,40.8c1.8-1.4,1.7-2.4-0.4-3.2c-0.6,0.5-1.2,1.1-1.9,1.6C66,39.5,64.8,40.4,66.3,40.8z
	 M114,2.6c1.9-0.2,0.6-0.8,2.5-1.7c-0.8,0-1.5,0-1.1-0.5C113.9,0.1,112.4,2.2,114,2.6z M67.6,43.2c-0.7-0.3-1.4-0.6-2.2-0.9
	c0.2,1.2-1.5,1.5-2.8,2.4C64.4,44.9,66,44.3,67.6,43.2z M61.8,61.1c4-0.8,4,1.4,5.5,2.8c0-1-0.8-1.8,1.1-3.1
	c-2.8,0.6-1.7-0.2-3.3-1.3c0.7-0.2,1.3-0.4,1.9-1c-1.3-0.6-1.5-1.5-0.4-2.5c-1.3-0.6-2.5-1.1-3.7-0.9c-0.1,0.5,0.8,1.3-0.4,1.1
	c-1.1,0.9,1.7,1,2.3,1.5C63.1,58.5,62.4,59.7,61.8,61.1z M118.5,27.7c0.3-1,0.8-2.8-1.8-2.4C116.3,26.3,116.9,27.1,118.5,27.7z
	 M57.7,86.4c-0.3-0.8-0.1-1.8-1.5-2.3C54.9,85.4,55.6,86.9,57.7,86.4z M116.7,34.2c-0.2,1-2.6,2.4,0.3,2.9
	C117.6,36.1,118.1,35,116.7,34.2z M91.6,74.2c0.1-0.4,0.2-0.9,0.8-1.4c-3.4,0.3-1-1.8-3.7-0.8C88,73.5,90.3,72.9,91.6,74.2z
	 M128.6,39.8c-2.4-0.4-2.9,2-3.7,3.1C126.6,42.9,126.3,40.8,128.6,39.8z M122.8,53.7c0.2,0.5,0.1,1,0.2,1.4c-0.3,0-0.5,0-0.8,0
	c-0.4,0.7,1,0.8,1.8,1.1c-0.6,0.3-1.3,0.5-1.8,1.1c2.1,0.2,1.9-0.9,2.7-2c-0.1,0-0.2-0.1-0.3-0.1c0.2-0.9,0.3-1.8,1.1-2.8
	C124.6,51.7,124,54.4,122.8,53.7z M72.9,103.5c2.6-0.3,0.2-2,0.5-2.7C70.3,101.2,73.2,102.7,72.9,103.5z M84.2,100.3
	c1.7-1.2-1.4-1.1,1-2.5c-1.4-0.2-2.7,0.1-3.9,1C83.9,99,81.7,100.9,84.2,100.3z M59.7,126.1c-0.9,1.5-1.5,2.9,0.4,3.6
	C60.1,128.4,60.7,127,59.7,126.1z M86.4,115.2c-1.4-0.9-2.4,0.2-3.6,0c-0.8,1.1-1.1,2-1.4,3c1.8,0.4,2.3-1.4,2.1-2.2
	c0.5-0.8,2,0.7,1.8,1.1C88,117.1,84.6,116.1,86.4,115.2z M195.4,20.7c2.7-1.1-0.4-1.1,0.3-1.9C193.9,18.8,194,20.5,195.4,20.7z
	 M192.1,23.1c1.2,0.5,2.4,0,3.6,0.1c0.4-0.5-0.2-0.8,0.4-1.4C194.7,21.8,193.4,22.4,192.1,23.1z M85.3,119.5
	c-3.1,0.8-0.3,2.7-1.6,4.1C87.1,123.4,85.8,120.4,85.3,119.5z M85.2,131.9c1.6-0.5,3.3-2.6,1.3-3C85,129.3,82.7,131.7,85.2,131.9z
	 M208.4,27.5c-0.7-0.9,2.6-2.5,0.6-3.2C206.7,25.8,207,26.8,208.4,27.5z M85.2,138.2c0,0.5,0,1-0.8,0.9c2.7,1.2,0.1,4.2,3,5.3
	C86.3,141.7,91.5,138.5,85.2,138.2z M88.8,146c-0.9-0.2-1.7-0.3-1.3-0.9c-2-0.1-0.3,1.1-1.6,1.8c2.8-1.5,0.5,1,3,1.3
	C91.3,146.7,86.5,147.5,88.8,146z M87.6,149c-0.2,2.2-3.9,3.9-1.3,4.8c1.1-2.4,3.4-0.6,4.5-2.8C87.3,152.1,89.6,149.4,87.6,149z
	 M204.5,50.6c-1.7-0.6-1.3-1.1-3.7-1C200.4,51,202.2,52.3,204.5,50.6z M90.5,159.4c-1.8,2,0.4,2.5,0.1,4c-0.9,1-2.3,0.7-3.6,0.2
	c-0.7,2.6,4.1,0.8,4.3,3.9c1.9-1.3,0.9-1.1,2.3-2.8c-2.2-0.7-0.4,0.7-2.1,1.7C90.6,164.2,93,160.9,90.5,159.4z M450.3,635.5
	c1.2,2.6,5.9,0.4,7,3C458.6,634.6,453.1,635.5,450.3,635.5z M458.5,637.4c-0.1,1.9,1,2.2,3,1.1C460.9,637.6,459.9,637.2,458.5,637.4
	z M117.6-10.2c2.8-1.1,0.9-1.8,0.5-2.7c4.6-2.2,2-4.9,4.1-6.1c-2.2-1.2-3.8,1.7-3.6,2.2c-2.4-1.1,1.6-2.4-1-3.5
	c1.2-0.5,2.4,0.8,3.6-0.4c-1-0.5-0.4-1-1.5-1.4c-0.4,2.5-9.1-0.8-2.6,1.6c-0.5,2.6,0.5,5.1-2.1,7.8c2.2,1,1.5,1.4-0.5,2.1
	c0.7,0.2,1.3-0.5,2-0.1c1.1,1-1.9,0.5-2.5,1.7c2.4,0.1,2.2,0.7,6.1,1.9C121.1-8.3,118.8-9.2,117.6-10.2z M59.8,100.2
	c-4.4,0.1-0.2-4.5-3.2-5.9c-0.2,2.3,0.1,4.3,0.5,6.2c0.4,1.9,0.9,3.7,0.8,5.5c2,0.3,0.4-1.1,1.7-1.8C58.2,103.3,57.9,102,59.8,100.2
	z M60.3,117.5c0.2,0.5,0.4,1,0.6,1.4C61.1,118.3,61.6,117.4,60.3,117.5z M196.6,392.4c0.1,0,0.2,0,0.3,0
	C196.8,392.4,196.7,392.4,196.6,392.4z M203.1,37.7c-0.2-0.1-0.4-0.2-0.6-0.2C202.8,37.5,203,37.6,203.1,37.7z M216.3,22
	c0.1-0.2,0.2-0.3,0.1-0.4C216.2,21.8,216.2,22,216.3,22z M61.1,119.4c-0.1-0.2-0.1-0.3-0.2-0.5C60.8,119.2,60.8,119.4,61.1,119.4z
	 M66,54.5c0.1-1.1,0.8-2.3-1.4-3C63.4,52.8,65.9,53.4,66,54.5z M83.5,104.6c-0.4,0.7,1,0.8,1.8,1.1c-0.6,0.3-1.3,0.5-1.8,1.1
	c2.1,0.2,1.9-0.9,2.7-2C85.2,104.4,84.4,104.7,83.5,104.6z M74.8,123.8c-2,1.8,1.4,0.4,2.3,0.7c1.4,0.5-1.5,0.5-1.7,1.8
	c3.3,0.8,3,2.7,2.2,4.7c1,0,2-0.3,3.1-0.3c-1.8-0.9-3.1-3.6-2-6.3C76.2,124.3,76.5,123.3,74.8,123.8z M62.8,145.1
	c-1.6,1.5-0.4,5.1,1.3,6.8C63.5,149.7,63.4,147.3,62.8,145.1z M85.1,133.6c-0.7,1,0.7,1.3,1,2c1.6,0.1-1-1.2,1.5-2.4
	C86.6,132.6,86,133.8,85.1,133.6z M203.9,35.9c1.5,0.2,0.3,1,2.2,1.1c0.6-1.2,1.4-2.4-1.4-2.8c-1,1.2,0.4,1.3-2.2,2.3
	C202.9,36.6,203.4,36.1,203.9,35.9z M89.9,170c1.6-1.2,1.3,1.3,3.3,0.2c1.2-1.2-1.9-0.9-0.2-2.3c-1.9,1-3.4-0.3-5.8,2
	c1.2,0.5,2.1,1.1,1.7,2.1C90.4,172.2,89.3,170.6,89.9,170z M92.3,179.5c-1-1.1-1.1-2.5-2.7-3.4c-1.1,2,2.9,2.1,0.4,4.6
	C92.1,181,91,179.4,92.3,179.5z M92.1,180.6c2.8,0.1,1.5,1.7,0,3.4c1.3,1.5,2.5,1.1,4.4,2.1c0.3-0.8,0.1-1.4,0.4-2.2
	c-1.1-0.5-1.5,0.7-2.5,0.6c-0.4-0.2-0.2-0.6-0.8-0.7c0.8-0.7,2.1,0,2.7-1.7c-0.4-0.7-1-0.9-2.3-0.5c0.6-0.9,1.5-0.9,2.1-1.8
	c-1.8-1.3-1.9-3.1-1.1-5.3C91.1,176.3,95.2,178,92.1,180.6z M436.1,630.6c2.4-2,3.3,0.6,4.5,1.7c0.4-0.3,0.6-0.8,1.1-1
	c0-0.5,0.3-0.7,0.6-0.8c-3.9-0.4-6-3.5-10.1-3.7C433.5,628.2,435.3,628.7,436.1,630.6z M148.9-53.4c-0.1-0.9,2.2-2,0.4-2.7
	C147.5-55.1,147.5-54.2,148.9-53.4z M154-51.5c0.6-0.9,2.9-2,0.4-2.7C155-53.4,152.3-52.3,154-51.5z M146.8-43.9
	c1.2-0.6,0.9-1.1,1.4-1.7c-0.9-0.5-1.7-0.1-2.6-0.6C144.5-45.1,146.1-45.3,146.8-43.9z M105-8.7c1.8-1.4,1.7-2.4-0.4-3.2
	c-0.6,0.5-1.2,1.1-1.9,1.6C104.7-10,103.5-9.2,105-8.7z M152.7-47c1.9-0.2,0.6-0.8,2.5-1.7c-0.8,0-1.5,0-1.1-0.5
	C152.6-49.5,151.1-47.3,152.7-47z M106.3-6.4c-0.7-0.3-1.4-0.6-2.2-0.9c0.2,1.2-1.5,1.5-2.8,2.4C103.1-4.7,104.7-5.2,106.3-6.4z
	 M142.2-29.8c-1.8-0.1-2.3,2.1,0.2,2.4C144.6-28.5,140.4-28.7,142.2-29.8z M140.7-23.5c1.5,0.2,2.5-2,0.3-2.2
	c-0.6,0.5-1.3,1-1.9,1.5C139.9-24.2,141.3-24.1,140.7-23.5z M157.2-21.8c0.3-1,0.8-2.8-1.8-2.4C154.9-23.2,155.6-22.5,157.2-21.8z
	 M96.4,36.9c-0.3-0.8-0.1-1.8-1.5-2.3C93.6,35.8,94.3,37.4,96.4,36.9z M155.4-15.3c-0.2,1-2.6,2.4,0.3,2.9
	C156.2-13.4,156.8-14.5,155.4-15.3z M130.3,24.7c0.1-0.4,0.2-0.9,0.8-1.4c-3.4,0.3-1-1.8-3.7-0.8C126.7,24,128.9,23.3,130.3,24.7z
	 M167.3-9.7c-2.4-0.4-2.9,2-3.7,3.1C165.3-6.6,165-8.7,167.3-9.7z M162.9,6.8c0.6-1.3,0.3-2.5,1.5-3.9c-1.1-0.8-1.8,2-2.9,1.2
	C161.8,5.1,161.1,6.2,162.9,6.8z M122.9,50.7c1.7-1.2-1.4-1.1,1-2.5c-1.4-0.2-2.7,0.1-3.9,1C122.6,49.4,120.4,51.4,122.9,50.7z
	 M191.1-8c-0.7-0.2-1.4-0.5-2.1-0.7c-1.7,0.9-0.4,1.2-1.8,2.1C188.6-5.9,189.9-6.9,191.1-8z M177.5,1.4c-2,1.2-1.3,1.8-1.6,2.7
	C177.5,4.1,179.9,1.5,177.5,1.4z M191.3-2.6c-1.2-1-1.9,1.1-3.1,0.1c-0.5,0.3-0.2,0.4,0.1,0.6c-2.2,2.7,0.6,4.4-1,7.1
	c1.8,0.9,3.4-0.3,5.1,0c1.3-1.6-1.9-0.6-1.8-1.6c1.1-1.3,2.4-0.9,2.3-1.9c-2.7,0.6-2.2-1.2-3.8-1.7C190.9-1.2,190.2-1.7,191.3-2.6z
	 M230.2-27.1c0.4-1,2-2.1,0.7-2.7C229.9-28.7,227.6-27.5,230.2-27.1z M234.1-28.8c2.7-1.1-0.4-1.1,0.3-1.9
	C232.6-30.7,232.7-29,234.1-28.8z M230.8-26.4c1.2,0.5,2.4,0,3.6,0.1c0.4-0.5-0.2-0.8,0.4-1.4C233.3-27.7,232-27.1,230.8-26.4z
	 M124,69.9C123.9,69.9,123.9,69.9,124,69.9c0-0.4,0-0.8,0.3-1c-1.1-0.5-2.1-0.2-3,0.7c1.1-0.2,1.7,0.1,1.7,0.7
	c-1.4,0.9,0.4,2.5-0.7,3.7C125.8,73.9,124.5,70.9,124,69.9z M266.2-38.7c-1.1-0.8-1-1.9-3.8-2.5C261.9-40.3,263.4-39.5,266.2-38.7z
	 M221.1-5.9c-2.8-0.2-1.6-1.3-2.8-1.8C216.5-6.4,218.5-3.8,221.1-5.9z M190.3,22.3c0.1-0.1,0.1-0.2,0.2-0.2c0.2,0.2,0.5,0.3,1,0.4
	c0.1-0.2,0.3-0.5,0.5-0.7c0.1,0,0.2,0,0.3,0.1c0.5-0.4,0.5-0.7,0.4-1c0.2-0.4,0.2-0.8-0.4-1.1c-0.2,0.2-0.3,0.3-0.5,0.5
	c-1.2-0.5-2.9-0.9-2.1-1.8C186.9,19.3,187.4,21.8,190.3,22.3z M247.1-22c-0.7-0.9,2.6-2.5,0.6-3.2C245.4-23.8,245.6-22.8,247.1-22z
	 M219.8,5.8c0.1-0.4,0.2-0.8,0.8-1.3c-0.8,0.2-1.7,0.1-2.6-0.2C216,5.5,219,5.4,219.8,5.8z M243.2,1.1c-1.7-0.6-1.3-1.1-3.7-1
	C239.1,1.5,240.9,2.8,243.2,1.1z M273.5,24.4c0.4-0.6-1-0.6-1.7-0.8c-1.2,1-0.5,1.4-1.1,2.1C271.8,26.3,272.3,23.8,273.5,24.4z
	 M298.2,5.9c-0.7-0.8-0.4-2.7-2.5-2.3C294.6,4.9,296,5.6,298.2,5.9z M287.3,28.2c-3.5,0.6-1.1-1.6-3.6-2c-1.4,1.5,0.8,2-1.7,3.9
	c1.2,0.1,2.2-0.9,3.3-1.3c1.1,0.4-0.4,2,1.8,1.2C287.8,29.2,285.5,29.4,287.3,28.2z M289.8,42.9c-0.6-1-2.3-1.7-0.8-3.4
	C286.6,40.4,286.7,43.8,289.8,42.9z M306.9,33.8c-0.6-0.6,0-1.7-1.5-2C304.1,33.1,304.7,33.7,306.9,33.8z M284.4,54.2
	c-0.2,0.9-1.2,2.2,0.6,2.4C285.5,55.6,285.9,54.6,284.4,54.2z M283,66.3c0.9,0,1.5-1,2.2-1.6c-0.7-0.1-1.5-0.2-2.2-0.3
	C282.4,65.3,283.7,65.4,283,66.3z M285.5,67.5c-1.5,1.3,0.4,1.3-0.4,2.3C286.3,69.7,288,67.2,285.5,67.5z M283.4,83.3
	c-0.2,1.3,3.1-0.2,3.9-1C287,81.1,284.9,83,283.4,83.3z M288.5,79.1c-0.4,1.6-1.2,4,2.6,3.1C289.7,81.4,292.3,79,288.5,79.1z
	 M284.4,84.9c0.7,0.6,0.1,1.8,1.7,2.1c0.2-1-0.5-1.6,0.1-2.8C285.6,84.1,285.2,84.9,284.4,84.9z M277.8,92.3c1.6,1.8,0.2,3,4.6-0.5
	C280.7,91.3,279.3,92,277.8,92.3z M287.5,105.1c-0.8,1.8,3.8-1.1,2.8,0.2C293.3,104,288.4,104.2,287.5,105.1z M291.5,107.3
	c0.3-1-0.5-1.5-2.2-1.6C289,106.7,289.3,107.4,291.5,107.3z M283.8,127.4c1.2-0.1,2.1-1.3,3.5-0.8
	C287.4,125.2,283.4,125.5,283.8,127.4z M341.5,140.7c-0.3-0.7-1.9-0.7-3.2-0.9C336.1,142.4,339.7,141.5,341.5,140.7z M347.6,163.6
	c-1.2,1.9,2.7-0.4,1.4,1.8c-1.4,1.4-1.6-0.2-2.7,0.1c-0.6,1.5,1.1,1.5,3.2,0.8c-0.1-0.7,0.2-1.2,1.3-1.9c2.7-0.3-0.2,2.6,2.8,2.2
	c-0.2-0.5-1-0.8,0.5-2.3c-2.8,0-2.5-1.7-1.5-3.2C350.9,162,349.8,163.9,347.6,163.6z M351.4,173.6c2-0.1,1.2,0.4,3.3-0.2
	c1.1-1.7-3.3-0.7,0.2-1.9c0.7-1.2-1.8,0-2.2,0.1C352.3,172.3,351.9,173,351.4,173.6z M352.2,176.4c1.1-0.7,2.7-0.6,4.2-0.8
	c0.3-0.5,0.6-1,1-1.5c-0.7,0.1-0.9,0-0.8-0.4c-1.7,1-1,0.9-2.5,0.6C353.6,175.3,352.7,175.5,352.2,176.4z M355.2,182.3
	c0.5-1.6-2.1-1.3-0.2-3.7c-2.1,0.8-0.9,1-2.7,2.5C354.4,180.8,353.4,182.4,355.2,182.3z M355.4,183.7c0.3,0.2,0.6,0.4,1.3,0.4
	c0.7-0.5,1.3-1.2,1.8-2C357.2,182,356.1,182.4,355.4,183.7z M359.3,183.4c-0.5,0-1.1,0.1-1.7,0.1c-0.5,0.9-1.3,1.1-1.8,2
	c0.9,0,2-0.9,1.6-0.1C358.3,185.2,358.7,184.1,359.3,183.4z M361.2,186c0.4-1.3,1.4-2.9,0.6-3.3C360.8,183.1,359.1,186.5,361.2,186z
	 M367.4,198.5c1.3-1.6-0.9-0.8,0.4-2.4c-1.4,0.3-2.8,0.6-3.4,2.2C366.3,197.9,366.1,198.7,367.4,198.5z M370.5,206.2l1.2-2
	c-0.7,0.1-1.5,0.2-2.2,0.2C368.8,205.7,369.2,206.3,370.5,206.2z M372.2,212.2c1.4,0,1.2-2.7,2.6-2.7c0.1-0.9-1,0-1.6,0.2
	c-0.7-0.1,0.4-1.5-1.6-0.8C371.5,210.2,372,211.1,372.2,212.2z M379.1,209.9c1.5-1.2,1.4-1.9,1.2-3c-1.1,0.2-1.4,1.7-2.5,1.7
	C377.4,209.7,379.6,208.9,379.1,209.9z M376.8,222c3.1-1,1.9-3.6,3.7-5.7c-2.5,1.5-2.5,1.9-4.1,1c1.2-2.2,2.6-3,1.8-4
	c-2.5,1.5-2.7,2.3-3.7,4.7C377.6,217.7,376.1,220.7,376.8,222z M381.3,217.7c1.1-0.9,1.7-4-1.3-3.1
	C380,215.9,381.6,216.1,381.3,217.7z M388.1,217.2c0-0.6-0.6-0.8-1.6-0.7c-0.8,1.9,0.2,1.2-1.7,1.2c-0.6,0.9,0.1,1-0.6,2
	C385.9,219.3,386.4,217.3,388.1,217.2z M391.3,223.3c-1.6,1-0.7,0.1-2.2,0.3c-0.8,1.1-0.4,1.3-0.6,2
	C389.4,224.7,390.7,224.6,391.3,223.3z M435.6,305.4c-0.1-1.4,0.3-3.3-0.2-4.4c-1.2,0.6-2.2,1.6-3.3,2.3
	C431.6,305.5,433.4,305.6,435.6,305.4z M455.8,318.2c1.3-0.7,1.1-2.9-0.8-1.7C453.9,318.4,456,317.3,455.8,318.2z M473,340.6
	c-0.2-1.3-1.4-1.6-2.1-2.4C469.5,339.6,471,341.3,473,340.6z M484.3,348.5c-0.8-1-2.8-2.2-5.1-0.3C481,348,482.6,349.7,484.3,348.5z
	 M501.9,365.8c1.1-1.1,0.5-3.6-1.7-2.5C500.1,364.8,501.6,364.7,501.9,365.8z M518.4,385.3c-0.2-0.6-0.9-0.6-1.8-0.3
	c-0.2,1-0.9,1.5-1.1,2.5C516.4,386.6,517.6,386.1,518.4,385.3z M560.6,410c1.3,1.2,1.5,1.6,3.8,2c-0.6-2.2-1.9-3.3-4-3.5
	c0,1.6-0.9,2.3-1.2,3.7C560,411.7,560.5,411,560.6,410z M561.3,423.5c0.9-1.2,2.7-1.7,3-3.5C563.5,419.4,561.7,421.7,561.3,423.5z
	 M567.1,415c0.1-1.1-2.2,0.9-1.7-0.8c-0.7,0.5-0.7,1.7-1,2.6C565.6,416.4,566.4,415.8,567.1,415z M624.6,442.6
	c-0.2-0.6-0.9-0.5-1.8-0.1c-0.1,0.6-0.7,0.8-1.1,1.1C622,444.9,623.6,443.3,624.6,442.6z M631.5,438.9c-0.9-0.7-1.9,0-2.9,1.6
	C628.6,441.7,631.1,439.6,631.5,438.9z M636.6,449.2c0.9-2.3,1.8-1.1,3.4-1.9c-2.7-1.7-6.1-0.2-9.5-1.4
	C631.7,448.4,634.5,448.4,636.6,449.2z M638,449c0,1.7,2.1,0.4,3.2,0.4C641,448.1,640.1,447.6,638,449z M642,450.1
	c0.8,0.6,1.1,2.2,2.5,1.9C645.4,450.4,644.3,448.5,642,450.1z M642.4,454.8c1,0.9,0.9,2.1,1,3.3c1.7-1.4,2.2-1.2,3.2-4
	C644.6,456.9,644.3,453.9,642.4,454.8z M660.7,433c0.3-1.3-0.2-1.4-0.2-2.1c-0.8,0.3-1.4,1.7-1.4,0.8
	C657.6,433.5,659.7,433.6,660.7,433z M664.2,456.9c0-0.6,0.2-1.1,0.6-1.5c-1.7,0.4-2.6-0.4-4.6,0.5c0.2-2.9,1.5-1.2,2.6-3.1
	c0.4-1.7-2.7,2-2.3,0.2c-0.6,0.3-0.9,3.7-1.6,2c-0.4,0.1-0.5,0.5-0.5,0.9c0,0.4-0.1,0.8-0.1,1.2
	C660.1,455.4,661.3,458.7,664.2,456.9z M668.6,434.5c-1.3-1-3.2-1-5.3-0.8C664.6,434.8,666.1,435.5,668.6,434.5z M665.7,461.1
	c0.7-2,1.5-2.9,3-2.9c-0.3-1.6-1.8-1.1-3.1-1C666.4,457.5,664.5,460.5,665.7,461.1z M673,455.7c-1.1-1.7-2.2-0.4-4.1-0.4
	C669.3,457,671.3,456.1,673,455.7z M678.8,461.7c0.7-0.5,0.3-1.9,1.1-2.3c-1.4-1.1-5.4,2.2-5.3-1.3
	C671.7,462.9,678.4,459.1,678.8,461.7z M681.5,456.2c-0.6-2.5-4-0.4-6.3-0.2C675.9,458.4,679.1,456.6,681.5,456.2z M685.5,452.1
	c0-1.7-2.4,0.7-2.6-0.6C681.3,453.7,684.5,452.4,685.5,452.1z M686.5,455.9c-2.4,1.2-2-2.5-4.4-1.2
	C682.9,456.1,683.4,458.3,686.5,455.9z M686.5,462.1c-0.1-2.9,2.6-3.8,2.9-2.3C689,461.8,687.6,461.7,686.5,462.1
	c-0.7,2.5,1.7-0.2,1.2,2.1c2.7-3.7,8.1-6.1,10.5-7c1.7-3.2-4.4,0.5-5.6,2.3c1.4-2.7-1.3-1.6,0.7-3.8c-3.2,1.7-6.6,4.1-11.4,7
	C682.2,464.6,684.2,463.6,686.5,462.1z M698,459.5c-1.3,0.8-2.4,3.8-2.8,1.8c-0.7,0.6-0.5,1.7-0.6,2.6c0.8,0,2.3-1.3,2.8-0.6
	c0.5-0.7,0.6-1.7,1.5-2.1C698.6,460.5,698.2,460.2,698,459.5z M695.8,466.5c0.8,0.2,3,0.1,2.9-2.3
	C697.2,464.7,696.9,465.8,695.8,466.5z M700.4,464.8c1.2-1.6,1-1.8,2.4-2.1c0.1-1.8-2,0-2.7-0.6C698.5,464,701,463,700.4,464.8z
	 M156.3-59.7c2.8-1.1,0.9-1.8,0.5-2.7c4.6-2.2,2-4.9,4.1-6.1c-2.2-1.2-3.8,1.7-3.6,2.2c-2.4-1.1,1.6-2.4-1-3.5
	c1.2-0.5,2.4,0.8,3.6-0.4c-1-0.5-0.4-1-1.5-1.4c-0.4,2.5-9.1-0.8-2.6,1.6c-0.5,2.6,0.5,5.1-2.1,7.8c2.2,1,1.5,1.4-0.5,2.1
	c0.7,0.2,1.3-0.5,2-0.1c1.1,1-1.9,0.5-2.5,1.7c2.4,0.1,2.2,0.7,6.1,1.9C159.8-57.8,157.5-58.7,156.3-59.7z M141.5-38.8
	c-4.3,0-1.5-2.1-3.2-3.3c-1.2,1.8-0.6,3.3,0.3,4.9C139.5-38.4,140.5-37.8,141.5-38.8z M276.2,53.1c-0.1,0-0.2,0-0.3,0
	C276,53.2,276.1,53.2,276.2,53.1z M241.8-11.8c-0.2-0.1-0.4-0.2-0.6-0.2C241.4-12,241.6-11.9,241.8-11.8z M255-27.5
	c0.1-0.2,0.2-0.3,0.1-0.4C254.9-27.7,254.9-27.6,255-27.5z M786.5,537c-3.1,6.2-9.1,9.1-14.5,10.4c0.8-2.2,1.5-1.2,2.2-2.8
	c-0.8-2.1-3.4,1.7-4.7-0.3c-4.3,7.8-9.6,0.6-13.5,3.4c-1.6-4.6-7.3-3.2-9.9-2.2c0.5,0.7,3.6-0.7,1.9,2.3c-2.7,0.3-3.7-1.9-6.6,0.2
	c-1.4-1.7-4.8-3.3-6.6-0.4c-1.2-0.7,0.8-1,0.4-2.7c-1.6-0.1-4.9,3.2-5.2,0.5c1.1-1.2,1.7,1.7,2.4-0.4c-1.1-1-2.7-3.3-3.8,0.7
	c-2.2-3.1-5.9-3.3-9.4-3.9c-2.5,3.5-7.2,5.4-9.5,4.9c-0.7,1.9-1.5,3.9-1.9,6c0.6,0.1,1.3,0,2.4-0.9c0.1-1.6,0.7-2.7,1.9-3.6
	c1.4,1.3,2.8,2.7,5.2,2c0.1,1.1-0.5,1.7-0.5,2.7c1.7-2.3,1.3,0,2.8-0.7c0.1-0.5,0-1.2,0.5-1.5c0,1.1,0.1,1.8,0.5,2.1
	c-1.4,0.8-4.4,1.3-5.4,3.6c0.8-0.1,1.5,0,2,0.4c0.4-0.1,0.9-0.3,1.3-0.4c0.5-0.8,0.9-1.7,1.1-2.6c0.3,1.5,1.2,1.4,1.8-0.7
	c0,1.6,1.4,0.3,1.4,2c-0.5,0.5-1,0.9-1.6,1.3c0.1,0.1,0.3,0.3,0.4,0.5c0.1,1.2-1.1,1.5-1.4,2.5c2.6,0.3,4.7,0.9,9-1
	c-0.4,1.9,0.6,1.1,0.5,2.6c-2.6,2.3-5,1.7-7.9,4.4c0.3,1,1.3,0.6,2,0.9c1.2-0.6,2.4-1.2,3.5-1.6c2-0.7,3.6-0.5,3.9,2.3
	c3.2-0.6,7.9-1.9,7.9,2.1c0.6-1.2,1.4-1.3,1.8-0.7c-1.2,0.7-1.9,1.6-1.8,3.1c0.8,0,1.2,0.8,1,2.9c1.1-0.7,1.4,0.1,1.8-1.9
	c-0.5,0.3-1.3,1-1.4,0.4c1.6-2.8,2.9-0.9,5-3c-2.1,6.1,1.5,7.1,2.6,10.2c-1.5,2.1-0.5,4.4-0.3,6.3c-3.1,6.2-9.1,9.1-14.5,10.4
	c0.8-2.2,1.5-1.2,2.2-2.8c-0.8-2.1-3.4,1.7-4.7-0.3c-4,7.2-8.8,1.7-12.6,3c0.4,0.5,1.2,0.1,1.8,1.1c-1.4,1.1-1.5-0.4-2.9,0.7
	c-0.1,1.5-0.9,3.1,0.1,3.6c-5,3.5-9.6,4.8-15,6.5c-3.2,1.1-10.8,4.1-13.2,2.2c-1.7,1.1-3.4,1.7-5,2.1c-0.6,0.5-1,1-1,1.8
	c0.4,1.9,2.9-0.4,2.4,3.2c0.6-0.4,0.6-1.2,1.4-1.5c0.2,3.1,1.6,3.9,3.4,3.8c-0.3,3.9,1.8,3,2,5.9c-8.5,2-13.5-2.8-22.6,0.3
	c-1.1-2.7-4-1.6-7.2-0.2c-0.4-3.3-4.1-3.6-7.2,0.3c2.1-0.4,5.5-3.1,6.3-0.9c-3.6,0.9-8.1,3.5-9.7,0.6c-0.6,2.4-3,2.4-3.9,1.8
	c1.5-1.3,4.2-1.8,4.8-3.6c-2.5-0.2-5.3,4.3-8.2,4.5c-0.1-1.1,0.5-1.7,0.5-2.7c-1.2,0-4.5,1-2.4-1.5c-0.5,0.3-0.6-0.1-1,0
	c-0.8,1.5-2.6,2.4-3.4,3.9c0.1,0.6,0.5,0.6,1,0.6c1.2-0.5,1.1-1.7,2.4-2.1c-0.8,2.8,2.1-1.1,1.9,0.6c-2.3,2.3-1.6,0.5-3.9,1.8
	c-0.9,1.6-0.5,3.5,0.5,3.3c-1.5,1.1-3.3,1.9-3.4,3.9c2.9-2.2,9.3-7.4,8.3-2.7c1-0.1,2.2-0.4,2.9,0c0.2-0.9,0.5-1.7,1-2.4
	c0.2,1.3,0.5,2.3,1.5,2.1c5-1.2,9.7-1,13.9-0.2c4.2,0.7,8.1,2,11.4,2.9c-3.9,2.8-4.6,2.5-7.2,4c1.6,0.7,3.4,1.3,5.4,1.4
	c0.3,0.9-0.5,3.9,0.6,3.3c2.1-3.1,2.1,2.4,4.9-0.1c-0.2,2.3,1.2,0.8,2,2.4c-1.4,1.1-1.5-0.4-2.9,0.7c-0.1,1.5-0.9,3.1,0.1,3.6
	c-5,3.5-9.6,4.8-15,6.5c-3.2,1.1-10.8,4.1-13.2,2.2c-5.8,3.7-11.8,2.4-16.2,1.4c-5.1,2.6-9,1.4-13.4,0.7c0.6-0.5,0.8-1.1,1-1.8
	c-2,1.1-4.3-1.2-5.4,2c0-1.2,0-2.4,0-3.6c-5.4,0.1-11.6,1.4-18.4,6.3c-1.3-1.6-3.2-1.7-5.5,1.3c-0.9-3.4-2.7-5.8-5-7.3
	c-2.2-1.5-4.9-2-7.5-1.4c0,1.1,1.7-0.5,1.5,1c-1.8,1.9-2.3,1.2-4.1,3.4c-0.8-0.3-1-1.8-3-0.2c0.1-2.2-0.3-3.4-1.5-3.4
	c-0.5,1.7-2.1,2.7-3.6,3.7c-3-7.3-8.6-10-17-8.4c0.6-4-3.9,0.2-5-1c-2.6,5.2-6.6-0.5-8.3,6c-1.4-5.1-5.9-6.2-10.6-6.6
	c-4.7-0.5-9.5-0.3-11.4-2.8c-3.3,1.9-8.3,1.6-10.2-0.5c-3.4,0.9-6.1,0.8-8.4,0c-2.3-0.7-4.3-2-6.3-3.3c-5.3,1-7.2-0.2-11.9,0.6
	c-0.3-0.9,1.7-3.2,0.2-3c-2.6,3.8-5.9,1.6-7.9,1.1c0.8-0.5,2-0.6,2.2-1.5c-5.3,2-11.1,0.1-12.6-4.1c1.2,0,8.1-1.7,5,2.6
	c2,0.2,5.1-1.2,7.3-1.3c0.2-1.2-0.5-1.1-0.4-2.2c2-1,2.8,2.4,4.7-0.3c-2.1-0.3-4.4-2.8-7.8,0.4c-0.6-7.4-11.6-2-13.8-8.3
	c-2.2,1.3-2.6-1.1-3.8,1.6c0.8-2.2-0.7-1.1-0.9-2c0.6-0.4,1.5-0.5,1.7-1.3c-3.5,1.2-3.9-2.1-7.2-1.2c0.1,0.6,2.1,1.6-0.2,2.4
	c0.2-3.8-2-0.7-2.4-2c2.2-0.6-0.1-1.2,0.8-3.3c-2.9,0.1-3.9-1.3-6.7-0.3c0.7,1.5-2.3,3.7-0.7,2c0.1-1,0.2-2,0.3-3
	c-4.1-0.7-7.8-2-12.3-2.2c1.6-0.8,2.4,1.4,3.3-1.2c-1.4-1.2-4-1.2-5.7-0.8c0.7-0.3,1.3-0.7,1.2-1.6c-2.2,1.3-1.8-0.8-3.1-0.6
	c-0.2,0.5-0.2,1.2-0.7,1.4c-0.1-2.9-2.6,0.3-3.1-0.6c0.7-0.5,1.2-1.2,1.3-2.2c-3.2-2.4-5.6-5.3-9.9-4.5c-0.1-1.4,0.5-4-2.5-1.4
	c0-1.1,0.8-1.6,0.9-2.6c-2.2,1.2-5.4-0.1-5.4-3.3c-0.7,0.3-1.5,0.5-2.2,0.7c-3-5.6-7.8-8.8-12.8-11.8c-5.1-2.9-10.2-5.9-13.9-10.5
	c-3.2,0-4.5-2.1-6.3-3.8c-0.7,0.2-1.5,0.5-2.2,0.7c-0.2-2.6-3.1-3.6-4.8-3.1c1.9-2.6-1.1-0.7-2.5-1c-3.3-6.7-12-7.4-16.3-13.1
	c-0.6,0.1-1.1,0.3-1.7,0.5c-20.4-15.6-41.2-30.6-61.3-46.7c-20.1-16.2-39.4-33.6-56.3-53.8c-1.2,1-2.5,0.3-2.5-0.8
	c1.1-0.3,1.2,0.7,1.8-0.2c0.1-2.8-2.1,0.1-3.1-0.8c0.3-0.8,0.5-1.5,0.8-2.3c-5.9-4.4-8.9-8.7-14.7-13.2c0.7-0.2,1.8-1.1,1-1.2
	c-0.8,0.1-1.6,0.1-2.4,0.2c-3.6-5.7-8.2-10.7-12.8-15.7c-4.5-5.1-9-10.2-12.4-16c-4.6-4.2-9-8.6-10.7-14.9c-3.3-0.4-1.5-4.3-5.1-4.4
	c0.6-4.9-5.6-5.2-4.9-10.1c-3.9-2.5-5.9-6.2-8-9.8c-2-3.7-4.1-7.4-7.7-10.1c0.4-0.7,0.7-1.5,1.1-2.2c-2.9-2-4.4-5.4-5.9-8.5
	c-0.8-1.6-1.5-3.1-2.4-4.5c-0.9-1.3-2-2.5-3.4-3.2c1.9-3.8-3.9-3.8-1.3-6.8c-0.8,0-1.6-0.1-2.4-0.1c1.3-3.1-1.5-4-2.8-6.4
	c-2.4-4.5-3.5-13-7.1-13c-2.1-5.5-4.8-10.6-7.4-15.8c-2.7-5.1-5.1-10.5-6.5-16.2c-0.6-0.1-1,0.3-1.5,0.4c-1.5-6.7-2.4-13.7-7.6-18.6
	c0.7-1,1.3-2.1,2-3.1c-3.1-1.6-2.9-4.4-2.7-6.7c-0.8-0.1-1.1,0.8-1.8,0.9c-1-1.2,1.9-4.2,0.1-5.1c-4.2-4.8-5.3-11.1-6-17.5
	c0-0.1,0-0.3-0.1-0.6c0,0.2,0,0.4,0.1,0.6c-0.2,0.6-1.2,0.5-2.3,0.8c0.3-8.5-3.6-15.1-6-22.3c0.6-1.3,1.9-0.9,2.4-2.4
	c-3.5-0.1-1.6-2.4-4.7-2.7c2.8-3.3-0.7-4.2,1.3-7.2c-3.7-1.8-2.7-8.3-4.4-11.9c4.3-2-2.6-5.7-0.2-9.3c-1.3-0.7-1.9,0.7-3.1,0.4
	c0.3-1.1,2.5-3.2-1.1-3.7c1.8-4.3,0.2-7.4-1-10.7c1-1.9,3.3,0.5,4.2-1.8c-3.7-2.5-5.7-4.7-6.7-8.8c2.1-0.7,1.2,1.1,3,1.4
	c0.8-1.6,2.3-0.5,3.1-2c-2.5-1-4.5-2.9-2.9-4.8c0.4,0.5,0.4,2.8,2,1.7c-0.4-2-0.5-4.1-3.1-5.5c0.7-1.2,1.9-0.7,2.6-2.2
	c-1.5-1.3-0.2-3-3.9-2.9c2.7-3.6-1-5.3-1.5-8c-1.4-0.6-1.8,2.7-3.3,1.3c0.6-2.2,4.5-1.3,3.4-3c-1.5,0.6-5.1,0.6-3-1.5
	c0.9,0.2,1.9,0.8,2.7,0.2c0.2-2.4,0-4.6-0.4-6.8c-0.3-1.5-0.8-3-1.3-4.4c0.1,0,0.3-0.1,0.6-0.3c0.4-2.8,1.1-8.8-2.4-8.4
	c1-0.8,0.1-1.1,0.2-1.7c0.9,0.3,1.9,0.7,2.5-0.3c-2.8-0.2,0.3-1.8-2.5-2c-0.3,0.8-0.2,1.4-0.6,2.2c-3.2-1.3,3.8-3.2,0.6-4.5
	c2.1-1.5-0.3-1.9,0.9-3.2c1.9-0.2,1,1.9,2.2,0.8c0.3-2.9,0-5.7-2.6-8c0.9,0,1.7,0,2.5-0.3c-1-0.5,0.1-1.6-0.9-2.1
	c-0.9-0.2-1.7,0.4-2.5,0.3c1.2-1.5,1.2-2.7,0.8-3.8c-0.4,0.6-3.1,0.9-2.1-0.2c4.5-0.1,0.1-2.5,1.9-4.1c1.1-0.6,2.6,1,3.6,0.2
	c-3.1-0.7-1.2-2.6-2.2-3.8c-2.1,1.9-2.9-1.3-2.4-2.1c1,1,2.8,1.5,4.6,0c-0.6-0.5-3.4-0.6-2.3-1.5c5.1,0,3-5.8,2.8-7.8
	c-0.6,0.5-1.2,0.9-2,0.4c2.4-1.9-0.2-0.7-0.3-1.9l2.3-2.1c1.6,1.3,2.7-0.2,4.1-0.2c-0.9,2.4-1.6,2.8,0.7,4.4
	c-3.4,2.4-0.4,1.7-3.4,4.6c1.6-1,3.4,0.4,2.8,1.7c-0.9-0.2-1.9-0.9-2.6-0.4c1,0.4-2.7,1.3-0.7,2.1c1.9,0,3.6-1,5.6-0.3
	c-1.6,1.5-3.9-0.8-5.4,1.5c3.7,0.9-2.5,4.1,1.9,4.8c1.4-1,2.6-2.6,4.3-2c-2.4,1.7-2,1.8-4.7,2.4c4.5,2.2,2.3,6,2.7,9.2
	c0.5-0.3,1-0.3,1.5-0.1c0.9-0.9-1-1.1,0.6-2.1c2.6,1.2-2.4,2.8-1.8,4c1.7-0.3,3-0.5,2.8,1c-2.6-1.4-1.4,0.9-3.7,2.2
	c2.8,1.5,0.6,9.1,6,9c-0.7,1.6-1.9,0.8-2.8,1.4c0.8,2.1-0.4,4.7,1.9,6.4c-1.2-0.5-2.2-0.6-3.1,0.2c0.6,0.7,0.3,1.7,2.5,2
	c0.7-0.6,1.4-1.7,2.2-1.6c-0.8,1.1,1.2,1.4-0.4,2.8c-1.6-0.7-2.9-0.4-3.9,1.1c4.4,1.4-2.2,6.9,3.7,6.9c0,0.9-0.4,1.3-1.7,1.8
	c2.5-0.2,0.8,2.4,2.4,1.3c0.4-0.6-0.1-1.3,1.2-1.4c0.3,1.9-1.6,4.5-1.6,6.4c0.5-0.6,1.4-0.1,2-0.6c0.9-0.8,0.3-1.2,1.1-2
	c3.7,3.3-1.5,9.3,4.1,12c-1.3,2.1-0.8-0.7-1.9,0.6c-1,3.1,1.2,5.2,0.6,8.1c2.6,0.6,2,2.6,1.5,4.5c-0.5,1.9-0.8,3.5,2.3,3.3
	c-3.4,2,1.9,2.9-1.5,5.9c3.2,0.3,1.9,2.3,2.6,3.5c-3.6,1.3-1.3,5.7,2.8,5.7c-0.6,1.7-1.8,1-2.7,1.6c1.8,0.4-1.4,2.5,0.4,2.9
	c1.2-0.8,3.9-0.8,2.9,0.6c-1,0.1-2.5-1.2-3.2-0.2c-1.2,1.9,3.2,1.8,3.6,3.1c-1.9,0.4-1.8,1-2.5,2.3c3.1,0.5,2.6,2.4,5.8,2.9
	c-0.1-0.8,0.3-1.3,1.7-1.3c-0.2,0.4-0.7,1-0.2,1.1c1-0.1,1.5-1.8,2.7-1.7c-1.5,3.7,2.3,1.9-0.1,6.2c-1.4-0.2-0.4-3.8-2.9-0.6
	c-2.2,0,0-3.3-2.3-2.2c-0.1,1.2,1.5,1.7-0.9,3.8c2.9,0,0.6,2,2.9,2.3c1.4-1.2-0.4-1.2,0.4-2.2c1.3,0.7,1.9-0.8,2.8-1.1
	c2,0.3,2.3,1.1,1.4,2.5c-0.9-0.1-2-0.6-2.7,0c0.8,0.2-0.1,1,0.4,1.2c1.5,0.7,2.1-1.1,3.6-0.4c-1.4,3.9,3.8,6.4-1.6,10.9
	c0.6,0.3,0.7,2.4,2.5,1c1.3-1-1.5-2.1,1.3-2.6c-0.4,1.1,0.5,2.6,0.8,3.9c0.3,1.3,0.1,2.5-2.7,3c-0.3,0.6,0.1,0.9,0.4,1.2
	c1.5,0.7,2.1-1.2,3.6-0.5c1.5,4.9,1.9,12.1,5.6,14.9c-0.7,6.6,3,11.2,4.5,16.8c0.4-0.4,0.7-1,1.3-0.9c-2.7,5.6,3.3,10.6,4,16.1
	c0.9,0,1.5-0.7,2.4-0.8c-0.2,4.1,2.5,6.8,2.5,10.8c0.5-0.6,0.9-1.2,1.8-0.9c-1.9,3-1.7,6,1.8,5.2c-1.8,5.5,4.9,6.6,3.2,12
	c2.1-1.4,2.6,2.1-0.1,2.2c1.6-1.5-1.1-2.5-2.3-1.3c0,2-1.4,1.9-2.8,3.6c2.4,2,5.9-0.8,7.1-1.6c0.3,3.2,2.9,5.2,4.7,7.6
	c-0.4,1-1.3,1.1-1.8,2.1c3.9,2.2,5.8,6,7.3,9.9c1.6,3.8,2.9,7.7,5.9,9.7c-0.7,2.2-0.1,2.2-0.9,3.8c0.8,0,1.2-0.7,2.1-0.5
	c2.3,5.9,5.4,10.8,8.7,15.6c3.2,4.8,6.3,9.6,8.8,15.2c2.6-0.7,3.1,2.7,2,5.5c4.1-0.4,2.3,3.1,3.7,4.4c2.5-0.5,6.4,7.3,9.4,9.8
	c-0.8,0.2-1.5,0.7-1.9,1.7c5.1,0.2,2.5,5.8,6.5,4.8c-0.4,1-0.9,1.7-1.6,2.3c0.5,0.7,1.9,0.6,2.9-0.1c-0.4,2.4,2.3,0.4-0.7,2.8
	c2.4,1,2.2,3.9,5.7,4.2c-0.7,0.1-1.5,0.2-1.7,1.2c2.2,0.5,1.3,3.1,4.1,3.1c-0.8,0.2-1.7,2.7-0.7,2.3c1.6,0.6,1.2-1.8,2.8-1.2
	c-0.7,3.6,0.9,5.6,4.2,6.4c-1.4,2.7,2.6,2.3,4.3,4.7c1,1.4,0.7,6.2,3.7,4.7c1.2,8.4,9.8,9,11.6,16.7c0.3-0.7,0.5-1.6,1.2-1.8
	c0.5,1-0.3,0.7-0.9,2.3c5.4,0.3,7.4,8.8,13.2,11.3c-0.5,0.2-0.8,0.6-1,1.2c4.4,1,5.5,4.7,7.2,8c4.9,1.7,9.6,4.7,8,10.6
	c1.5-0.2,1.9-2,3.5-2.1c-1.3,2.7,2.5,1.2,2.3,3c-1.1,0.4-1.2-0.6-1.7,0.3c1.3,0.5,1.3,1,3.3,0.1c1.5,4,4.7,6.4,7.9,8.9
	c1.6,1.2,3.2,2.5,4.5,4c1.4,1.4,2.5,3.1,3.2,5.1c1.2-0.4,2.6-0.6,2.8-2.1c-37.8-37.1-73-77.6-102.1-122.5
	c-14.5-22.4-27.5-45.9-38.5-70.3c-10.9-24.5-19.7-49.8-26-75.9c-1.2-3.9-3.6-9-2.6-12.2c-2.9-1.2-1.9-4-4.5-5.3
	c0.2-0.8,2.6-2.3,1.3-2.5c-2.9,1-1.1-3.5-1-4.7c0.3-2.7-4.3-4.3-1.9-6c0.5,0.8,1.6,1.4,1.3,2.5c4.7-4.1-5.5-5.7-1-10.3
	c-2.8-0.9-2.8-3.6-2.8-6c0-2.4,0-4.5-2.9-4.3c1.2-1.1-0.2-1.3,1.4-2.5c-2.5,0.2-3.3-3.2,0.3-4.4c-1-2.7-4.9-4.5-3.3-8.1
	c1-0.7,2.7,0.7,3.6-0.2c-0.8-0.3-2.1-1.7-3.2-0.3c-2.7-2.7,0.7-7.4-3.1-9.8c2.2-0.5,1.6-2.6-1-2c0.6-0.9,1.6-0.7,2.4-1
	c-1.3-1.2,0.9-4.1-3-3.7c0.3-1.4,0-2.6,0.1-3.9c2.4-1.7,1.9-3.9,1.2-6.4c-0.6-2.5-1.3-5.2,0.7-7.8c-5.5-2.7,2.5-9-4-11.5
	c2.4-1.4-0.7-1.3,1-2.5c3,1.7,1.8,5.2,3.7,8c1.2-0.2,2.4-0.2,3.5-0.6c0.4-1.1,0.2-1.9-2-2.3c1.2-1.9,3.3,1.1,4.4-1.5
	c-2.4,0.7-1-3.2-4.4-1.4c1.7-2.1-1.7-2.4,0.3-3.9c-2.6,1.5-2.5,0.2-5.1,0.6c2.4-2.6,0.4-3.5-1.4-4.5c0.8-1.3,2-0.5,2.8-1.3
	c-1.3-1.7-1.7-5.3,0.3-6.7c-0.8,1.8,1.6,2.8,1.3,4.4c1.3-1.3,3-0.6,4.2-2.6c-2.1,0.5-1.4-0.7-3.3-1.1c3.9-0.4,5.1-8,1.6-8.6
	c0.8-1.6,2.1,0.3,2.9-1.3c-0.6-0.2-0.3-0.6-0.7-0.8c-2.3,0.2-3.6-0.3-5.4,1.5c0.7-1.1,0.1-1.9,0.1-2.8c-2.1,0.9-0.8,2.6-2.7,2.5
	c2.3-1.7-1.7-2,1-3.7c2.5,0.1,2.1,1.4,4.3,1c1.4-1.4-1.1-2.1,0-3.4c1.5,0.5,2.5-1.3,4-0.8c0.3,0.6,1.3,1.8,2.5,1.8
	c0-0.5,0-1-0.1-1.4c-0.7-0.2-1.4-0.5-1-1c0.3,0.1,0.6,0.1,0.9,0.1c-0.1-0.6-0.3-1.2-0.7-1.6c-0.7,0.3-1.5,0.6-1.9,0.9
	c0.3,0.2,1.1,0.4,0.6,0.8c-0.9-0.5-1.7,0-2.6-0.4c-0.2-1.2,1.6-1.1,3-2c-0.3-0.1-0.6-0.1-1-0.1c1-0.8,0.1-1.1,0.2-1.7
	c0.1,0,0.3,0.1,0.4,0.1c-0.2-0.1-0.3-0.1-0.6-0.2c-1.4,0.6,0.1,1.9-1.8,1.6c0.8-2.2-1.1-3.9,0.3-6.2c-0.1-1.3-0.4-2.5-0.7-3.8
	c-0.4-1.9-0.7-3.9-0.5-6.2c3,1.3-1.1,6,3.2,5.9c-1.9,1.8-1.6,3.1-0.2,4.1c-0.4,0.2-0.5,0.5-0.6,0.7c0.3,0.3,0.6,0.6,1,0.9
	c0.6-0.6,0.8-1.2-0.4-1.6c2.1-1.5-0.3-1.9,0.9-3.2c0.3,0,0.6,0,0.8,0.1c0.5-0.3,1-0.3,1.5-0.3c0-0.3,0-0.5,0-0.8
	c0-0.1-0.1-0.1-0.1-0.1c-0.7-0.3-1.3,0.5-2,0.4c-0.5-1-1.5-3,1.1-3.6c-1.2-1.7-6.8-4.3-3.3-5.9c0.1,0.2,0.4,0.5,0.9,0.8
	c0.6-0.7,0.8-1.4,0.9-2c-1-0.1-2-0.4-2.9,0.1c0.7-0.6-1-0.9,0.3-1.6c0.5,0.6,1.5,0.9,2.6,0.8c0-0.4-0.1-0.8-0.2-1.2
	c-0.4,0.6-3.1,0.9-2.1-0.2c4.5-0.1,0.1-2.5,1.9-4.1c0.9-0.5,2,0.4,3,0.4c-0.3-0.3-0.5-0.5-0.7-0.8c-0.5-0.4-0.6-0.9-0.6-1.5
	c-0.1-0.4-0.1-0.8,0-1.2c0-0.2-0.1-0.4-0.3-0.5c-2.1,1.9-2.9-1.3-2.4-2.1c0.7,0.7,1.7,1.1,2.8,0.9c0-0.5-0.1-1.1-0.3-1.6
	c-0.4-0.2-0.6-0.4-0.3-0.7c0-0.1-0.1-0.1-0.1-0.2c0.5,0,0.8,0,1.1,0.1c0.7-0.1,1.2-0.4,1.6-0.7c-0.1,0-0.1,0-0.2,0
	c0.6-0.6-0.8-0.7-1.6-0.7c0.6-0.5,1.3-1,1.9-1.5c0.3,0,0.6,0.1,0.8,0.2c0.1-0.7,0-1.4,0-2.1c-1.5-0.4-1.4-1.8-0.4-2.2
	c-0.1-0.3-0.1-0.6-0.1-0.8c-0.6,0.5-1.2,0.9-2,0.4c2.4-1.9-0.2-0.7-0.3-1.9l1.1-1c-0.1,0-0.1-0.1-0.2-0.1c0.5-0.5,1.5-1,0.9-1.3
	c-1.2,1.1-2.5,0.9-2.5,0c2.3-1.8,3,0.1,4.5,0.9c0,0,0.1,0,0.1,0c-0.1-1.1,0.6-0.6,1.4-0.4c0.3-0.1,0.7-0.2,1-0.2
	c0,0.1,0,0.1-0.1,0.2c0.2-0.1,0.4-0.2,0.6-0.5c-1.9-0.2-3-1-2-1.6c-0.8-1.2-1.5-2.3-4.1-1.9c-0.4,0.1-0.8,0.3-1.2,0.8
	c-0.9-1.5-1.5-3.1-0.3-4.9c1.4,1-0.1,2.5,1.4,3c0.5-1,1.2-1.8,2.5-2.4c-0.5-0.5-3.3-0.7-2.3-1.5c1.2,0.2,0.3-0.5,0.4-1.1
	c1.2-0.2,2.4,0.3,3.7,0.9c-1.1,1.1-1,1.9,0.4,2.5c-0.6,0.6-1.2,0.8-1.9,1c1.6,1.1,0.5,1.9,3.3,1.3c-1,0.7-1.3,1.3-1.3,1.8
	c0.2-0.1,0.4-0.1,0.7-0.2c1.2,1.5,3.2,1.7,2.3,3.3c0.5-0.4,1-0.2,1.5-0.5c1.4-1.1-1.8-2.2,0.8-2.5c1.4,1.9-1,4.3,1,6.1
	c1,0.1,1.9-1.4,3-1c-1.8,1,0.5,1.5-1.8,2.6c-0.7-0.2-1.4-0.7-2.1-0.3c0,1.2,1.8,3.6,3.8,2.7c-1.8,1-0.5,1.5-2.3,2.4
	c-2.6-0.6,1.3-2.2-1.3-2.8c-1.4,2-0.6,2.4-3.4,4.1c0.3,0,0.7,0.1,1.1,0.2c-0.4,0.4-0.8,0.5-1.3,0.5c0.3,0.2,0.4,0.5,0.6,0.7
	c1.8-0.4,0.6-0.5,1.9-1.5c0.9,0.4,1.7,0.3,2.5-0.1c2,0.7,0.5,1.9,2.3,2.6c2.4-0.9-0.3-2.8,2.4-1.9c-0.1,1.6,0.2,4.7-1.4,5.6
	c1-0.9-0.3-1.3-1.7-1.8c-2.6,2.6,1,5.2-1.3,6.8c0.9,0.4,1.7,0.1,2.5-0.7c2.4,0.6,2.1,1.6,2.4,2.6c-3.6,2.8-1.2,5.6,0.6,8.6
	c-1.2-0.1-0.9-2-2.7-1c-2,1.6,2.2,2,1.5,3.3c-1,0.2-2.1-0.6-3,0.6c0.7,0.3,1.4,0.5,2.1,0.8c-3.1,2.6,3.8,3.2,3.9,5.2
	c-3.3,2.3-0.5,5.2,2.7,4.2c0-0.4-2.9-1.7-0.3-1.7c-0.9,1.4,1.8-1,2.5-0.2c-1,1.2-1.6,2.3-2.5,3.5c-3-0.6-2.5-0.6-3.9-1.9
	c-1.4,2.7-0.6,5.5,1.3,6.5c0.3-0.8,0.6-1.5,1.2-2.4c1.3,0.1,2.2-1,3.6,0c-1.8,0.9,1.6,1.8-1.1,1.9c0.2-0.4-1.4-1.9-1.8-1.1
	c0.2,0.8-0.3,2.5-2,2.2c-0.7,0.6-1.3,1.9-1.2,2.3c3.8-0.6-0.3,2.8,1.2,3.7c0.9-0.2,4.4,0.2,3.8,1.2c-1.5,0.2-3.1,0.2-4.4,1.4
	c3.3,1-2.4,2.7,1.7,3.8c-0.2-1.2,1.1-0.8,2.4-0.9c0.5-0.4,1-0.7,1.5-0.9c1.9,0.4,0.3,2.5-1.3,3c0,0,0,0-0.1,0c0,1-0.2,1.6-2.1,1.1
	c1.8,1.1,3.6,3,3.4,5.3c4,0.6,0.6,3.1,0.8,5.5c0.6,0.5,1,1.2,1.2,2.1c0.1,0,0.3,0.1,0.5,0.1c-0.2,0.1-0.3,0.2-0.4,0.3
	c0,0.1,0,0.2,0,0.3c1.7-1.2-0.7-1.2,1-2.4c-0.3,1.6,3,3.8,0.6,5c0.3-0.4,0-1.2-0.5-1.5c0,0.2-0.2,0.4-0.7,0.6c-0.1,0-0.1,0-0.2,0
	c0,1.1-0.4,2.3,1.1,3c0.2,0,0.5-0.1,0.8-0.2c0-0.7-0.2-1.4,1.6-1.3c-0.5,1.2,1.2,2-1.6,2.3c3.4-0.5,1.6,1.1,3,1.9
	c0.8-1,0.7-1.8,2.4-3.1c-1.5-0.2-0.4-1.1-2.3-1.2c1-0.7,1.6-1.3,1.9-1.9c-1.2-1.5-2.4-3-1.6-5.2c-0.1-0.5-0.2-1,0-1.5
	c-1.1-2-0.2-4.6-0.8-6.7c0,0,0,0-0.1,0c0-0.1,0-0.1,0-0.2c-0.3-0.8-0.7-1.6-1.7-2.2c2.2-0.5,1.6-2.6-1-2c0.6-0.9,1.6-0.7,2.4-1
	c-1.3-1.2,0.9-4.1-3-3.7c0.3-1.4,0-2.6,0.1-3.9c2.4-1.7,1.9-3.9,1.2-6.4c-0.6-2.5-1.3-5.2,0.7-7.8c-5.5-2.7,2.5-9-4-11.5
	c2.4-1.4-0.7-1.3,1-2.5c3,1.7,1.8,5.2,3.7,8c1.2-0.2,2.4-0.2,3.5-0.6c0.4-1.1,0.2-1.9-2-2.3c1.2-1.9,3.3,1.1,4.4-1.5
	c-2.4,0.7-1-3.2-4.4-1.4c1.7-2.1-1.7-2.4,0.3-3.9c-2.6,1.5-2.5,0.2-5.1,0.6c2.4-2.6,0.4-3.5-1.4-4.5c0.8-1.3,2-0.5,2.8-1.3
	c-1.3-1.7-1.7-5.3,0.3-6.7c-0.8,1.8,1.6,2.8,1.3,4.4c1.3-1.3,3-0.6,4.2-2.6c-2.1,0.5-1.4-0.7-3.3-1.1c3.9-0.4,5.1-8,1.6-8.6
	c0.8-1.6,2.1,0.3,2.9-1.3c-0.6-0.2-0.3-0.6-0.7-0.8c-2.3,0.2-3.6-0.3-5.4,1.5c0.7-1.1,0.1-1.9,0.1-2.8c-2.1,0.9-0.8,2.6-2.7,2.5
	c2.3-1.7-1.7-2,1-3.7c2.5,0.1,2.1,1.4,4.3,1c1.4-1.4-1.1-2.1,0-3.4c1.5,0.5,2.5-1.3,4-0.8c0.4,0.8,2.1,2.7,3.8,1.4
	c0.5-0.9-3.1-1-2.4-2c2.4,0.7,2.1-2.6,3.9-1.4c0.2-1.3-1.3-3.1-3.7-0.8c3.2,0-0.8,0.7-1.8,1.6c0.3,0.2,1.1,0.4,0.6,0.8
	c-0.9-0.5-1.7,0-2.6-0.4c-0.2-1.4,2.5-1,3.7-2.6c-0.6-0.4-0.4-0.9-1.7-1.2c-1.4,0.6,0.1,1.9-1.8,1.6c0.9-2.4-1.4-4.1,0.6-6.6
	c1.5,2.2,3.4,2.8,4.9,5.2c0.4-0.4,1-0.3,1.4-0.6c-0.9-2.4-3.3-4.5-3.6-7c0.7-0.8,1.6-0.5,2.5-0.8c-0.5-0.2-0.3-0.6-0.6-0.8
	c-0.7-0.3-1.3,0.5-2,0.4c-0.5-1-1.5-3,1.1-3.6c-1.2-1.7-6.8-4.3-3.3-5.9c0.3,0.6,2.7,2,5.2,4.3c0.4-2.2-3.6-3.6-1.3-6.2
	c-1.5,1.6-3.4,0-5,0.9c0.7-0.6-1-0.9,0.3-1.6c1,1.2,3.5,1.1,5.6,0c-3.2-1-1.4-1.9,0.7-3.2c-4.4-3-1-5.6-3-8.7
	c3.6-0.3,1.3,3.3,5.4,2.8c1.2-2.4-3.5-3.9,1.4-6.9c-2.1-1.5-1.4-3.4-1.5-5.2c-1.2-0.6-2.4,0-3.7-1c0.5-0.5,1.5-1,0.9-1.3
	c-1.2,1.1-2.5,0.9-2.5,0c2.3-1.8,3,0.2,4.6,0.9c-0.2-1.9,1.8,0.6,3-1c-2.5-0.2-3.5-1.6-0.7-2c1.2,1.5,3.2,1.7,2.3,3.3
	c0.5-0.4,1-0.2,1.5-0.5c1.4-1.1-1.8-2.2,0.8-2.5c1.4,1.9-1,4.3,1,6.1c1,0.1,1.9-1.4,3-1c-1.8,1,0.5,1.5-1.8,2.6
	c-0.7-0.2-1.4-0.7-2.1-0.3c0,1.2,1.8,3.6,3.8,2.7c-1.8,1-0.5,1.5-2.3,2.4c-2.6-0.6,1.3-2.2-1.3-2.8c-1.5,2.2-0.5,2.4-4.1,4.5
	c0.8,0.3,0.9,0.7,1.1,1c1.8-0.4,0.6-0.5,1.9-1.5c0.9,0.4,1.7,0.3,2.5-0.1c2,0.7,0.5,1.9,2.3,2.6c2.4-0.9-0.3-2.8,2.4-1.9
	c-0.1,1.6,0.2,4.7-1.4,5.6c1-0.9-0.3-1.3-1.7-1.8c-2.6,2.6,1,5.2-1.3,6.8c0.9,0.4,1.7,0.1,2.5-0.7c2.4,0.6,2.1,1.6,2.4,2.6
	c-3.6,2.8-1.2,5.6,0.6,8.6c-1.2-0.1-0.9-2-2.7-1c-2,1.6,2.2,2,1.5,3.3c-1,0.2-2.1-0.6-3,0.6c0.7,0.3,1.4,0.5,2.1,0.8
	c-3.1,2.6,3.8,3.2,3.9,5.2c-3.3,2.3-0.5,5.2,2.7,4.2c0-0.4-2.9-1.7-0.3-1.7c-0.9,1.4,1.8-1,2.5-0.2c-1,1.2-1.6,2.3-2.5,3.5
	c-3-0.6-2.5-0.6-3.9-1.9c-1.6,3.1-0.4,6.2,2.2,6.8c-1.2-0.2-2.2,2.1-2.1,2.6c3.8-0.6-0.3,2.8,1.2,3.7c0.9-0.2,4.4,0.2,3.8,1.2
	c-1.5,0.2-3.1,0.2-4.4,1.4c3.3,1-2.4,2.7,1.7,3.8c-0.2-1.2,1.1-0.8,2.4-0.9c-0.3,1.6,1.1,4.2-2,3.2c2.1,1.3,4.4,3.8,2.9,6.9
	c0.7,0.2,1.5,0.4,2.2,0.6c-0.8,1.9-2.5-0.5-3.5,0.6c1.1,2.3,3.8,2.6,3.7,5.4c1.7-1.2-0.7-1.2,1-2.4c-0.3,1.6,3,3.8,0.6,5
	c0.5-0.6-0.5-2.2-1.4-1.5c0.3,1.3-0.8,3.1,1.9,3.8c0.3-0.9-0.5-1.8,1.7-1.7c-0.5,1.2,1.2,2-1.6,2.3c3.4-0.5,1.6,1.1,3,1.9
	c0.8-1,0.7-1.8,2.4-3.1c-1.5-0.2-0.4-1.1-2.3-1.2c6-3.9-3-6,1.4-10.4c-2.6-1.1,1.5-4-2-4.9c0.4-3.3,0.7-6.6-0.8-9.4
	c1.2-0.2,2.2-1.2,3.4-1.1c-0.3-0.7,1.2-1.9-0.4-2.3c1.4-1.6,3.2-1.6,4.7-2.3c-1.5-0.4-3-1.1-4.3-0.8c-0.1-1.7,1.8-3,2.5-3.5
	c-1.6-0.2-2.5-0.1-2.3-1.3c2.6-0.4,2.7,1.6,4.7,0.4c-0.8-0.8-2.7-2.2,0.5-3c-1.4-0.4-1-1.1-1.8-1.6c-1.4,0.7-2.9,1-4.6,0.1
	c1.5-1.4,1.4,0.5,3.4-1.1c-2.4-1.3,0.7-2.9-0.2-4.9c2.4,1,2.1,1.4,4.7,0.5c-1.1,0.8,1.7,0.8,2.2,1.3c-0.9,1.3-0.3,2.2,0,3.2
	c-1.9,0.1-0.9-1.9-2.7-0.8c2.7,0.7-2.3,3.2,2,2.8c-2.1,2.5-2.3,3.8-3,6.5c0.9,0.3,1.8,0.4,2.6,0.3c-0.5,0.5-0.9,1,0.2,1.1
	c-0.7,1.7-2.1-0.3-3,0.7c-0.9,1.5,0.7,2,2.8,1.4c-0.8,1.3-1.9,0.8-2.8,1.8c0.2,1.9,3.2,1.7-0.2,4.8c1.1,0.3,1.9-0.9,3.1-0.2
	c-0.6,1.9-0.8,2.2,1.2,0.9c0.6,0.7-1.3,2.1-1,2.9c3.7,2.2-0.2,6.1,0.2,8.6c0.8,0.2,1.6,0.5,2.4,0.7c0-0.6-0.4-1.1-1.5-1.5
	c2-1,2-1.2-0.1-1c2-1.1,1.4-1.7,1.7-2.5c1.5,0.8,0.7,2,2.4,2.7c0.6-0.5,1-0.9,1.3-1.2c-0.1-0.7-0.2-1.4-0.3-2.2
	c-0.4-0.6-0.9-1.2-0.7-2c0.2,0,0.4-0.1,0.5-0.1c-0.2-2.7,0-5.5,0.9-8.5c2.2,0.2,1.2,1.2,1.7,1.9c0.9-0.6,0.9-0.8,2.5-2
	c1.6,0.5,2.1,0.1,4.6-0.1c0.5,0.8-1.3,2,1.3,2.3c-3.2,2.9-0.7,4.6-2.1,7.7c4.6,0.6,0.2,3.1,1.6,4.4c0.6-0.4,1.3-0.8,2-0.4
	c-1.7,1.1,0.6,1.3-1.7,2.5c-0.5,0.1-0.9,0.1-1.4,0c-0.2,0.3-0.4,0.7-0.8,1c1.2,0.1,2.1-1.5,3.5-0.7c-0.6,0.4-1.1,0.8-1.5,1.2
	c0.8-0.2,1.6-0.3,2.4,0.1c-1.7,1.4-1.5,1.6,0.9,2.2c-0.6,0.5-1.3,0.7-1.9,1c0.5,0.6,2.5,0.8,2.3,1.6c-4,1.2-2-1.7-3-2.7
	c-0.7,0.4-1.5,0.2-2.2,0.3c0,0.4,0,0.8-0.1,1.4c-0.2-0.3-0.6-0.5-1-0.6c0.8,0.4,1,1,1.2,1.6c0.3,0,0.6-0.1,1-0.2
	c-0.3,0.6-0.1,1.1,0.1,1.6c0,0,0,0,0.1,0c0,0,0,0,0,0.1c0.2,0.4,0.3,0.9,0.1,1.5c-0.6,0-1-0.1-1.3-0.2c-0.2,0.2-0.1,0.4,1.1,0.6
	c-0.6,0.6-1.2,0.7-1.9,1c0.2,0.2,0.3,0.4,0,0.8c3.3-1.4,3,0.9,3.7,2.2c0.3,0,0.6,0.1,0.9,0.2c-0.2,0.1-0.3,0.1-0.5,0.2
	c0.3,0.2,0.7,0.3,1.2,0.2c-1.8,0.9-1.4,0-2.5,0.5c-0.6,0.9-0.6,2,0.6,2c-0.1-0.6,0-1.1,1.4-1.4c0.9,1.4-0.5,3.3-0.2,4.9
	c1-0.3,1.5-0.2,1.8,0.1c0.1,0,0.2-0.1,0.3-0.1c0.2,0.2,0.2,0.4,0,0.6c0.1,0.4,0.2,0.9,0.2,1.4c0.4,0.2,0.6,0.8,0.2,1.8c0,0,0,0,0,0
	c0.1,0.3,0.2,0.6,0.5,0.8c1.6-1.9,2.1-6.1,6.6-6.2c0.2-0.6-0.3-1-1.3-1.3c-0.7,0.7-1.6,0.9-2.4,0.9c1.5-2.5-4-0.2-3.5-2.3
	c1.3,0.4,2.5,0.7,3.6-0.1c0.3-0.5,0.4-1,0.3-1.4c-0.7-0.2-1.4-0.4-2.1-0.5c1.2-1.1,0.9-1.8,2.1-2.9c2.7,0.1,1.1,1.3,2.9,1.7
	c0.8-0.7,1.1-1.3,0.7-1.8c-1.1-0.3-2.2-0.5-3.2-0.8c0,0.7-0.5,1.1-1.9,1c1.4-2,0.5-3.4,0.7-5.2c-4.7-0.1-4.3-2.1-3.3-4.2
	c0.9-1.9,2.2-3.9,0.5-4.7c1.4,0.5,2.7,0.3,4.1,0.1c-2.1,2.1-5.1,5.2-0.8,5.1c-2.4,1.5-1.6,2.3-1,3.1c2.2-0.7,0.1-1.6,3.3-2.1
	c-4.6-0.1,2.9-3.3-2.5-2.6c3.4-2.1,0.8-2.9,2.4-4.7c1.3,0.4,0.8,1.1,2.6,0.2c-1.3-0.4,1.4-1.3,1.9-1.4c-2.5,0.6-0.2-1-2.7-1.2
	c-0.1,0.7-0.6,1-1.9,0.9c1.1-1.3-1-2,2.1-3.8c0.9,0.2,1.8,0.7,2.6,0.2c-0.1-1.4-2.2-0.8-3.3-1.9c3.9-1.6,0.9-2.5,5.1-4.3
	c-1.2-0.8,0.9-2.5,1.5-3.4c0.3,0.3,2.3,0.1,2.7-0.1c-0.2-0.8,3.2-3.1-0.2-1.9c0.6-1.2,1.2-0.9,2.2-1.1c0.1-0.6,0.1-1.3,0.2-1.9
	c-0.9,0.3-0.2,0.7-1,1.5c-1.9,0.3-0.7-0.5-2.6-0.7c1.6-0.8,1.5-1.3-0.1-1.5c2.2-0.4,1.4-2.2,3.9-1.7c-0.2,0.4-3.8,1.5-0.3,2.3
	c0.1-0.1,0.1-0.2,0.2-0.3c0.4-6.6-0.3-12.8,0.4-19.3c2.4,0.3-0.6,1.8,0.9,2.2c1.8-0.4,1,1,3.1-0.2c-0.7-0.2,0.3-0.8-0.2-1
	c-0.9-0.1-1.7,0.2-2.6-0.2c0.8-1.3,1.9-0.7,2.9-1.2c0.1-0.6,0.5-1.4,0.2-1.9c-0.9,0-1.7,0.1-2.5,0.3c-1.7,1.8-3.5,2.2-5.2,3
	c0.9-0.9-1-1.2,0.7-2.3c1.1,0.2,2.2,1.1,3.1-0.1c-1.6-1.7,3.5-4.9-0.4-6.1c2-1,2-1.2-0.1-1c2-1.1,1.4-1.7,1.7-2.5
	c1.5,0.8,0.7,2,2.4,2.7c3.6-2.5-0.2-3.5,0.3-5.4c3-0.4,1-1.9,2.2-2.8c1.9-0.2,3.9,1.2,5.7,0.2c-2.7-0.6-1.1-2-1.9-3
	c-2.3-0.5-1.6-0.2-4.1-0.3c2.4-1.3,1.7-1.2,3.8-2.8c1.6,0.5,2.1,0.1,4.6-0.1c0.5,0.8-1.3,2,1.3,2.3c-3.2,2.9-0.7,4.6-2.1,7.7
	c4.6,0.6,0.2,3.1,1.6,4.4c0.6-0.4,1.3-0.8,2-0.4c-1.7,1.1,0.6,1.3-1.7,2.5c-1.3,0.2-2.8-0.3-4,0.9c0.5,0.1,0.3,0.5,0.6,0.7
	c2,1.1,3.6-1,5.6,0.1c-1.7,1.4-1.5,1.6,0.9,2.2c-0.6,0.5-1.3,0.7-1.9,1c0.5,0.6,2.5,0.8,2.3,1.6c-4,1.2-2-1.7-3-2.7
	c-1.1,0.7-2.5-0.3-3.4,1c1.9,0.8,0.8,2.3,2.6,3.1c-0.4,1.3-2.8,1.4-0.2,1.9c-0.9,1-2,0.6-2.8,1.7c2,0.2,1.5,0.9,2.8,1.2
	c-0.6,0.7-3.8,1.5-2.7,2.3c1.7-0.9,3.4-1.9,5.5-1.1c-4.4,1.6-0.4,1.6-4.6,3.3c2.9,0.2,1.8,0.4,3.3,1.3c1-1-1.3-2.5,1.5-3.1
	c0.9,1.4-0.5,3.3-0.2,4.9c3.7-1.1,1.4,3.4,2.9,4.6c1.6-1.9,2.1-6.1,6.6-6.2c0.2-0.6-0.3-1-1.3-1.3c-0.7,0.7-1.6,0.9-2.4,0.9
	c1.5-2.5-4-0.2-3.5-2.3c1.3,0.4,2.5,0.7,3.6-0.1c0.3-0.5,0.4-1,0.3-1.4c-0.7-0.2-1.4-0.4-2.1-0.5c1.2-1.1,0.9-1.8,2.1-2.9
	c2.7,0.1,1.1,1.3,2.9,1.7c0.8-0.7,1.1-1.3,0.7-1.8c-1.1-0.3-2.2-0.5-3.2-0.8c0,0.7-0.5,1.1-1.9,1c1.4-2,0.5-3.4,0.7-5.2
	c-4.7-0.1-4.3-2.1-3.3-4.2c0.9-1.9,2.2-3.9,0.5-4.7c1.4,0.5,2.7,0.3,4.1,0.1c-2.1,2.1-5.1,5.2-0.8,5.1c-2.4,1.5-1.6,2.3-1,3.1
	c2.2-0.7,0.1-1.6,3.3-2.1c-4.6-0.1,2.9-3.3-2.5-2.6c3.4-2.1,0.8-2.9,2.4-4.7c1.3,0.4,0.8,1.1,2.6,0.2c-1.3-0.4,1.4-1.2,1.9-1.4
	c-2.5,0.6-0.2-1-2.7-1.2c-0.1,0.7-0.6,1-1.9,0.9c1.1-1.3-1-2,2-3.8c0.9,0.2,1.8,0.7,2.6,0.2c-0.1-1.4-2.2-0.8-3.3-1.9
	c3.9-1.6,0.9-2.5,5.1-4.3c-1.2-0.8,0.9-2.5,1.5-3.4c0.3,0.3,2.3,0.1,2.7-0.1c-0.2-0.8,3.2-3.1-0.2-1.9c0.7-1.5,1.5-0.6,3.4-1.4
	c-1.7-0.3,1.3-1.4,0.3-1.8c-2.7,0.2-1.3,0.7-2.4,1.7c-1.9,0.3-0.7-0.5-2.6-0.7c1.6-0.8,1.5-1.3-0.1-1.5c2.2-0.4,1.4-2.2,3.9-1.7
	c-0.2,0.4-3.8,1.5-0.3,2.3c1.3-2,2.4-1.2,4.9-2.3c-3-0.5,2-2.4,0.2-3.2c1.9,0.2,0.7,1,2.7,1.2c-2.4,1.3-1.7,2.1-1.3,2.9
	c0.6-0.3,2-0.5,1.5,0c-2.2,0.8,0,2.9,1.9,3.7c-0.9,0.9-2,0.5-2.9,1.5c1.6,0.7,2.2,2.5-0.1,3.2c-2.8,0,1.8-1.5,0.3-1.8
	c-1.6,0.5-3.5-1.1-5.1,0c0.1,0.9,1.2,0.1,2.6,0.7c-1.7,1.1,0.3,1.4-0.2,2.3c-0.9,1.3-2.1-0.2-2.9,1.1c2.6-0.4,3.7,0.9,3.3,1.8
	c2.4-0.4,3-0.4,4.6-0.2c-1.4,1.7,1,2.6-0.9,4.4c-1.4,0.1-0.4-1.5-2.1-0.5c1.5,1.1-1.6,1.8,0.4,2.9c-1.7,0.5-3.2,3.2-1.5,3.8
	c-1.5,1.4-3.4,0.4-4.8,2.1c2.9-0.5,1.4,1.5,4.3,1c-1.6,0.9,0.1,1-0.8,1.7c-0.9-0.2-1.8-0.5-2.5,0.3c1.1,0.2,0.7,0.7,1.7,0.9
	c-1.2,1.2-2.6,0.6-3.9,1.4c3.6,0.2,1.2,1.8,2.5,2.5c1.1-1.2,1.6-2.3,2-3.3c2,1.3-1.7,4,0.4,5.3c0.9-2.4,3.5-5.1,2.4-7
	c-0.8,0.6-1.5,1.3-2.4,0.8c1.8-1.3,1.9-0.9,2.8-2.2c1.2-0.2,2.4,0.1,3.6-0.1c-3.2,3-4.6,5.9-0.5,6.4c-1.5-0.2-2.5,1.6-0.3,1.3
	c-1.1,1.3-2.7,0.2-3.9,1c1.1,0.4-0.2,1.4,0.3,2c0.9-0.6,0.7-2.4,2.8-1.7c1.8,0.1-2.5,1.7-0.7,1.7c2.9-0.2,2.4-0.3,3.8,0.8
	c1-1.3,2.2-1,3.4-1.1c-2.1,1.5,1.9,0.8,2.8,1c-1.5,1.3-3.4,0-4.9,1.3c1.6,0.7,1.3,1.9,1.1,3C272.5,7.8,273,7,271.2,8
	c0.2,1-1.5,1-2.7,2.3c2.9-0.7,0.7,1.3-1.1,2.6c1.7,0.6,2.4,1.3,4.8,0.5c-1.4,1.7-3,2-4.7,2.3c2.9,0.2,0.4,2.8,3.5,2.1
	c-0.3,0.6-2.9,1.9-1.7,2c5.3-1.4,1.6-5,6-6.3c-0.4,1.4-1.4,3-1.7,4.3c4.5-2,6.8-0.8,10.9-2.1c-2.8,2.1,1.1,3.5,1.8,5.8
	c-1.5-0.6-2.6-0.4-4.4-1.2c-2.6,3.1-4,5.8-1,7.2c-4.4,3.6,1.3,4.1-3.4,7.8c1.8,0,0.2,1,1.3,1.2c-0.7,0.7-1.4,1.3-2.1,2
	c3.4,1.8-1.6,6.8-0.9,8.8c0.6-0.5,1.1-1.2,1.8-1.1c0.2,0.5,2.7,0.6,0.4,1.5c1-1-1.6-0.1-1.9,0.7c0.8,0.4-0.4,4.1-0.1,4.7
	c-1.2-0.2-1.5-1.6-2.6-0.9c-0.9,1.5-0.3,2.4-0.6,3.7c2-0.3,3.8-1.5,5.9-1.5c-3.9,1.6-9.1,4.3-5.2,5.9c1.1-1.1,1.7-0.7,1.7-1.7
	c3.8,0.6,1.5,2.9,4.4,4.4c-3.2,2.4,1.9,3.2-2.3,6.8c1.9,0,0,1.5,2.5,1.3c0.6-0.5,1.1-1.2,1.8-1.2c-2.7,2.6,2.8,2.4,1.1,5.3
	c-3,0.1-0.8-3.1-3.4-2.3c-0.9,2.2,2.3,7-1.6,6.9c0.7,1.6,3.9,3,2.9,6c-1.6,2.1-3.2,2.4-2.6,3.5c-2.1,1.2-2.6-0.1-4.1,0.5
	c-0.3,0.5,0,0.7,0.3,1c1.3,0.1,2.3-0.6,3.7-0.1c-1,1.7-3,0.5-4.3,1.5c-1.5,2.1,4.2-0.4,2.7,1.7c-1.1-0.2-2.1,0.2-2.8,1.2
	c1.3,1,1.7,0.1,3.7-0.1c-1.9,1.4,1.5,0.5-0.4,1.9c-1.7,1-1-1-2.6,0.2c-1.8,1.8,3,0.8,4.2,1.4c-0.6-0.8,0.9-3.2,3.3-3.1
	c0,2.2-0.8,4.7,1.5,5.9c0.4-0.3,0.8-0.9,1.3-0.8c-1.4,2.3-4,0.9-5.4,2.9c3.1-0.3-1.5,2.7,0.5,2.9c1.5-1,0.8-2.6,4.3-3
	c-0.9,1.5-2.2,2.1-3.2,3.1c1.3,0.1,2.6,0.2,3.9,0.3c-1.2,2.2,1,3-0.3,5.3c-2.7,0.1,1.2-0.9-0.4-1c-0.9,0.1-1.5,0.9-2.2,1.3
	c2.2,0.2,4.8,1.6,4.6,3.7c-0.7,1.4-2.2,0.8-3,2.2c0,1.4-0.7,2,2.2,1.6c-0.8,1.7-2.4,1.4-3.5,2.2c0.4,0.8,1.1,1.4,1.8,2.1
	c-2.5-0.1-1.7,0.7-3,2.2c1.8-0.4,2.4,1.2,0.6,1.5c-1.6-2.8-1.1-6.5-1.5-9.8c-1.1,1-2.7,0.4-3.9,1.2c0.2,0.3,0.3,0.7,0.4,1.2
	c0.2,0.2,0.3,0.4,0.1,0.7c0.1,0.9,0.1,1.9,0.2,2.9c0.1,0.2,0.1,0.5,0.1,0.9c0.3,2.4,1.3,4.4,5.4,3.5c0.5,1.2-1.5,0.8-2.4,2.3
	c1.7,0.4,1.4,1.7,2.1,2.5c2-0.7,1.5,0.6,3.1-0.3c0-1,1-2.4-1-2.5c-0.5,0.5-0.9,1.3-1.6,1.4c1-1.2-1-1.1,0.1-2.4
	c2.1-0.1,3.6-1.9,5.7-2.1c0.5,1.2-1.5,0.8-2.4,2.3c4.1-0.4-2,5.2,3.7,2.6c-0.2,0.6,0,1,0.9,1c-0.2,1.2-3.1,1.9-1.8,2.3
	c0.7,0,1.1-0.8,1.8-0.9c0,1.4,0.9,2.3,0.5,3.9c1.3-1.7,1.1,1.1,2-0.4c-1.4-0.6-0.3-2.4,0.1-3.8c0,2.1,1.8,1.8,2.9,3
	c-0.9,0.5-2.2,0.1-2.7,1.3c0.7,0.1,0.3,0.6,1.3,0.5c1.1-0.8,2.6-0.9,3.6-1.8c-1.7-0.4-0.1-2.5-2.7-2.5c0.7-1.4,1.9-1.7,2.7-2.8
	c-2-1.5-6.1-0.3-3.7-4c1.6-1.1,1.4,1.2,2.9-0.8c-2.6,0.3-2.7,0.1-3.1-1.1c1.3-1.1,2.4,1.5,4.1-0.8c-2.4,0.4-1.8-1-5.4,0.2
	c1.7-2.8,2.6,0.4,4.6-2.2c-3.1,0.2-1.5-1.9-4.3,0.3c2.4-2.6,1.9-3.7-0.9-2.4c0.4-0.6,0.7-1.1-0.4-1c0.6-0.9,4-1.7,2.8-2.7
	c-1.4,0.2-2.6,0.9-3.9,1.2c-0.3-0.7-1.9-2.3,0.4-3.3c-0.9,1.3,0.7,1.4,0.3,2.4c2-3.2-2.3-4.4,3.4-6.9c-2.3-0.3,0.3-2.7-2.2-3
	c0.3,0.9-2.4,3.2,0.5,2.9l-1.5,1.8c-0.7,0-1.5-0.1-2.2-0.1c1.2-1.4,0.9-2.8,1.5-4.6c1.3-0.5,2.8-0.2,3.7-1.6c-3.1-0.3-1.1-3.5-1-4.3
	c-2.5,0.8-2.8-1-5.2,0.6c0.2-0.4,0-0.6-0.7-0.5c2.7-1.3,2.3-2.6,4.9-2.9c-0.4-1-3.2-0.1-4.6,0.6c1.2-2-3.3-4.1,1.2-4.2
	c0.5-0.8-1.4-2,1.2-2.7c0.6,0.4-0.4,1.5,1,1.5c2.7-2.1-0.4-1.9,0.5-3.3c0.4,0,0.7,0.1,1.1,0.1c0.4-0.3,0.9-0.5,1.5-0.3
	c-0.5,0.7-1.6,1.6-1,1.8c0.7,0,1.5,0.2,2-0.3c0-1.4,0.8-3.6-3-2.6c0.6-2.2,0.5-4.1-1.2-5.3c-1.4,1.1-3,1.7-4.7,1.9
	c4.5-2.2-0.7-0.5,0.7-2.8c2.7-0.9,3,1.2,5.2-0.4c-0.6-1.9,0.8-4.7-2.8-5.4c3.1-3.1,0-5.4,2.8-8.1c1.1-0.1,0.8,0.8,1.6,0.2
	c0.5-1.5,4.1-1.3,3-2.5c-1.4,0.2-2.5,1.1-3.8,1.4c-2.6-0.5-1.6-2.4-2.6-3.6c-1.1,1.1-2.1,2.5-3.5,2.4c-0.5-0.8,0.7-2.2-0.3-2.8
	c1.1,0.3,1.8-1.1,2.9-1.1c-1.6,1.5-2.1,2.6-1.2,3.1c1-1.7-0.2-1.5,2.6-2c-0.4-1.6,0.6-3.6,0.1-5.1c1.7,0.3,4.3-1.2,4.1-2.3
	c2.4-0.2-1.4,1.9,0.5,1.9c2.3-1.3,3.5-3.3,0-3.7c-2.1,1.5-1.6,1.5-3.3,1.4c-0.9,1.7,2.8,0,1.1,2c-1.3-0.2-0.9-0.9-2.9-0.8
	c0.2-2.6,2.1-6.7-1.4-7.2c0.9-1.3,2.2-1.1,3-2.4c-0.6-0.1-0.3-0.4-0.7-0.5c-0.6-0.5-3.1,1-2.2-0.3c2.3-1.8,2.9-6.5-1-6.2
	c0.7-1.5,2.1,0,2.9-1c-0.7-0.2,0.5-1,1.1-1.7c-2.2,0.1-1.2-0.8,0.1-1.8c-0.7-0.1-1.3,0.4-2.1,0.2c1.4-1.1,0.1-1.4,1.5-2.5
	c0.9,0.2,1.7-0.1,2.5-0.6c-0.6-0.3-0.7-0.8-1.3-1.1c-0.9,0.7-0.3,1-1.2,1.7c-0.8-0.8-0.9-1.6-2-1.7c3.3-0.3,0.1-2,3.4-3.1
	c-2-2-1.9-4.7,0.8-8.1c-2.3-0.3-1.1-0.3,0.2-1.3c-1.5-1.2-2.3-3.8,0.4-5.4c-3.3-0.2,0.7-3.8,2.2-4.6c-0.3,0.3,0.4,1.4,1.2,0.7
	c0.6-0.8,0.5-1.4-0.4-1.9c-0.6,0.4-1.2,0.9-2,0.6c0.8-1.3-0.6-2-1.1-2.9c3.8,1.6,7.4,0.5,4.7,3.1c2.1,0.7,1,2.3,2.7,3.1
	c-1.1,1.2-2.9,1.3-2.6,2.3c-1.4,0.2-0.5-1.4-2.1-0.4c0.7,2.1,1,5,4.6,4.8c-1.3,1.4-3,0.6-4.2,2c3.7,0.1,0.5,3,0.9,3.8
	c0-0.7-1-1-2.4-1.3c2.1-1.4,1.4-3.3-1.1-2.4c-1.7,2,0.5,2.9-1,4.8c0.5,0.1,1.1,0.2,1.6,0.3c1.7-0.8,0.2-1.7,1.7-1.6
	c-1,0.8,1.7,0.5,2.3,0.8c-3.3,3,3.4,1.2,2.4,3.5c-1.9,0.3-1.7-1.3-2.7-0.4c0.3,1.4,0,3,1,4.2c-0.8,1.2-1.9,0.9-2.7,1.9
	c1.2,0.4,2.2,0.9,2.9,1.3c-1.7,1-3.8-0.1-5.6,0.6c-1.2,1,0.2,1.1-0.1,1.8c2.4-1.2,2.2,0.6,1.9,1.2c2.6-1.2,1.8,0.5,3.1,0
	c0.3-0.2,0.6-0.5,1-0.3c-1,1.6-2.7,0.4-3.7,1.8c-0.9,1.9,5.2,0.7,3.8,2.3c-1.1-0.3-2.1-0.2-3,0.5c-1.8,2.7,4.4,1.8,5.3,2
	c-1.2,0-2.2,0.9-3.3,1.4c-1.5-0.1-2.3-1.8-3.9-1c-1.2,3.1,3.2,1.4,5,2.9c-0.7,0.8-1.5,0.8-2.2,1.6c1.1,0.1,2.2,0.3,3.2,0.4
	c0.8-0.7-1.4-1.7,1-2.2c0.1,1-0.7,2.3,0.8,2.8c0.5-3.2,0.1-6.1,0.2-9.1c4.1,1.1-2,8.4,3.5,7.2c1.6,0.2,1.1,1.2,1.1,1.9
	c-0.7,0-1.5-0.2-2.1,0.2c0.2,1.6-1.3,3.8-1.1,5.3c-0.7,0-1.5-0.2-2,0.2c1.5,0.2-0.8,1.9,1.1,1.9c0.5-0.8-0.1-1.2,1-2.2
	c2.6,0.8,2.1,1.8,6.2,1.5c-1.4,1.9,1.8,0-0.1,3.2c4,0,1.6,4.8,2.1,7c-0.7,0-1.5-0.2-2,0.3c0.3,0.1,0.3,0.4-0.3,0.9
	c2.1-1,4.1-0.7,2.5,1.1c-0.5,0.6-1.3,0.3-1.9,0.8c1.5,0.2,1.8-0.6,2.2,0.2c-0.6,0.8-1.5,0.8-2.3,1.2c0.9,0.2,1.7-0.4,2.6-0.3
	c0.8,1.4-1.4,5,1.5,4.7c-0.9,1.6-2.8,0.2-3.8,1.6c5.9,0.3,3.8,3.8,1.6,6.5c0.4-0.5-0.4-0.4-0.9,0.4c-0.3-1.1-4-1.3-6.3,0.5
	c1.2,0.7,2.6-0.3,2.5,1.1c1.2-0.7,2.4-1.4,3.9-1.1c-1.1,1.4-2.9,0.8-4.1,2c-0.2,1-1.7,1.6-0.3,2.3c6.3-0.9,5.2,3.5,8.6,4.6
	c-1.3-0.1-2.6-0.2-3.5,0.7c0.7,1.3-0.3,2.2,3.1,1.1c-2.4,2.9,2.9-0.7,1.6,1.4c-1.7-0.3-3,0.7-4.4,1.2c-0.3,0.5,0,0.7,0.3,0.9
	c1.1-0.5,2.1-1.2,3.5-0.8c-2.7,1.7-0.6,2,1.4,1c-1.6,5.7,5,7.9-0.4,13.4c2.4-0.2,1.2,1.3,3.6,1c-2.5,2.7-0.6,2.8,2,2.4
	c-0.1,2.1-1.6,3.4,1.7,2.8c-0.5,1.8-2.5,0.1-3.3,1.3c-1.1,1.6,1.7,0.9-1.1,2.8c2.2-0.3,2.1,0.5,1.7,1.4c-0.7,0.1-1.5-0.1-2,0.4
	c3.7,3.6,3.8,10.5,8.6,12.6c0.3-1.6-2.2-3.2-0.3-4.6c-0.3,0.5,0.1,1.1,0.8,0.5c0.3-1.1,0.7-2.5-1.5-0.9c-0.5-1.7,2.9-2.7,4.9-2.8
	c-1.5,2.8-3.5,7,1.1,5.1c-1.9,1.7,1.5,0.7-0.1,2.3c-1.7,0.7-1.2-1.2-2.2,0c-1.2,1.5,0.2,1.6,1.3,1.8c0.4-0.4,0.7-0.9,1.3-1
	c-1.1,1.6-2.7,2.2-4.7,1.9c0.3-1.1,1.5-1.7-0.8-1.9c-1,2.1-3.2,1.1-4.3,2.8c1,0.1,0.8,0.9,1.2,1.4c5.6-2.1,9.6-1.1,10.9,0.8
	c-1.9-0.3-1.9,1.7-1.4,1.9c2.9-1.1,1.4,2.4,1.7,3.7c-0.9,0.1-1.9-0.1-2.5,0.5c-0.8,1.9,4.2-0.4,3.7,0.8c-3.1,1.3,0.3,1.3,0.3,1.9
	c-1.3,0.1-1.7,2-2.6,2.9c1.1-0.1,0.8,0.5,1.9,0.4c-0.6-0.4-0.6-1.5,1.3-1.9c-0.8,1.7-0.3,3,2.3,1.3c-0.4,1.5-2,0.4-2.4,1.9
	c3.4-0.6,0.6,0.7,1.2,1.4c1.3,0,2.2-0.8,3.2-1.5c-2.3,1.1-0.7-2-1.3-2.7c1.3,0.3,1.8-1,2.9-1c0.1,0.8-0.2,1.8,1.4,1.8
	c1.7-0.9,1.4-1.8,2-2.9c0.7,2.2-0.7,3.2-2.9,5.7c2.1,0.3-1,3.3-1.1,4.7c-1.3,0.7-3,0.8-4.3,1.6c0.9,0.9,0.3,2.6,1.5,3.2
	c1.3-0.4,3.5-1.8,2.8-0.1c-1.5,0.9-1.7-0.6-3.2,1.6c2.6-0.9,1,0,1.6,0.9c1.1-0.5,2.2-0.9,3.2-1.6c-0.4-0.1-0.7-1.7,0.7-1.9
	c0.2,0.7-1,2.1,0.9,1.8c1.5-1.1-0.2-1.7,1.3-1.9c-0.4,0.7,1,0.3,1.7-0.1c-0.7,1.5-1.8,2.4-3.1,3c0.7,0.4-0.3,1.7,0.9,1.8
	c-0.9,1.5-4.4,3.7-2.6,3.9c1.9,0.3,2.3-2.2,4.3-1.7c-0.8,1.8-3,0.7-3.8,2.6c0.4,2,0.7,4.2,3.9,4.5c-2.9,1.5,0.6,1.6,0.6,2.3
	c-0.4,1.3-3.4,2.8-2.2,3.5c2.1-0.3,5.2-0.9,6.4-1c-0.9,0.7-1.3,1.6-1.9,3c-2,1.6-0.8-1.5-2.8,0.2c0.5,1.1,1.2,3.7,3.6,2.5
	c0.5-1.1-1.6-1.1,0.5-2.4c3,0.8,1.1,6,4.2,5.8c-0.1,3.4-2.6,6.8,1.6,6c-0.9,1.2-2.5,2.3-1,2.5c0.6-0.7,1.4-1,1.8-2.1
	c1.1-0.1,2.2-0.2,3.3-0.3c-4,3,2.9,2.1,0,4.3c0.7-1.4-1.2-0.7-2.2,0.2c1.3,0.2-1,2.7,1.2,2.3c2-1.9,1.3,0.2,3,0.1
	c-0.3,1.6-2,0.6-2.3,2.1c0.4,0.1,1.1-0.1,0.8,0.4c-2,1.2-2.5-1.7-5.3,1c2.9-0.3-0.5,5,4.3,2.4c-0.4,1-1.3,1.2-1.7,2.1
	c2.2-0.5,1.2,2,3.3,0.6c0.9-1.4-1.9-0.2-0.5-1.9c3,0.5,2.5,2.4,6,1.2c-0.9,1.4-2.7,1.4-3.6,2.8c1.7-2.7-2.2-1.7-3.6-0.1
	c2,0.1,1.9,1.6,3.5,2c0.8-0.7,1.5-1.5,2-2.6c2.7-0.7,2.1,0.9,3.5,1c-0.5,1.6-1.8,1.7-2.5,2.7c4.2-0.6,3,4.5,7.1,3.8
	c-1.1,1.1-2.7,1.5-3.9,2.4c0.2,2,3.1-1.5,2.7,0.6c-0.7,0.1-1.4,0.3-1.7,1.2c0.8,0,2.1,0.3,3.3-0.5c-0.4-0.7-0.8-1.3-0.8-2.3
	c1-0.3,1.7-1.1,2.2-2.2c1.7,0.9,1.7,3,2.7,4.4c2.2,0.3,3-1.5,4.4-2.5c-0.5,2.3-1.1,1.4-2.5,3.7c-4.3,0.4-3.3-1.7-5.1-2.6
	c-0.3,1.8-1.1,1.9-1.4,3.5c-2.3,1.3-2.7,0.5-5,2.6c0.7-1.2-1.6-1.8-1.9-1.2c-1.6,2.3,2.2,2.3,3.8,0.4c-1.5,2,1.1,2.6,2.2,1.6
	c1.4-1.7-1.4-0.5-0.5-1.9c0.7-0.2,1-0.9,1.4-1.6c4.6,1.4,2.5,12.3,9.6,7c0.2-0.1,0.4-0.2,0.5-0.4c-0.2,0.2-0.4,0.3-0.5,0.4
	c-1,0.5-1.5-0.7,0-1.3c0.3,0.2,0.9,1.8,1.6,0.7c-0.4-1.3-2.5-1.3-4.9-1.1c2.4-3.2-1.6-1.6-0.6-3.7c2-0.7,0.4,1.2,1.4,1.2
	c0.9-0.8,2-1.2,2.7-2.3c1.7,0.4,3.3-1.2,2.5,1c-1.7,1.3-3.1-0.5-4.7,2.1c3.2-0.7,5.1-0.3,6.6-2c1-1.2-1.7-1.3,0.8-2.5
	c-0.1,0.6,0.2,0.9,1.1,0.8c-2.6,2.7,0.9,3.2-3.5,5.8c2.8-1,7.4,0.3,5.7,3.4c0.4-0.6,1-0.9,1.6-1.2c-0.3,0.6-0.5,1.2,0.5,0.9
	c-0.8,1.2-1.9,2-3.2,2.5c0-1.7-1.4-2.4-2.2-3.5c-0.7,1-2.3,0.8-2.7,2.4c3-1.2,2.1,3.1,5.7,2.4c0.6-1.3-0.2-1.5,1.6-2.2
	c1.7,0.7,1.3,5.1,4.7,2.5c-1.6,1.7-3.4,3.7,0.1,2.9c-0.4,1-1.2,1.3-1.6,2.2c-2.1,1,0.4-1.6-1.7-0.7c-1.1,3.2-1.2-0.1-2.2,1.3
	c-0.8,1.5,0.9,1,1.2,1.7c1.8-2.6,2.7-0.8,4.6-3.2c-1.3,1.6-2,4.9,0.9,3.2c-0.6,1,0,1-0.5,2c-2.8,2.9-3.4-1.3-5.4,1.9
	c-0.1-4.3-4-4.4-6.2-6.6c-2.1,3,2.9,1.1,0.1,3.8c1.3,0.4,1.9,0,3.5-1.1c-0.3,2.6,0.4,0.7-1.8,2.7c1.4,0.1,0.7,1.5,2.7-0.5
	c0.7,1.7-3.4,2.3-4.8,3.7c1.9,0,0.2,2.9,2,3c0.7-0.8,1.5-1.5,2.1-2.3c-2,0.8-1.3-0.5-2.2-0.6c0.3-1.1,3.1-3.2,3-2
	c-0.7-0.2-2.9,1.5-1.6,1.3c1.2-0.1,2.1-0.5,3-1c0.4,0.8,0.2,3.8,1.7,2.6c1-1.8-1.6-1-0.6-2.8c2.4-1,1,1.5,3-0.1
	c-3.2,3.2-0.1,6.6,3.2,3.7c-0.4,1.8-2.7,3-1,3.1c0.8-0.3,1.3-1.1,2.1-1.4c-0.7,1.7,0.9,0.4,1.9,0.1c0,1.1-0.3,2.5-0.1,3.4
	c-2.8-0.2-6-0.1-9.3,1.8c0.6,0.9,1.8-0.4,3-1.1c-1.4,2.3,1.3,1.4,0.5,3.3c-1.2,0.3-1.8,1.6-2.3,2.9c3.1-1.1,1,2,1.5,2.1
	c0.9-0.2,1.9-0.2,2.4-1c0.1-0.6-2.3-0.8-0.1-1.9c0,0.5,2.4,0.7,2.5,0c-1.2,0.4-1.7-1.4,0.1-2.5c3.4-1.1,1.7,2,4.7,0.5
	c-0.3,1-1.2,1.2-1.8,1.8c1,0.7,1.2,3.3,3.6,1.7c-1.1,3.6,2.3,1.4,3.8,2.6c0,0-1.3,2.8,1.1,0.7c-0.2,1.4-1.4,1.5-1.7,2.8
	c2.7-1.7,2.1,2,4,2c-1,0.3-1.6,1.2-2,2.4c-0.2,1.9,1.8-0.9,1.9,0.1c-0.8,0.4-1.4,0.9-1.8,1.9c2.3-1.3-0.5,1.8,0.9,1.3
	c1.2-0.1,1.3-1.7,2.3-2c0.2,2.1,3.9,1.2,3.9,3.5c-0.9,0.2-1.6,0.7-2.1,1.5c2.6-0.4,3.3,0.1,1,2.2c2.3,0.4,5.3,0.8,3.2,4.1
	c2.1-0.7,1.2,1.2,2.3,1.4c1.4-1,1.5-0.1,3.4-1.3c-1.1,1.7-1.5,2-0.6,2.6c-1.6,1.4-1.8-0.1-2.8-0.3c-1.1,1.9-3.1,2.6-4.9,3.6
	c0.2,1.3,0.8,2.3,3.1,0.7c0.4,1.7-0.5,4.7,3.7,3.1c0.2,1.2-2.8,2.2-1.4,2.3c0.5-0.1,0.8-0.6,1.3-0.8c-1.1,4,4.8,4.3,5.2,8.1
	c0.9-2.5,0.4-2,1.7-4.4c-2,1.1,0.3-1.7-1.7-0.5c-0.3,0.6,0.4,0.7-0.4,1.1c-2.6-1.1-1.1-3.9-3.4-5.1c1.2-0.2,2,0.7,2.6-1.6
	c1.8-0.2,1.8,0.6,0.6,2.3c1.2-0.1,4.9,0.2,5,2.2c-0.9,0.3-1.8,0.4-2,1.5c-0.5,1.4,1.7,0.4,2.1,0.9c0.2-0.6,0.4-1.1,0.6-1.6
	c1.4,2.1,3.6,3.5,5.9,4.9c-0.1,1.4-1.3,1.6-1.5,2.9c0.7-0.2,1.4-0.4,2.2-0.6c-0.2,1-1.1,1.3-1.7,1.9c1.1-0.3,0.1,1.3,1.7,0.5
	c0.3-0.7,0.5-1.5,1.1-1.8c-0.1,1.1,1.6,0.6,1.2,2.2c-0.9,0.3-1.8,0.4-2,1.6c1.4-0.6,0.8,0.7,2.5-0.2c0.3-1,0.9-1.5,1.7-2
	c-2.1,4,2.2,2,2.5,3.8c-0.6,0.9-2.1,0.7-2.5,1.7c0.1,2.3,2,3.3,3.7,4.6c1.7,1.3,3.3,3,2.5,6.6c0.9-0.3,0.9-1.5,2-1.6
	c0.9,1-1,0.7-1.3,2.4c0.9,1,0.7-1,2.3-1.2c-0.2,1.3-1.4,1.5-1.5,2.9c1.9-0.3,1.3,1.9,3.3,1.5c0.3-1,0.9-1.6,1.6-2
	c-0.1,0.6,0.6,0.4,1.4,0.1c-0.9,3.6,2.8,1.6,2.6,3.7c-2.2,2.2-1.9-0.6-3.2-0.5c-0.2,0.6-0.6,0.8-0.9,1.3c1.5,1.2,2.6,2.9,3.8,4.4
	c0.3-1.9,0-3.3-1.2-3.7c1-0.2,1.3-1.1,2-1.6c-0.8,3.6,1.1,0.6,1.7,2c-0.7,1.3-1.3,3.6-0.3,4.1c1.4-2,1.1-2.3,2.1-3.7
	c-0.6,1.7,1.2,1.1-0.2,3.6c1.4-1.3,3.2-0.7,1.4,1.6c3.5-0.7,3.9,1.7,5.2,3.4c1.4,0.2,3.6-2.4,3.7-1.2c-2.4,1.8,0.2,1.3-1.7,4.1
	c4.6-2.2,4,2.6,8.1-0.2c-0.7,1.9,1.5,0.6,2,1.3c-4.8,3.6,2.7,4.8,4.9,4.4c-1.9,2.9-2.7,0.1-3.7,1.3c-0.2,1.4-0.6,3-0.1,3.6
	c1.4-2.5,0.8-0.4,1.4,0c1.5-1.9,1.7-1.7,3.1-2.6c-0.2,1.8-2.2,1.6-2.7,3c-0.4,2,0.7,2.8-2,5.3c1.9-1.2,3.4-2.8,5.4-3.9
	c-1.3,2.4,0.2,3.4-0.5,5.3c1.6-1.5,1.7-4.6,3.1-6.3c1.9,0.7-2.7,6.5,2,4.9c-1.3-2.6,1.2-4.7,0.2-7.7c0.6,0.9,3,1.8,1.9,3.4
	c0-0.4-0.3-0.5-0.9-0.2c-1.2,3.1-0.8,4.3,0,5.1c-1.3,1-1.9,0.5-2.7,3c0.7,0.1,0.3,1.5,1.6,0.9c0.7-1.4-1-1.3,1-1.9
	c0.5,1.5,0,3.2,3.1,0.9c-1.5,3.4,1.3,4.5,2.8,2.1c-0.2,0.8-0.4,1.5-0.6,2.3c2.1-1.7,1.6-0.2,2.8,0c-0.7,2.1-1.9,2.6-1.5,4.2
	c2.1-0.7,4.3-1.4,4.5,0.9c-1.5,0.8-2-1.4-3.5,0.8c1,0.4-0.1,2.2,0.3,2.5c2.7-0.4,2.7,0.4,5.6-1.7c-0.1,4.3,7.4-0.6,5.7,5.5
	c0.9-1,1.5-1.2,2.1-0.8c0.2,1.7-3,3.6-1.5,4.2c1.3-0.4,0.9-2.4,2.5-2.6c1.5,0.9,1.5,3,4.4,1.4c0.3,1.7-1.8,1.1-1.9,2.4
	c0.9,1,1.8,3.1,4.5,0.8c0.6,1,0.7,2.8,2.9,1.9c-0.3,1.3-1.3,2.1-1.3,3.7c2.7-1.9,0.5,2.2,2.6,1c0.7-1.2,1.9-1.9,2.9-2.8
	c-0.6,2.4-3.6,2.7-4,5.3c1-0.6,0.9,0.4,1.3,0.5c0.6-1,1.2-2.2,2.4-2.6c-0.1,1.7-2.1,2.3-1.1,3.1c1.7-0.8,2.3-2.4,3.2-4
	c-1,2.9,1.5-1.4,1.3,0.5c-0.9,0.6,0,0.7-0.4,1.7c-0.9,0.6-1.1-0.3-1.5,0.7c-0.7,2.3,1.1,1.4,2,1.8c0.8-2-1.6,0-0.4-2.5
	c3.1-1.6,2.1,2,5-1.6c-1.4,1.9-0.9,2.5-1.7,3.9c-0.5,0-2,0.8-2.8,2.2c0.7,0.7,1.2,3.9,3.5,1.2c-1.5,0.7-1.6-1.4-0.3-3
	c2.3-0.3,3,1.4,6.1,0c-0.5,2.9,3.2,0.7,0.6,3.9c2.2-0.6,2.5,0.6,4.3-0.3c-2.1,2.7,2.1,0.7,1.3,3.1c-1.9,1.1-0.9-1.5-2.7-0.4
	c-0.5,4.1-1.9-0.2-3.3,2.5c0.2,1.5,1.2,1.2,1,2.2c3-1.9,5-0.9,7.9-2.5c-0.6,1.5-2.5,1.9-3,3.5c-1.4,1-1.9-1.2-3,0.8
	c1.7,0.3,3.7,0.2,3.1,3.4c1.7-0.2,4.4-1.7,3.4,1.7c1.8,0.8,6-4.5,5.8-1.1c-1.4-0.1-2.3,1.4-3.8,2.8c3.4-0.7,5,3.9,7.7,1.2
	c0.8-2.8-1.5,1.5-0.7-1.3c0.8-0.4,1.7-0.8,2.5-1.2c-1.5,2.7-0.2,3.3,0.7,4c2.7-2.8,2.7-0.4,4.9-1.2c0.3,1.7-0.8,2.6-0.1,3.3
	c3-1.6,0.1-5.2,3.2-5.3c-2,2.8-1.1,7.8,1.1,7.6c0.1-1,0.6-1.7,1.3-2.2c0.2,1.5-1,1.9-1,3.2c1.9,0.7,3.6-2.1,3.1,1.2
	c1.1-0.7,1.2-2.1,2.3-2.7c0.2,1.4-0.9,1.8-0.9,3.2c2.2-1,3.7-0.9,3.5,1.5c1.7-0.4,1-2.7,2.8-3c0.3,0.9,1.7,0.4,2.2,1.1
	c-1.1,0.4-1.9,1.1-2.2,2.2c4.7,1.7,7.9,2.9,11.6,6.1c0.1-0.7,0.3-1.5,1.2-1.7c-0.7,2.1,1.1,0.6,1.2,1.6c-0.7,0.6-1.1,1.3-1.2,2.3
	c1.7-0.2,1.7,1.9,4.1,0.6c0,1-0.7,1.6-0.8,2.6c3.4-2.1,2.6,1.9,4.9,1.3c0.1-0.6,0.5-0.9,0.6-1.4c-1.1,0.2-1.3-1-1.6-1.9
	c1.4,0.1,2.9,0.1,4.9-2c0.4,2.1-2.6,1.4-2.7,3.1c3.6,1.1,13-2,14.5,2.2c1.7-1.7,1.4-0.6,2.3-0.2c-1.9,3.2-4.4,0.1-5.5,3.5
	c1.9,1.3,4.9,1.8,8.6,1.4c0.1,1.9-1.1,2.6-0.5,0.3c-0.7,1.4-3.8,0.9-5,3.3c1.7,0.7,5.5-0.2,6.6-1.4c-0.6,0.4-0.6,1.2-0.7,2
	c5-1.3,7.9,0.9,15.1-4c-0.2,1.7-1.3,2.8-2.2,4c-0.1-0.9,0.9-1.9,0.2-1.8c-0.6-0.3-1.1,0-1.5,1.4c0.8,0.4,1,1.8,2.1,1.6
	c0.2-0.9,1.1-1.3,1.6-2c0.9-0.1-0.4,3.3,0.7,3c0.6-0.4,1.4-0.7,1.5-1.4c-1.3-0.6-1.3-0.2-0.2-2.7c-1.2,0.4-1.7-0.4-2.2-1
	c1.7-1.1-1-1.5,0.7-2.6c1.1,0.4,0.4,0.5,0.2,2.7c1.8,2.1,4.7-1.1,6.5-0.4c-2.1,2-4.9,3.6-5.7,6.6c0.4,2.2,4.5-1.5,5.6-0.4
	c-0.7,3.1,1.3,2,2.1,2.7c1.1-2,5.2-2.9,4.2-0.8c-0.6-0.5-2.5-0.3-2.5,2c1.5-1.2,1.8-0.3,2.8-0.5c0.1-1,1.3-1.2,1.1-2.3
	c2.8-0.1,1.8,0,5.1-0.7c-0.5,5.3,4.5-1.5,3.8,4.5c1.5-1.2,1.6,0,3.3-1.4c-2,3.1-3.6,4.8-6,7c3.3,1.2,6.2,3.6,11.1-1.6
	c2,1.9,5.6,3.7,10.1-0.5c0.2-6.4-9.5,1.9-9.4-2.7c0.2,1-2.3,3.2-2.4,2c0.6-0.6,1-1.3,1.1-2.3c-2,0.3-6,5.8-7.6,3.4
	c2.8-2.5,8.3-7.3,10.5-6.4c-0.4,1.4-2.8,1.4-2.5,3.2c2.9-1.4,4.7-1.4,8.1-4.9c0.6,2,2,2.9,2.9,4.4c3.4-2.7,3.9-0.6,6.6-4.7
	c0.2,1.8-2,1.9-1.6,3.8c1.4,1.1,0.9,0.1-0.2,3l4.2-2.7c0.1,1.6,0.9,2,2.2,1.4c0.6-2.2-0.7-1-0.8-1.7c1.5-0.6,2.4-1.7,2.9-3
	c0.5,0.8,2.2-0.4,1.7,2.3c-1.1,0.9-2.2,1.8-2,3.5c2.3-1.9,4.7-3.8,7.1-5.7c-1,4.3,4.5-3,3.6,1.1c-1.2,1.9-1.6,0.5-2.4,2.7
	c0-1.5-1.7,0.2-2.3-0.3c-0.2,0.9-0.7,1.6-0.6,2.6l2.8-1.8c-1.4,3.4,1.5,0.9,1.7,2.9c-3.3,1.7-4.8-1.5-8.8,4.5
	c1.2,2.4,9.6-4.5,6.7,3.2c0.5,0.3,1.6-0.4,2.8-1.2c0.1-0.7,0-1.6,0.5-2.1c1.3,1.6,3.4,1.8,5.4,2.1c2.1,0.2,4.1,0.5,5.3,2.3
	c0.1-0.9,1-1.4,1.4-2.1c-0.4,2.4,1.7,0.1,1.8,1.7c-1.7,1.6-2.3,0.1-2.8,2.4c1.3,0.8,2.6,1.9,4.5,1.6c0.3,1.4-0.7,2-0.5,3.3
	c0.6-0.6,0.9-1.4,1.9-1.8c0,1.4-0.8,2.3-0.5,3.8c1.7-1.1,1.3-0.2,2.8-1.9c-0.5,2.1-1.9,3.6-2.4,5.7c1.3-0.2,3.1-1.4,3.2,0.8
	c-0.3,0.2-0.6,0.4-0.9,0.6c0,0.4-0.1,0.7-0.5,0.9c0.6-2.2-1.5-2-1.8-0.5c1.8,0.8,3,1.6,5.5-0.2c-1.1,2.8,0.9,1.3-0.1,3.6
	c0.6-1.2,1.7-1.9,1.8-0.6c-1.8,1.3-2.8,3.1-2.8,5.4c-1.2,0.1-2.3-0.1-3.7,0.1c-0.1,1.6-2,1.9-1.4,3.9c3-3.1,4.5-2.4,6.5-2
	c0.8-1.9,3.1-4.9,3.7-2.5c-1.1,0.8-1.4-0.1-2.8,1.3c-0.6,1.5-0.2,3.2,0,3.5c0.5-0.5,1.8-3.6,2.3-2.2c-0.6,0.2-1.6,2.8-0.5,2.1
	c1.4-0.9,1.3-2.7,3.2-3.4c0.2,1.2-1.4,4.2-0.5,3.9c0.3-1.4,2.9-4.5,3.7-3.7c-0.4,2-1.5,1.4-1.8,2.4c1.6-0.9-0.8,3.2,0.5,2
	c1.2-4,5.1-4.1,6-2.3c0.8-1.1,1.4-2.3,1.8-3.6c0.3,1.5,1.2,1.4,1.8-0.7c0,1.6,1.4,0.3,1.4,2c-1.9,2-5.2,3.2-6.9,3
	c0,0.6-0.4,1-0.5,1.5c5.6-1.4,7.2,1.7,13.7-1.3c-0.4,1.9,0.6,1.1,0.5,2.6c-2.9,2.6-5.7,1.5-9.1,5.8c0,0.4,0,0.8,0,1.2
	c2.2-0.9,4.6-2.5,6.7-3.2c2-0.7,3.6-0.5,3.9,2.3c3.2-0.6,7.9-1.9,7.9,2.1c0.6-1.2,1.4-1.3,1.8-0.7c-1.2,0.7-1.9,1.6-1.8,3.1
	c0.8,0,1.2,0.8,1,2.9c1.1-0.7,1.4,0.1,1.8-1.9c-0.5,0.3-1.3,1-1.4,0.4c1.6-2.8,2.9-0.9,5-3c-2.1,6.1,1.5,7.1,2.6,10.2
	C785.2,532.8,786.2,535.1,786.5,537z M397.6,246.5c0.6,0,0,0.9-0.2,1.5c1-0.3,1.7-1.1,2.1-2.3c-0.9,0.2-1.8,0.3-2.7,0.5
	C396.5,246.7,397.2,246.5,397.6,246.5z M297.5,31.6c2.4-0.9,0.8-2.6,0.8-3.5C296.8,29.6,297.2,30.6,297.5,31.6z M295.9,36
	c1.8-0.3,3.4-2.6,2.4-2.8C296.4,33.5,296.6,35.2,295.9,36z M296.7,14.2c1.2-0.2,2.4-0.3,3.4-1.2c-1.4,0.7-2.8-0.4-0.6-0.6
	c-0.3-0.6-1.6-0.7-3.2-0.6C295.7,13.7,297,13,296.7,14.2z M293.4,52.6c-0.4,1.1,1.2,1.5,3.1,1.8C298.1,52.9,295.3,52.9,293.4,52.6z
	 M93.9,114.1c0.6-1.2,1.5-2.6-0.7-3C91.6,112.6,92,114.5,93.9,114.1z M95.1,135.8c-0.9,1.5-1.5,2.9,0.4,3.5
	C95.6,138,97.4,136.2,95.1,135.8z M96.6,118.8c-2.3,0.7-2.6,3.5-1.1,4.2C97.9,121,95.6,120.4,96.6,118.8z M68.1,157
	c-1.3,1.7-0.8,3.8,1.4,3.3C70.6,158.7,71,157.4,68.1,157z M73.6,191.3c-1.8,1.3,0.8,2.6,2.1,1.6C77.6,191.4,74.5,191.7,73.6,191.3z
	 M94.2,198.5c-1.1,1.3,0.3,1.7,1.8,2C96.1,199.6,96.2,198.7,94.2,198.5z M98.2,214.5c1.8-1.7,0.6-2.7-1.2-1.9
	C95.8,213.9,97.2,214.1,98.2,214.5z M105.3,226.4c0.7-0.9,0-1.2,0.8-2.1c-1.6-0.1-2.8,1.3-4.8,0.3c0.6-1.7,2.4-0.4,3.4-1.1
	c-0.4-2.3-3-3.1-5.2-3.7c-0.6,2.8-0.1,3.1-2.9,6.8C100.2,226.2,101.4,227,105.3,226.4z M107.7,234c2.6-2.4-0.3-2.4,0.1-3.9
	c-0.7,0-1.1,0.9-1.9,0.8c-0.7-0.3,0.4-1.3,0.8-2.1c-3.3,0.6-2.2-0.2-4.4-0.2c-0.4,2.2-0.4,4.2,1.5,5.3
	C106.2,231.2,105.3,234,107.7,234z M108.9,242.6c0.2,0.8-1,2.3,1,2.4C111.2,243.4,110.9,242.6,108.9,242.6z M112.6,257.1
	c-1.2,2.1,0,3.1,1.2,4C116.2,259.6,114.4,257.8,112.6,257.1z M126.5,286c1.8-1,0.4-1.1,0.7-2.2C125.5,283.7,124.3,286.2,126.5,286z
	 M181.1,375.9c-0.4-0.7-2.4-0.7-3.5,0.1c0.1,0.4,0.2,0.9-0.2,1.7C179,377.7,180.6,377.6,181.1,375.9z M190.8,390.5
	c-1.3,2.2,1.8,1.3,1.7,2.7C194.6,391.9,191.9,390.8,190.8,390.5z M246.9,454.8c-0.6,0.6-1.1,1.4-1.4,2.4c1-0.9,3.1-1.3,2.7,0.2
	C250.4,455.9,248.1,454.7,246.9,454.8z M250.7,458.1c-2.2,1.9-0.3,2.7,2.1,1.9c-1.3,1.4-3,2.2-3.7,4.4c1.7-0.2,4-3.9,4.3-1.2
	C256,460.2,252.5,458.9,250.7,458.1z M255.6,463.5c-0.3,1.3,1.4,1,1.6,2C259.8,464.8,257.9,461.3,255.6,463.5z M655,642.4
	c0.6-1.3,2-2,1.9-3.6c-1.5,1.3-1.8,0.5-2.9,1.2C653.6,642.2,654.8,641.4,655,642.4z M704.7,549.6c-0.1,0.1-0.3,0.2-0.4,0.4
	c0,0.1,0.1,0.1,0.2,0.2C704.6,549.9,704.7,549.8,704.7,549.6z M696.5,476.8c-0.4-3.1,2.6-3.9,2.7-6.8c-0.4-0.2-1,0-1.8,0.6
	c0,3.3-2.1,6-3.5,5C693.5,478.2,695.5,476.7,696.5,476.8z M669.5,475c0.3,1.5,3,0.8,4.2-0.8C672.5,474.2,671.8,473.3,669.5,475z
	 M626.6,456.3c0.7-0.4,1.3-0.7,2-1.1c-0.3-0.6-0.1-2.1-1.8-0.7C626.7,455.2,626.7,455.7,626.6,456.3z M622.8,453.4
	c0.2,2.2,1.9,1.9,2.9,2.9C626.1,453.2,625,452.5,622.8,453.4z M619.1,453.1c0.1,1.6,2.7-0.5,2.6,1.4
	C623.2,452.4,621.3,451.4,619.1,453.1z M576.4,431c1.3-0.1,0.7,2.3,2.6,1.5C578.9,430.9,578.3,430.1,576.4,431z M550,416.8
	c0,1.9,1.8-1,2.2,0.6C554.5,415,550.5,415.8,550,416.8z M547.4,415.3c2-1.3,2.5-0.2,3.6-1.6c-0.5-0.7-0.6-1.8-2.1-1.2
	C548.7,413.7,547.4,413.9,547.4,415.3z M526.5,398.7c1.9-1.9-0.4-2.3-0.1-3.6C523.4,398.3,527.3,396,526.5,398.7z M517.8,393.8
	c1,0.4,2,0.9,4.3-0.1c0.7-1.9-0.2-1.9-0.2-3c-2.3,1.8-1.8,1.6-3.6,1.4C518,392.7,517.9,393.2,517.8,393.8z M509.4,385.6
	c2.6-1.8,0-1.8,1-4C508.6,383.1,510.2,383.9,509.4,385.6z M466.1,342.7c1.2-2.3-0.5-1.5-0.7-2.3
	C463.7,341.6,464.6,343.4,466.1,342.7z M442.4,318c1.2-1.5-0.6-1.7,0.8-2.2c0.1-0.8-1.1,0.7-0.9-0.3
	C441.1,316.2,441,318.7,442.4,318z M405,282.4c1.9-1.1,3.7-2.4,4.6-4.9c-2.2,0.1-2.7,2.6-4.5,3.4C405.2,281.3,405.3,281.7,405,282.4
	z M411.4,279.1c-1.5,0.2-2.2,1.6-3.8,1.8c-0.1,2,0.5,3.5,3,3.3c0.7-0.5,1-1.5,1.8-1.8C412.6,280.8,411.3,280.5,411.4,279.1z
	 M416.1,289.9c-0.6-0.6-0.1-2.2-1.5-2.1C412.3,289.8,413.6,290.8,416.1,289.9z M424.9,298.2c0.4,1.4,1,3,4,1
	C429.2,297.4,427.3,297.6,424.9,298.2z M424.1,308.7c-1.1,2.5,0.4,2.8,2.5,2.4c0.2-1.1,0.9-1.5,1.4-2.3
	C426.9,309.7,425.1,309.7,424.1,308.7z M420.9,299.6c0,1.9,0.6,3.2,3.3,2.7C422.6,301.8,423.4,299.2,420.9,299.6z M421.2,294.1
	c-0.9,1.9,1.1,1.4,0.8,2.8C423.9,295.4,422.6,293.8,421.2,294.1z M419.8,291.5c0.5-0.1,0.7-0.8,1-1.2c0.8,0.3-0.2,2,2,1
	c0.4-1.4-1-1.2-1.8-1.5C420.6,290.2,420.1,290.8,419.8,291.5z M419.8,299.8c1-0.3,1.6-1.2,2-2.4c-0.7,0.2-0.9,0.1-0.9-0.3
	c-0.6,0.3-0.8,1.2-1.5,1.3C419.3,299.1,420,299.1,419.8,299.8z M413.1,283.2c0.8-0.1,1.5-0.2,1.9-0.9c0.6-0.1,0,0.9-0.2,1.5
	c1.4-0.2,2.6-0.4,2.9-2.1c-0.5,0.2-0.8,0.7-1.3,0.8c0.4-1,1.2-1.3,1.5-2.3c-2.2,1.3-1.5,1-4,1.4
	C413.5,282.1,413.3,282.6,413.1,283.2z M412.8,279.3c0.6-1,0-0.9-0.6-0.8c0.2-0.6,0.5-1,1-1.2c-0.7-0.9-1.6-0.5-2.9-1.3
	C410,278,411.5,278.6,412.8,279.3z M403.5,276.8c1.5-1.3,2.7-0.8,3.8-0.8c0.5-1-0.1-1,0.4-2c0.4,0.6,1.8,0.5,1.7,1.6
	c1.8-1.8-1.2-2.6-1.1-4.2C406.7,273.1,405,274.8,403.5,276.8z M399.2,268.9c-0.2,1.2,0,2,1.7,1.6c0.9-1.7,0.2-2.1-1-2.2
	C399.9,268.7,399.5,268.8,399.2,268.9z M394.7,261.5c-0.2,1.9,1.1,2.7,1.5,4.1c2.3-0.5,4.2-2.6,3.2-3.5c-0.8,0.3-1.3,1.1-2.1,1.4
	c0.2-0.4-0.4-1.5,0.5-2C397.5,261,396.2,261.6,394.7,261.5z M391.7,254.2c-2.1,0.6-1.5,2.5-0.2,2.4
	C393.3,254.6,390.5,255.9,391.7,254.2z M389.4,247.9c2.3-1.1,3-1,2.5,1c0.8-0.3,1.1-1.4,1.6-2.2
	C392.2,246.5,391.2,245.5,389.4,247.9z M386,241.7c0.7,1.1,1.2,2.4,3.3,2.4C390,242,387.9,241.9,386,241.7z M383.3,246
	c-6.9,3.6,3.7,2.5,3.1,4.8c1.3-0.4,1.8-2.9,1.6-3.2c-1,0-1.6,0.6-2.5,0.9c1.1-2.4,4.3-1.4,5.4-3.8c-1.5,0.5-3.7,0.6-5.4,2.8
	c-0.4-0.8,2.4-3.6-1.1-1.8c1.7-2-0.3-4.2-2.2-3.5C379.6,244.4,382.8,245.1,383.3,246z M104,24.3c0.2-0.1,0.4-0.2,0.6-0.3
	c0.4-0.4,0.9-0.9,1.7-1.4c-0.3-0.2-0.6-0.5-0.8-0.8C105.5,22.4,105.4,23,104,24.3z M124.6,97.4c0.2-0.1,0.3-0.2,0.4-0.4
	c-0.2-0.1-0.4-0.2-0.5-0.2c-1.3,1.4,0.5,1.9,0.6,2.9c2.1-0.4,1.3-1.9,0.1-2.6C125,97.2,124.8,97.2,124.6,97.4z M185.9,43.2
	c0.5-0.1,1-0.1,1.5-0.1c0.1-0.4,0-0.7,0-1.1c-0.1,0-0.2-0.1-0.4-0.1c-0.7,0.7-1.1,0.6-1.7,0.4C185.4,42.7,185.6,43,185.9,43.2z
	 M195.8,35.9c0.1,0.3,0.1,0.7-0.4,0.9c0.1,0,0.2,0,0.3,0c0,0,0.1,0,0.1,0C196.2,36.6,196.1,36.2,195.8,35.9z M211.9,65.9
	c2.2-0.4,2.9-2.5,1-2.7C211.7,64.4,212.9,64.9,211.9,65.9z M216.8,72.3c-0.7,0-1.2,0.7-2,0.6c-1.9,2,2,2.3,1.8,3.7
	C218.2,74.7,215.2,74.2,216.8,72.3z M218.8,39.8c0.1-0.6,0.9-1.2,1.8-1.7c0.2-0.6,0.4-1.2,0.5-1.7c-0.6,0.5-2.1,0.5-3.1,1.3
	C220.8,37.8,216.4,39.5,218.8,39.8z M235.7,27.2c-1.8,0.2-3.8-0.9-5.3,0.5c0,0,0,0,0,0c-0.1,0.1-0.1,0.2-0.2,0.2
	c1.1,0.4,1.9-0.5,3.1,0.2c-0.5,0.7-1.2,0.7-2,0.5c-0.9,0.9,0.4,1.2,1.8,1.4c0.7-0.9,1.6-0.6,2.5-0.4c0.6-0.5,1.2-1.1,1.7-1.6
	c-1.2-0.1-2.2,0.8-3.5,0.7C232.7,28.4,235.5,28.3,235.7,27.2z M250.6,16.4c2.2-0.4,2.9-2.5,1-2.7C250.3,14.9,251.6,15.4,250.6,16.4z
	 M255.5,22.8c-0.7,0-1.2,0.7-2,0.6c-1.9,2,2,2.3,1.8,3.7C256.9,25.2,253.9,24.6,255.5,22.8z M255.4,19.9c-0.1-0.7-2-1.1-3.2-0.7
	c-1,1-0.9,1.7,0.4,2C253.4,19.8,254.7,21.3,255.4,19.9z M253.5,9.8c-0.6,0.5-1.2,1.1-1.9,1c0.1,1.6-0.2,2.4,2.1,2.9
	C252.1,12.8,254.9,10.8,253.5,9.8z M258.3,42c0.9,0.9-1,2.7,0.3,3.4c2.8-1.4-0.6-2.7,2.5-2.4c0.8-1.5-1.5-2.3,1.2-3.6
	c-0.9-0.4-0.5-1.5-2.3-0.9c-1.1,2.9-7.3,3-9.4,2.1C249.5,43.3,255,41,258.3,42z M260.8,18.1c-2,0-1.1,1.3-2.2,1.9
	c0.9,0.2,1.8,0.4,2.7,0.6c1.1-1.6,3.5-1,3.2-2.2c-1.5-0.8-2.4,1.5-3.8,1.6C260.4,19.5,261.4,18.5,260.8,18.1z M271.4,29.2
	c-1.2-0.2-2.3,0.8-3.2,1.8C269.7,31.3,271.6,29.7,271.4,29.2z M265.1,87.5c-1,1.1-0.1,0.6,0.7,0.6c0.9,1.8,0,3.9,3.7,3.3
	c0.3-1.6-2.7-1.9-1.3-4C267.1,87.1,266,87.2,265.1,87.5z M274.7,112.7c1,0.4,1.2,1.3,1.2,2.3c0.4,0.3,0.9,0.6,1.5,0.8
	c0.8-2.4,1.8-6.3-2.7-4.6C274.6,111.7,274.6,112.2,274.7,112.7z M276.3,108.5c1.4-1.4,0.5-2.5-1.6-1.6
	C275.3,107.4,274.2,108.6,276.3,108.5z M288.1,152.8c-2.4,0.8-1,2.3,0.9,2l1.4-1.9C289.9,153,287.3,154,288.1,152.8z M296,148.2
	c-1.1,0.8-2.7,0.5-3.4,2.3c1.4,1.1,2.5-0.6,4.6-0.9c0.9-1.8-1.7-1.9,0.4-4.3c-1.5-0.1-3-0.2-3.8,1.3
	C295.5,146.7,295.2,147.7,296,148.2z M291.7,153.4c-1.7,2.1,3.4,0.5-0.1,2.4c0.8,0.3,2.9,0.1,5.2-0.9c1.7,1.4,3,3,1.1,6.3
	c0.9,0,1.9,0,2.8,0c-0.3,1.3-5.5,5.3-2.4,5.8c0.6-0.8,0.5-1.2-0.1-1.5c2.9-2.3,2.8,1,3.1,1.9c1.4-0.9,1.8-5-1.6-3.4
	c1.8-2.3,6-2.3,5.4-0.5c2.7-1.6-1.2-2.1-0.1-3.8c-1.2,0.4-0.7,0.9-1,1.4c-1.9-0.1-1.8-1.3-3.4-1.5c0.7-1,2.1-0.2,3.1-0.5
	c-1.3-1.7-7-2.2-3.6-5.8C296.7,154.2,294.8,153.7,291.7,153.4z M303.4,157.4c1-1.4-0.7-1.4-0.5-2.4
	C300.3,156.1,302.8,157,303.4,157.4z M305.8,100.7c0.5-1.4-0.9-0.3-2-1.1c-1,0.9-0.6,1.2-1,1.8C304.1,101.8,304.7,100.6,305.8,100.7
	z M300.7,143.5c-1.7,1.5,0,1.2-0.3,1.9C301.7,145.2,303.2,142.6,300.7,143.5z M300.6,73.8c-1.1,1-1.5,1.6-1.5,2.2
	c0.7-0.2,1.3-0.4,2-0.3C302.2,74.6,302,74,300.6,73.8z M301,150.6c0.4-1.1-0.9-1.3-0.5-2.4C298,149.2,299.5,150.7,301,150.6z
	 M304.7,182.1c1-1.1,2-2.1,3.3-2.5c-2.3-0.4-4.7-2.1-3.6-5.3c-3,2.8-2.5,6.3,0.4,6.8c-1.3,0.5-2.7,1.6-2.2,2.5c3-0.9,1.7,0,2,1.9
	c2.3-0.5,2.4,0.8,3.9-0.1c1-1.4-0.1-2.7-1.6-0.9c-0.6-0.9,1-1.8-1.6-1c0.7-0.5,1.6-0.5,2.1-1.5C306.9,181.1,306.7,181.1,304.7,182.1
	z M310.4,178.6c-2.8,0.3-1.3,2.5-2.2,2.5c0.3,0.8,1.1,1.2,2.4,1.4C310.6,181.2,310.1,180.1,310.4,178.6z M308.5,189.9
	c-1.1,2.4,2.1,1.5-1.4,3.9c1.4,0.1,2.1-1.1,3-2c1.4,1.6,2.6,4,4.7,4.7c0.7-3.4-4.8-3.8-0.8-8.2C311,190.4,310.6,189.7,308.5,189.9z
	 M313.3,131.4c0.3-1.6,0.1-2.9-1-3.8C309.9,129.2,311.9,130.7,313.3,131.4z M320.1,225.1c-1.3-0.3-1.9,0.8-3.1,0.7
	c0.8,1.6,0.2,5.7,3.2,4.7C321,228.2,317.2,228.8,320.1,225.1z M323.3,232.4c0.1,0.1,0.2,0.3,0.2,0.5c0.3,0.4,1,0.5,2.3,0.3
	c1.8-2.2-0.9-2.3-2.5-1.3C323.2,232,323.2,232.2,323.3,232.4z M332,246c-0.8,0.3-1.4,1-2.2,1.2c-1.3,2,2.2,3.7,3.9,0.6
	C329.7,249.1,333.2,247.3,332,246z M330.5,259.1c-0.9,1.7,0.5,1.7,1.7,1.8C332.8,259.4,332.3,258.8,330.5,259.1z M323.6,246.7
	c1.4-1.7-0.9-1-0.6-1.9C321.3,245.5,321.5,247.5,323.6,246.7z M350.8,202c-1,1.3-0.2,1.6,1.3,1.3C353.1,202,352.3,201.7,350.8,202z
	 M338.2,248.4c-3.4,1.6-2-0.1-5.3,1c-0.9,1.2,0.7,0.6,0.3,1.5C335.1,250.5,337.3,250.6,338.2,248.4z M192.7,43.2
	c0.1-0.2,0-0.3,0-0.4c-0.1,0-0.2,0-0.3,0C192.5,42.9,192.6,43,192.7,43.2z M193.9,39.5c0.7,0.4-0.4,0.6-0.5,1.6
	c0.5-0.4,0.9-0.9,1.4-1.3C194.5,39.5,194.2,39.5,193.9,39.5z M308.7,186.9c-3,0.8-1.3,2.1-0.5,2.5
	C310.9,188.3,306.9,188.5,308.7,186.9z M307.8,204.8C307.8,204.8,307.8,204.8,307.8,204.8C307.8,204.8,307.8,204.9,307.8,204.8
	c0.3,0.8,0.9,1.4,1.8,1.6c0.3-0.2,0.5-0.3,0.6-0.5c0.3-1.7-1.5-2.1-0.4-4.3c-0.7,0.4-2,0.8-1.7,0.1
	C307.5,202.4,307.4,203.7,307.8,204.8z M224.6,60.4c-1.6-1.2-1.3-3-1.8-4.6c-2.4,2-0.8,4.2-0.1,5.2C223.4,61,224,60.7,224.6,60.4z
	 M221.9,40.4c0.1-0.1,0.2-0.3,0.2-0.5c-0.2,0.1-0.4,0.3-0.6,0.6C221.6,40.4,221.8,40.4,221.9,40.4z M313.7,230.6
	c0.5-0.4,0.7-0.7,0.9-1c-0.3-0.5-1-0.6-1.9-0.1c0,0.9,0,1.7,1.9,1.4c0-0.1,0-0.2,0.1-0.2C314.4,230.6,314.1,230.6,313.7,230.6z
	 M301.9,205.5c-0.7,1.5-0.4,2.7,1.5,1.8c-0.3-0.9-1.5-1.6-1.1-2.6c-0.4,0.3-0.7,0.6-0.9,0.9C301.6,205.6,301.7,205.6,301.9,205.5z
	 M301.9,208.4c0.1,0.1,0.1,0.2,0.2,0.3c0.4-0.1,0.7-0.1,0.9-0.1c0.3-0.4,0.5-0.7,0.5-1C303,207.9,302.3,207.8,301.9,208.4z
	 M276.9,247.9c0,0.2,0,0.4,0,0.5c0.3,0.2,0.8,0.4,1.3,0.5C278.4,248.3,278.2,248,276.9,247.9z M252.3,198.2
	c-0.7,0.5-1.1,1.1-1.2,1.8C251.8,199.4,252.7,198.7,252.3,198.2z M237.4,169.1c0.4-0.1,0.9-0.1,1.3-0.3c0,0.8-0.9,1.9,1.2,1.6
	c-3.6,3.2,0.5,2.8,1.7,4.2c-0.3-1.8-0.3-3.7-0.4-5.6c-1,0-1.7-0.4-2.2-0.8c-0.7,0.1-1.3,0.1-1.9,0.5
	C237.2,168.8,237.3,168.9,237.4,169.1z M229.9,147.5c0.1,0.1,0.3,0.1,0.4,0.2c0.2-0.8-0.6-1.3,1.2-2.8c-0.9-0.4-0.6-1.3-2.5-1.2
	c-0.2,0.1-0.4,0.2-0.7,0.4C227.1,146,230.2,146,229.9,147.5z M228,140.2c0.1,0,0.3,0,0.5-0.1c-0.1,0.1-0.2,0.2-0.4,0.2
	c0.4,0.5,1.1,0.8,2.7,0.5c0.3-1.6-2.7-1.9-1.3-4c-1.1-0.3-2.2-0.2-3.1,0.1c-1,1.1-0.1,0.6,0.7,0.6
	C227.6,138.5,227.6,139.6,228,140.2z M224.5,49.3c0,0.4,0.2,0.7,0.6,0.9c0.2-0.4,0.4-0.8,0.6-1.3c-0.2-0.1-0.4-0.1-0.8-0.2
	C224.7,49,224.6,49.2,224.5,49.3z M227.1,51.2c0.1-0.1,0.2-0.2,0.4-0.4c-0.2,0-0.4,0-0.5-0.1C227.1,50.9,227.1,51.1,227.1,51.2z
	 M240.5,122.4c-0.1,0.1-0.1,0.3-0.1,0.4c0.4,0.2,0.8,0.4,1.4,0.5c0-0.3-0.1-0.6-0.1-0.9C241.4,122.3,241.1,122.2,240.5,122.4z
	 M260,90.6c-0.3,0.1-0.6,0.3-0.8,0.6c-0.1,0.3-0.1,0.5,0,0.7C259.8,91.4,260.1,90.9,260,90.6z M271.8,231.1c-0.1-0.9-0.3-1.8-0.1-3
	c-0.1,0-0.1,0-0.2,0c0,1.1-0.7,1.7-1.6,2c0,0.3-0.1,0.4-0.3,0.4c0.1,0.4,0.4,0.6,0.7,0.9C270.8,231.3,271.3,231.2,271.8,231.1z
	 M253,191.3c0.7-0.6,1.4-1.2,2.2-1.4c0,0,0,0,0,0c0-0.1-0.1-0.2-0.2-0.3c-0.4,0-1.3,0.3-2.2,0.5C252.8,190.5,252.9,190.9,253,191.3z
	 M255,188.3c0.1-0.1,0.2-0.2,0.3-0.2c-0.2-0.2-0.4-0.3-0.7-0.4c-0.1,0.1-0.2,0.2-0.2,0.3C254.8,188,254.9,188.1,255,188.3z
	 M233.3,108.2c-2.4,0.2-2.7,2.8-1.8,3.8c-0.1-0.9,0.2-1.8,1.2-2.6C232.6,109,232.8,108.7,233.3,108.2z M231.7,116.1
	c-0.2,0.2-0.4,0.5-0.6,0.7c2.6,0,0.6,1.6,2.5,1.9c0.4-0.5,0.6-0.8,0.6-1.1c-0.3-0.1-0.6-0.2-1.1-0.3c0.4-0.7,0.9-0.8,1.4-0.9
	c0.2-0.3,0.5-0.7,1.1-1.2c-0.1,0-0.1,0-0.2,0c-2.2,0-1.7,0-3.6-0.5c-1.3,0.9-0.7,1.1-1,1.7C231.2,116.3,231.6,116.2,231.7,116.1z
	 M237.1,137.3c1.3-0.2,1.9-1.9,0.8-2.3c-0.1,0.2-0.3,0.3-0.4,0.5c-0.2,0-0.4-0.1-0.6-0.1C236.4,136.3,237.7,136.4,237.1,137.3z
	 M236.6,134.3c-0.1,0-0.3,0-0.5,0c-0.1,0.2,0,0.3,0,0.4C236.3,134.6,236.5,134.5,236.6,134.3z M239.6,133.3c-0.1,0-0.1,0-0.2-0.1
	c-0.3,0.4-0.6,0.8-1,1.2C238.9,134.1,239.4,133.7,239.6,133.3z M239.3,133.2c-0.2-0.1-0.5,0-0.7,0
	C238.8,133.2,239.1,133.2,239.3,133.2z M234.8,124.6c-1.6,1.6-0.4,2.2,1.3,2.5c-0.2-0.3-0.2-0.6,0-0.9
	C236.1,125.5,236,124.9,234.8,124.6z M235.5,140.5c0.9,0.1,1.7-0.2,2.5-0.3c-0.1-0.2-0.1-0.5-0.1-0.8c-1.1,0.1-1.6-0.5-2.7,0
	C234.8,140,235.2,140.2,235.5,140.5z M236.2,150.7c1.1-1,1.4-1.7,1.4-2.3c-1.1-0.1-2.5,1.1-2.5,1.8c0.2,0.1,0.4,0.3,0.4,0.5
	C235.7,150.7,235.9,150.7,236.2,150.7z M235.9,153c0.4-0.3,0.9-0.5,1.3-0.7c-0.3-0.1-0.7-0.2-1.1-0.2
	C235.6,152.6,235.7,152.9,235.9,153z M236.9,153.3c0.6,0.1,1.3,0.2,1.4,0.4c0.2-0.6-0.1-1.1-0.7-1.3
	C237.3,152.7,237,153,236.9,153.3z M239.6,148.1c-0.4-0.5,0.1-1.6,1.1-2.4c-0.9-1.5-1.9-3-2.4-4.6c-1.1,0.4-2.4,0-3.4,0.7
	c-1.5,2.1,4.2-0.4,2.7,1.7c-1.1-0.2-2.1,0.2-2.8,1.2c1.3,1,1.7,0.1,3.7-0.1c-1.9,1.4,1.5,0.5-0.4,1.9c-1.7,1-1-1-2.6,0.2
	C233.6,148.5,238.4,147.6,239.6,148.1z M240.7,155.9c0.6-0.4,0.8-0.9,1.1-1.4c-0.5,0.3-0.9,0.5-1.5,0.5
	C240.1,155.5,240,155.8,240.7,155.9z M241.8,156c0.5,0,1,0.1,1.4,0.1c0-0.5,0-0.9,0-1.3C242.7,155.2,242.2,155.5,241.8,156z
	 M241.9,137c-1.1,0-1.9,0.7-2.6,1.8c1.6,0.4,1.2,1.7,3.4,1.9C244.8,138.3,241.6,138.4,241.9,137z M242.2,135c-0.1,0-0.2,0-0.3,0
	c0,0.1-0.1,0.3-0.1,0.4c-0.1,0.1-0.1,0.1-0.2,0.2C241.8,135.5,242,135.3,242.2,135z M241.6,131.9c-0.2-0.1-0.5-0.1-0.7-0.1
	c0.2,0.2,0.4,0.5,0.5,0.7C241.6,132.2,241.7,132,241.6,131.9z M239.5,130.2c0.1-0.3,0.1-0.6,0.2-0.9c-0.2,0.1-0.5,0.1-0.8,0.1
	C239,129.6,239.2,129.9,239.5,130.2z M234,107.3c-0.8,0.9-0.8,1.7,0.6,2.4c0.1-0.1,0.2-0.2,0.3-0.3
	C235.2,108.4,234.7,107.8,234,107.3z M234.2,104.5c0.1-0.2,0.3-0.4,0.4-0.6c-0.1,0-0.3,0-0.4,0C234.2,104.1,234.2,104.3,234.2,104.5
	z M236.1,156.4c0.5,0.5-0.5,1.7,1.6,1.6c1.2-1.2,0.7-2.2-0.8-1.9c0,0.1,0,0.1,0,0.2C236.6,156.4,236.3,156.4,236.1,156.4z
	 M236.5,163.8c1-0.8,2.1-1.4,2.8-1.3c0.1-1.6-0.6-2.7-3.4-1.7C235.9,161.9,236,162.9,236.5,163.8z M239.2,163.7c-0.5,0-1,0-1.4,0.4
	c0.4,0.2,0.7,0.5,1.1,0.7C239,164.4,239.1,164.1,239.2,163.7z M237.7,166.5c-0.2,0.2-0.4,0.4-0.6,0.6c0.4,0,0.7,0.1,1.1,0.1
	C238.1,167,237.9,166.8,237.7,166.5z M240.6,166.6C240.6,166.6,240.6,166.6,240.6,166.6C240.6,166.6,240.6,166.6,240.6,166.6z
	 M243.5,159.3c-0.2-0.7-0.2-1.5-0.3-2.2c-1.2,0.3-0.8,0.8-1.1,1.4c-0.9-0.4-0.6-1.2-2.6-1.2c-1.1,0.9-2.8,1.3-2.5,2.2
	c2.6-1,2.9-0.5,5.4,0c-1,0.8-2.3,0.7-3,2.2c1,0.3,1.7-0.2,2.6-0.3C242.5,160.6,243.1,159.9,243.5,159.3z M243.5,166.7
	c0.8-0.4,1.8-1.3,2.1-2c-0.1-0.3-0.2-0.5-0.3-0.8c-0.2-0.1-0.4-0.1-0.8,0C243.6,165.6,240.9,166.4,243.5,166.7z M248.4,161.8
	c-1.3,0.1-2.3,0-3-0.3c0,0,0,0,0,0c-1.3,0.1-1.1-0.1-0.6-0.4c-0.2-0.1-0.3-0.2-0.4-0.4c-0.5,0.3-1,0.8-1.5,1
	c0.8,0.1,1.6,0.3,2.3,0.6C246.4,161.9,246.7,163.5,248.4,161.8z M249.9,171c0,0.1,0,0.1,0,0.2c0.1-0.1,0.1-0.1,0.2-0.2
	C250,171,250,171,249.9,171z M253.2,187.4c0.3,0.3,0.5,0.9,1,0.1C254,187.4,253.6,187.4,253.2,187.4z M252.7,190.2
	c-0.4,0.1-0.8,0.2-1.1,0.1c-0.1,0.1-0.1,0.2-0.2,0.4C251.6,190.8,251.9,190.8,252.7,190.2z M251,191.9c0,0.1,0.1,0.1,0.2,0.2
	C251.1,192.1,251,192,251,191.9z M253.7,192.6c0.7-0.1,1.6-0.5,2.1-1.1c-0.2-0.3-0.4-0.6-0.7-0.8c-0.7,0.1-1.4,0.4-2,0.8
	C253.2,191.9,253.4,192.3,253.7,192.6z M255.6,195.5c0.1,0.2,0.1,0.5,0,0.7c1.1,0.2,1,1.1,1.7,1.5c-0.2,0.2-0.5,0.3-0.7,0.4
	c0.2,0.3,0,0.8,1.5,0.7c0.1-1.6-1.3-2.4-1.3-3.9C256.3,195,255.9,195.2,255.6,195.5z M255.3,195.9c-0.1,0.1-0.1,0.2-0.2,0.3
	c0.2,0,0.3,0,0.4,0C255.5,196.1,255.4,196,255.3,195.9z M253.9,200c0.4,0.3,0.8,0.4,1.2,0.3c-0.3-0.4-0.2-1-0.1-1.6
	C254.6,199,254.2,199.4,253.9,200z M262.3,215.8c0.1,0.5,0.2,1,0.3,1.3c0.4-0.2,0.6-0.7,0.8-1.2
	C263.1,215.9,262.7,215.8,262.3,215.8z M242.1,123.8c-0.7-0.2-1.2-0.1-1.8,0.1c0,0.4,0.1,0.8,0.2,1.2c0.5-0.2,1.1-0.5,1.7-1
	C242.2,124,242.2,123.9,242.1,123.8z M230,80c-0.2,0.2-0.4,0.3-0.5,0.5c0.2,0,0.4,0.1,0.6,0c0.1-0.1,0.2-0.3,0.3-0.4
	C230.3,80,230.2,80,230,80z M238.6,176.5c0.7,1.2,2,1.8,4.7,1.2c0.5,1.2-1.5,0.8-2.4,2.3c1.7,0.4,1.4,1.7,2.1,2.5
	c1.8-0.6,1.6,0.3,2.6-0.1c0.1-0.2,0.2-0.3,0.3-0.5l0.2,0c0.1-0.7,0.5-1.5,0-1.9c-0.1,0.1-0.2,0.2-0.3,0.4c-0.7,0.1-1,0.1-1.2,0
	c-0.3,0.4-0.6,0.7-1.1,0.7c1-1.2-1-1.1,0.1-2.4c0.4,0,0.8-0.1,1.2-0.3c-0.1-0.1-0.2-0.2-0.5-0.2c-0.2,0.3-0.8,0.5-0.6,0
	c0.8,0,1.1-0.8,1.8-0.9c0,0.3,0.2,0.5,0.3,0.7c1.1-0.6,2.2-1.3,3.5-1.4c0.5,1.2-1.5,0.8-2.4,2.3c2.9-0.3,0.6,2.5,1.2,3.2l0.6,0
	c0,0,0,0.1-0.1,0.1c0.4,0,1-0.2,2-0.7c-0.2,0.6,0,1,0.9,1c-0.2,1.2-3.1,1.9-1.8,2.3c0.7,0,1.1-0.8,1.8-0.9c0,1.4,0.9,2.3,0.5,3.9
	c0.3-0.4,0.6-0.5,0.7-0.6c0.3-0.3,0.5-0.6,0.6-0.8c0-0.5,0.2-1,0.3-1.6c-0.3-0.8-1.4-1.1-2.4-1.6c1.1,0,1.5-1.7,2.5-1.9
	c-4.2-0.3,0.1-6.6-5.1-5.3c1.9-1.9-0.6-1.6-1.5-2.1c0.2-0.5,0.5-0.9,0.8-1.2c-1,0.1-1.8,0-1.7-0.5c1.1,0,2.1-0.2,3-0.8
	c-0.3,0-0.3-0.1-0.3-0.3c-2.9,0.2,0.4-4.7-1.1-5.8c-0.3,0-0.6,0.1-0.9,0.3c-0.8,1.3-2.2,0.7-2.9,2.1c0,1.4-0.7,2,2.2,1.6
	c-0.8,1.7-2.4,1.4-3.5,2.2c0.4,0.8,1.1,1.4,1.8,2.1c-2.5-0.1-1.7,0.7-3,2.2c0.8-0.2,1.4,0,1.6,0.3c0.2-0.3,0.4-0.6,0.6-0.8
	c1.1,0,0.9,0.7,1,1.2c0.2-1.5,3.6-1.6,3.5-0.3c-1.4-0.5-2.2,0.5-3.3,0.7c0,0,0,0,0,0c0,0,0,0,0,0c-0.1,0-0.1,0-0.2,0c0,0,0,0,0-0.1
	c-0.9,0-1.5,0.5-2.4,0.4c0,0,0,0,0-0.1c-0.1,0-0.2,0-0.2,0.1c-0.5-0.8-0.8-1.7-0.9-2.6c-1.9,0.4-0.1,1.4-1.9,1.9
	C239.3,176.6,238.9,176.6,238.6,176.5z M249.8,194.1c1.9-0.9-1.2-1.6,0.1-3.3c0,0,0,0,0-0.1C246.2,191.9,249.3,193.3,249.8,194.1z
	 M258.9,214.8c0,0.1-0.1,0.1-0.1,0.2c0,0.1-0.1,0.2-0.1,0.3c0.9-0.7,1.4-0.8,1.7-0.7c0.8-0.4,1.3-0.1,1.6,0.4c0.1,0,0.3-0.1,0.4-0.2
	c0.5-0.8-0.3-1.2-1.3-1.1c0,0-0.1,0-0.1,0c0,0,0,0,0,0C260.3,213.7,259.4,214.1,258.9,214.8z M267.6,231c-0.3,1,0.2,1.1,1.1,0.9
	c0.1-0.1,0.1-0.2,0.2-0.3C268.4,231,268.2,230.8,267.6,231z M240.6,120.6c-0.3-0.2-0.6-0.3-1-0.5
	C239.7,120.4,239.8,120.6,240.6,120.6z M224.1,44.4c-1.2,1.2-2.6,0.6-3.9,1.4c3.4,0.2,1.4,1.6,2.3,2.4c0.2-0.6,0.5-1.3,0.6-2.2
	c0.3,0.1,0.7,0.2,1,0.2c0.2-0.4,0.4-0.8,0.5-1.2c0.5,0.3,0.6,0.7,0.6,1.1c0.3-0.1,0.6-0.2,0.9-0.5c-1.9-0.3-0.7-0.9-0.2-1.4
	c-0.3,0.1-0.6,0.1-0.9-0.1c0.3-0.3,0.6-0.4,0.8-0.6c-0.1,0-0.1-0.1-0.2-0.1c-1.1-0.4-2.1-0.4-3.1-0.2c-0.1,0.1-0.2,0.1-0.3,0.2
	C223.5,43.7,223.1,44.2,224.1,44.4z M192.5,79c0.1,0.1,0.4,0.3,0.7,0.3c0.5-0.5,0.9-1,1.4-1.5c0,0-0.1,0-0.1,0
	c-0.5,0.5-1.2,0.5-1.8,0.4c0,0,0,0.1-0.1,0.1C192.6,78.6,192.6,78.8,192.5,79z M193.7,76.7c-0.5,0.2-0.8,0.5-0.9,0.9
	c0.3,0,0.6-0.1,0.9-0.1C193.6,77.3,193.6,77,193.7,76.7z M192.1,77c-0.2,0.1-0.4,0.3-0.6,0.5c0.1,0,0.2,0.1,0.3,0.1
	C191.9,77.4,192,77.2,192.1,77z M192.1,60.1c-0.5-0.2-0.9-0.3-1-0.6c-0.1,0-0.1,0.1-0.1,0.1c0.2,0.4,0.3,0.9,0.3,1.3
	c-0.1,0-0.2,0-0.3,0c0.4,0.1,0.8,0.3,1.3,0.4c0.2-0.2,0.4-0.4,0.5-0.5C192.5,60.6,192.3,60.3,192.1,60.1z M253.6,198.4
	c0-0.2-0.3-0.4-1-0.4c0,0-0.1,0.1-0.1,0.1C253.1,198.1,253.5,198.2,253.6,198.4z M254.6,205.4c0.5-0.5,0.9-1.1,1.7-1
	c0.4,0.2,0.4,0.4,0.2,0.6c0.3-0.1,0.6-0.2,0.9-0.3c0-0.1,0-0.2,0-0.3c0.3,0,0.5,0,0.7,0c0,0,0,0,0,0c0,0,0,0,0,0
	c0.6,0.1,0.8,0.4,0.8,0.8c0.5,0.5,0.9,1.1,1.1,1.8c0.1,0,0.2,0,0.4,0c-0.1,0.2-0.2,0.4-0.3,0.6c0,0.3,0,0.6,0,1
	c1.9-0.2,0.6,1.4,0.7,2.2c0.4,0,0.8,0,1.2,0c0,0.1-0.1,0.3-0.2,0.5c0.2,0,0.4,0,0.6-0.1c0-0.6,0-1.2,0-1.7c-0.1,0-0.3-0.1-0.5-0.1
	c0.1-0.2,0.3-0.3,0.4-0.4c-0.1-0.7-0.2-1.4-0.4-2c-1.2-0.7-2-1.5-1.2-2.9c-0.1-0.3-0.3-0.5-0.4-0.8c-1.7,0.2-3.1,0.1-4.6,0
	c-0.8,0.2-1.7,0.2-2.5,0.6c0,0.1-0.1,0.2-0.1,0.2c0.8,0.3,2.1,0-0.1,1.3C253.3,205.4,253.8,205.5,254.6,205.4z M295.9,177.8
	c-1.5,1.6-0.1,1.5-0.5,2.5c0.5,0.1,1.6-0.6,2.5-1.1c0-0.1,0-0.3,0-0.4c0.1,0.1,0.2,0.1,0.3,0.2c0.6-0.3,0.9-0.3,0.5,0.5
	c0.1,0.1,0.1,0.2,0.2,0.2c0.2-0.1,0.4-0.3,0.6-0.5c0.4,0,0.8,0,1.1,0c-0.2-0.4,0.1-1.1,0.8-2C299.4,177.3,297.9,178.1,295.9,177.8z
	 M303.8,171.9c-0.1-0.8-0.8-1.2-0.9-1.9c-1.2-0.2-1.6,1.4-2.7,1.4C300.2,172.9,301.9,172,303.8,171.9z M272.3,120.9
	c-0.2,0.7-0.4,1.2-0.7,1.6c0,0.4,0.1,0.9,0.3,1.2c0.5-0.3,0.9-0.7,1.3-1.1C273.4,121.9,273,121.4,272.3,120.9z M266,97.5
	c-0.1,0.1-0.2,0.2-0.3,0.2c0.1,0,0.2,0,0.3,0C266,97.7,266,97.6,266,97.5z M265.6,95.8c0.1,0,0.3,0,0.4,0c0-0.2,0-0.3,0-0.5
	C265.9,95.5,265.7,95.7,265.6,95.8z M251.2,43.2c-0.8,0.6-0.2,0.8-0.7,1.3c1.5,0.3,2.9,0.5,4.4,0.8
	C255.9,43.7,253.3,42.3,251.2,43.2z M230.1,70.5c-0.5,0.3-0.9,0.6-1.3,1c0.2,0.1,0.5,0.1,0.8,0c0.2-0.2,0.5-0.3,0.7-0.3
	c0.2-0.2,0.5-0.4,0.7-0.6C230.6,70.6,230.3,70.6,230.1,70.5z M222.9,23.7c-0.2,0-0.4,0-0.6,0c-1.3,0.8-0.8,1.2,0.2,1.5
	C222.9,24.7,223,24.1,222.9,23.7z M224.1,26.1c1.1,0.1,1.7,0.7,1.8,1.3c0.6-0.6,1.4-1.1,0.7-1.8C225.7,25.6,224.9,25.8,224.1,26.1z
	 M222.1,30.2c0.8,0.3,1.5,0.2,1.9-0.1c-0.3-0.4-0.5-0.7-0.4-1.2c0.4,0,0.8,0.2,1.1,0.2c0.1-0.7-0.4-1.4-2-1
	C221.6,29.3,225.4,29.1,222.1,30.2z M220.7,63.1c0.9,0,1.7-0.2,2.4-0.9c-0.3,1.7-1.7,4.9,1,5c0.2-0.3,0.3-0.5,0.4-0.8
	c0.1-0.9,0-1.8-0.5-2.6c0.6,0.3,1.2,0.3,1.7,0.1c0.3-0.3,0.7-0.7,1.2-1.1c-2-0.3-3.8-0.8-4.1-1.7C221.1,61,220.4,61.6,220.7,63.1z
	 M219.9,69.6c0.9,0.2,1.8,0.4,2.7,0.6c0.4-0.6,1-0.9,1.5-1.1c0-0.3,0-0.6,0.1-0.9c-0.7,0.5-1.4,1.4-2.3,1.4
	c-0.3-0.5,0.8-1.4,0.1-1.9C220.2,67.6,221,69,219.9,69.6z M212.8,90.4c0.1,0.3,0,0.7-0.2,1c1.4,0.3,4.8-0.6,7.1,0.1
	c0.9,0.9-1,2.7,0.3,3.4c2.8-1.4-0.6-2.7,2.5-2.4c0.8-1.5-1.5-2.3,1.2-3.6c-0.9-0.4-0.5-1.5-2.3-0.9C220.4,90.7,215.3,91,212.8,90.4z
	 M211.8,94c1.5,0.3,2.9,0.5,4.4,0.8c1-1.6-1.5-3-3.6-2.1C211.7,93.3,212.3,93.5,211.8,94z M186.8,48.9c-0.7-0.2,0.3-0.8-0.2-1
	c-0.9-0.1-1.7,0.2-2.6-0.2c0.2-0.3,0.4-0.5,0.5-0.6c-0.4-0.2-0.6-0.8-0.4-1c-0.5,0.3-0.8,0.6-0.9,0.9c0.8,0.2,0.5,0.7,0.2,1.2
	c0.2,0.3,0.4,0.6,0.6,0.9C185.4,48.8,185,49.9,186.8,48.9z M185.1,44.7c-0.4,0.8-0.4,1.5,0.2,2.1c0.2,0,0.5-0.1,0.7-0.1
	c-0.2-0.2-0.4-0.3-0.8-0.4c0.8-0.7,1.4-1.3,1.5-1.8C186.2,44.5,185.7,44.6,185.1,44.7z M314,217.1c-0.2,1,0.7,1.3,1.9,1.4
	C316.9,216.9,315.3,216.3,314,217.1z M308,170c-2.2,0.3-0.6-1.5-2.6-1.9c-2.2,2.6,1,2.3,0.7,3.9C306.9,171.7,307.4,170.7,308,170z
	 M306.1,164.7c-0.3-0.7-2-1-3-0.5c0.2,1.2-0.2,2.7,1.9,2.9C306.2,165.9,304.5,165,306.1,164.7z M291.2,148.5c-1.7,1-1.9,2.9-0.8,3.4
	C290.2,150.4,294.1,148.6,291.2,148.5z M273.5,120.6C273.5,120.6,273.5,120.6,273.5,120.6c-0.1,0-0.1,0-0.2,0.1
	C273.4,120.6,273.5,120.6,273.5,120.6z M270.5,109.1c0-0.1,0.1-0.1,0.1-0.2c-0.1,0-0.2,0.1-0.3,0.1
	C270.4,109.1,270.4,109.1,270.5,109.1z M270.3,95.3c-0.9-0.4-0.6-1.3-2.5-1.2c-0.1,0.1-0.2,0.1-0.4,0.2c0.3,1,0,2.3-0.2,3.5
	c0.8,0,1-0.1,1.9,0.3C269.2,97.3,268.5,96.8,270.3,95.3z M239,46.7c-1.5,1.5-0.3,2.2-0.8,3.3C239.9,49.6,241.1,46.9,239,46.7z
	 M231.7,11.9c1.7-1.2-1.6-1.2-1.9-2C227.9,11.3,230.1,11.5,231.7,11.9z M218.3,64c1.2-0.9,0.5-1.4,1.2-2.1
	C217.1,61.7,216.4,63.7,218.3,64z M218.1,68.2c0.7-0.7,1.6-0.7,2.3-1.4c-0.7-0.2-1.4-0.3-2.2-0.5C216.9,67.3,216.5,68,218.1,68.2z
	 M216.8,69.4c-0.1-0.7-2-1.1-3.2-0.7c-1,1-0.9,1.7,0.4,2C214.7,69.3,216,70.8,216.8,69.4z M214.8,59.4c-0.6,0.5-1.2,1.1-1.9,1
	c0.1,1.6-0.2,2.4,2.1,2.9C213.4,62.4,216.3,60.3,214.8,59.4z M134.2,73.4c0.3-0.2,0.5-0.4,0.6-0.6c0.1-0.3-0.1-0.7-0.7-0.8
	c0.4-0.4,0.7-0.7,1.1-0.9c-0.2-0.6-0.4-1.1,0.1-1.8C132.9,69.9,132.7,72.8,134.2,73.4z M133.2,87.3c-0.3,0.7-0.4,1.3-0.1,1.7
	C132.8,88.5,133,87.9,133.2,87.3z M105,28c-0.5,0.1-0.9,0.4-1.3,1c0.6,0.1,0.9,0.4,1.1,0.6c0,0,0.1,0,0.1,0
	C105.2,29,105.2,28.5,105,28z M103.5,27.7c0.5,0,0.9,0,1.3-0.1c-0.2-0.5-0.5-1-0.7-1.5C103.6,26.5,102.1,27.1,103.5,27.7z
	 M379.4,243.7c0.4-1.4,0.9-2.8-1.4-2.2C377.5,242.9,378,243.7,379.4,243.7z M348,197.9c-1,2.2,2.2,1.7,4,2.1
	c0.8-1.2,1.6-2.4,0.4-2.4c1.6-1.4,3.5-1.4,4.2-1.8C357.5,192.4,351,198.3,348,197.9z M350.7,195.3c1.9-2-0.9-1.1-0.1-2.4
	C348.6,193.8,349.1,195.7,350.7,195.3z M347.1,195.1c0.3,0.8-0.6,2.4,2.1,1.7C349.8,195.5,348,195.6,347.1,195.1z M345.4,203.9
	c1-0.4,1.3-1.9,2.3-2.1c0-1.6-2.5,1-3.6,0.8C343.2,203.9,343.9,204.1,345.4,203.9z M343.3,268.2c-1.8,1.3-1.3,2.2,0,2.4
	c0.1-0.1,0.1-0.1,0.2-0.2c-0.9,0.2,0.4-1.4,0.3-0.5c0.1,0.3,0.5,0.5,0.9,0.6c0.8-0.2,1.6-0.8,2.1-1.7c0,0-0.1,0-0.1-0.1
	c-0.3,0.2-0.6,0.4-1,0.5c0.2-0.3,0.3-0.5,0.3-0.7C344.7,268.5,343,269.6,343.3,268.2z M340,163c1.5,0.3,2.2-0.8,3.4-1.1
	c1,0.6-2.8,1.2-3.1,2.9c0.7,0.9,3.4-1.1,4.4-0.2c1.7-2.6-0.8-2.6-0.9-4.2C342.5,161.2,341,161.6,340,163z M339.2,167.3
	c-0.4,0-0.7,0-1.1,0c-1.3,1.5,0.9,1-0.9,2.9c1.2,0.1,2.2-0.2,3.1-0.6C340.2,168.2,337.9,168.9,339.2,167.3z M336.8,164.5
	c-0.3,1.2-0.2,2,2,1.8C339.5,165,337.7,165,336.8,164.5z M335.9,160.4c-1.3,1.5,0.6,1.2,0,2.3c0.9-0.1,1.2-1.4,2.1-1.5
	C338.7,160.2,337.4,160.2,335.9,160.4z M334.3,155.7c0.7,1.3,0.2,3.4,1.9,4.2c0.6-1.8-0.9-2.4-0.3-4.2
	C335.5,155.7,334.9,155.7,334.3,155.7z M333,155.3c0.6-0.3,1.3-0.5,2-0.5c1.5-1.9-1.6-1.2-0.7-2.8
	C332.4,152.8,333.7,154.2,333,155.3z M333.8,148.2c-2.6,1.3-0.8,2.7-1.1,3.8c1.9-0.4,1.1-0.7,1.9-1.9c1.9-0.4,1,0.8,3,0.4
	C338.4,148.2,335.5,148.5,333.8,148.2z M330.1,146.4c0.9,0.1,3.1-0.5,1.5,0.9c2.7-0.9,3,0.7,4.9-1.5c-0.5-0.6-5.2,0.9-3.9-1.3
	C331.6,144.7,330.8,145.4,330.1,146.4z M328.1,242.3c0.9-0.1,1.9-0.2,2.8-0.2c-0.7,0.8-2,0.6-2.3,2.2c2.9-1.6,3.3-0.9,3.1,1.2
	c1.6-1.1,0.8,0.2,2.8-0.3c0.4-0.7,0.7-1.4,1.1-2.1c-3.1,1.9-1.7-1.3-3.6-1.1c2.1-1.9,0.2-3.5-0.8-4.4
	C331.8,239.8,329.9,239.5,328.1,242.3z M329.3,156.8c0.7-1.1-2.2-0.2-3-0.4C325.4,157.7,328.1,157.4,329.3,156.8z M322.1,224.5
	c-2.8,0.8-1.2,2.4-0.6,3c2.2-0.7,1.5-1.1,3.7-0.8C326.1,223.9,320.5,227.4,322.1,224.5z M320.4,170.2c1,0.7,1.1,1.8,2.2,2.3
	C324.8,171.3,321.7,169.6,320.4,170.2z M320.7,215.7c2.2-2.3-1.9-3.5-0.5-6.3C315.6,212.1,320.9,213.7,320.7,215.7z M316.9,203.2
	c-4.3,2.1,1.5,2.7,2,3.8C320.3,204.5,315.7,205.6,316.9,203.2z M315.6,198.4c0,1.6-0.4,2.7-2.8,3.5c-0.2,0.3-0.4,0.7-0.6,1
	c0.7-0.4,1.6-0.6,2.5-0.6C316.3,200.1,318.3,198.5,315.6,198.4z M314.2,144.1c-1.1,1.2-0.4,1.6,1.2,1.4
	C316.5,144.3,315.8,144,314.2,144.1z M312.9,131.8c-1.2,1.4,0.3,2.1,1.7,1.4C314.7,132.5,314.8,131.7,312.9,131.8z M310.4,125.7
	c-1.3,1.6,1,1.4,2.8,1.5C314.3,125.7,311.4,126.1,310.4,125.7z M309.1,120.9c0.5,1.2,0.8,2.5,2.8,2.9c1.9-1.8-1.8-0.8,0.5-2.8
	C311.3,121,310.2,121,309.1,120.9z M307.9,109.2c-0.4,0.9,0.5,1.3,1.6,1.5c1.6-1.4-0.8-0.9,0.8-2.3
	C309.4,108.5,308.8,109.1,307.9,109.2z M308.6,98.9c-0.5-1.1-1.6-2.1-1.7-2.8c-3.2,2.2,2.1,3.1-0.6,6
	C308.9,101.1,309.1,99.9,308.6,98.9z M306.2,90.9c-1.5,1.7,1.2,1.5-1.6,3.1c3.4-0.6,1.5,0.5,3.1,1.1c-0.1-0.4,0.3-1,1-1.8
	C306.4,93.2,308.3,91.2,306.2,90.9z M311,74.7c1.6-2,0.7-2.9-0.6-3.7C310.6,72.2,309.8,73.9,311,74.7z M304.6,81.1
	c0.1,1.4-0.4,3.1,2.2,3.4c1.7-1.4-1.4-0.9-0.6-1.9c0.9-1.2,2.7,0.6,3.4-1.1C306.2,82.2,306.7,80.5,304.6,81.1z M301.6,91.5
	c2,0,3.7-0.7,5.2-1.9C306.3,88.8,302.9,89.7,301.6,91.5z M302,58.7c-1,1.1-1.2,2-0.8,2.7C302,61.3,304.7,58.3,302,58.7z M305.8,55.5
	c-1.8,0-3.2,1.1-4.9,1.3c0.3,0.6,0.1,1.3,1.5,1.5C303.4,57,304.8,56.9,305.8,55.5z M299.4,55.2c2.2-0.1,4.2-0.9,5.3,0.1
	c3.6-2.3-2-1.6-3-3.1C300.4,53.8,301.7,53.9,299.4,55.2z M298.8,60.7c1.9-1.7,1-2.3,0.7-3.1c-2.7,0.7,0.4,1.4-1.4,2.6
	c-1.7,1.1-2.2-0.4-3.3-0.4c-0.3,1,0.2,1.7,1.6,2C297.2,60.9,297.9,60.5,298.8,60.7z M296.1,71c2.4-0.1,1.4-1.5,3.1-2
	c2.7,0.4-0.1,1.6-0.2,2.8c0.8,0.2,2.1-0.6,1.6,0.2c2.8-1.6,0.8-3.7-2.3-3.9C296.4,69.2,295.8,70.1,296.1,71z M296.6,81.3
	c0.2-0.8,2.1-2.3,0.3-2.3C295.9,80.1,294,81.7,296.6,81.3z M297.5,98.2c-0.9-0.1-1.8-0.1-2.8-0.2c-0.8,0.7-0.1,0.8-0.6,1.4
	C295.3,99.3,296.6,99.4,297.5,98.2z M299.2,87.6c0.8-1-2.2-0.5-2.7-0.2C295.5,88.9,297.9,88,299.2,87.6z M296.3,139.5l2.2,0.1
	c0-0.7,0.9-1.8-1.1-1.5L296.3,139.5z M291.4,142.2c-1,1.6,2.7,1,3.5-0.8C293.4,140.9,292.5,141.7,291.4,142.2z M290.5,142.7
	c1.2-0.7,2.1-1.9,3.4-2.3c0.4-1-2.6,0.6-3.7,0.3C289.8,141.6,288.9,142.7,290.5,142.7z M288.5,144.5c2-0.9-1.4-1.7,0.2-3.4
	C284.8,142.3,287.9,143.8,288.5,144.5z M282.9,162.4c0,0.1-0.1,0.1-0.1,0.2c-0.2,0.4-0.4,0.8-0.7,1.2c0.7,0,1.4,0,2.1,0.1
	C285.1,162.6,284.4,162.3,282.9,162.4z M277.5,116.3c-0.7,0-1.1,0.8-1.7,1.3c0.9,0.1,1.9,0.1,2.8,0.2
	C281,116.1,276.4,117.5,277.5,116.3z M282.2,117.1c1.4-0.6,3.5-3,1.1-2.8C282.3,116,279.6,116.9,282.2,117.1z M278.2,107.7
	c-1.1,0.9-2.8,1.3-2.5,2.2c2.6-1,2.9-0.5,5.4,0c-1,0.8-2.3,0.7-3,2.2c1,0.3,1.7-0.2,2.6-0.3c1.2-1.7,2.8-3.2,1.2-4.2
	c-1.3,0.3-0.8,0.8-1.1,1.4C279.8,108.5,280.1,107.6,278.2,107.7z M274.8,102.6c-1.5,1.5,1.8,1,2.2,1.6
	C277.3,103.2,276.5,102.7,274.8,102.6z M274.8,101.1c1.1-1,1.4-1.7,1.4-2.3C274.5,98.7,272.4,101.4,274.8,101.1z M276.1,85.4
	c-1.5,1.3,0.4,1.3-0.3,2.4C277.3,87.5,277.8,85.3,276.1,85.4z M278.2,83.7c-1.4-0.6-2.1,1.3-3.4,1.1C274.4,86,277.7,85.1,278.2,83.7
	z M273.4,75.1c-1.6,1.6-0.4,2.2,1.3,2.5C274.6,76.6,275.1,75.4,273.4,75.1z M270.6,65.1c-1.6,1.1-0.3,1.2-1.5,2.2
	c3.6-0.3,1.2,1.6,3.2,1.9c1.3-1.4,0-1.8,2.2-3.5C272,65.6,272.5,65.6,270.6,65.1z M271.9,58.6c-3.3,0.3-2.6,4.9-0.4,4.2
	C273.8,60.7,269.9,60.7,271.9,58.6z M276.1,19.7c1.1,0.3,1.9-1,2.9-0.9C279.6,17.5,275.3,18.8,276.1,19.7z M266.9,22.7
	c0.9,0.1,1.5-1.1,2.4-0.9c0.3,1.2-0.2,1.9-2.4,3.3c1.7,0.6-1.5,2.6,1.6,2.7c-1.8,0.8-0.2,1.9-2.2,2c-0.4,1.6,2.6-0.3,3.5-0.8
	c1.1-1.2-0.1-1.7,2.4-3.3c1.5,0.1-1.3,1.6,0.9,1.6c1.3-0.8-0.2-1.5,1.8-1.1c0.4-1,0.7-1.9,0.5-2.7c0.9-0.5,0.5,0.3,1.6,0.3
	c1.8-1.1,1.2-1.5,1.1-2.1c-2.5,1.1-0.9-0.1-2.7-0.5c-0.8,0.3-1.6,0.8-2.3,1.4c-0.7-0.2,1.1-1.2,0.2-1.4c0.8-0.3,1.7-0.2,2.4-1
	C271.4,20.4,269.1,19.7,266.9,22.7z M259.4,13.5c0.9,0,1.7-0.2,2.4-0.9c-0.3,1.7-1.7,4.9,1,5c1.2-2.1,0.4-2.9,3.7-4.9
	c-0.7-1,0.1-2.4-3.6-2.7c1.5-0.3,3-0.3,4.5-0.9c0.3-0.8,0.2-1.4-0.4-2c-1.2,0-2.5-0.3-3.6,0.2c0.3-1.2-1.5-0.4-0.4-2
	c-4.6,2.2-2.2,5.3-1.4,6.3C259.8,11.4,259.1,12,259.4,13.5z M256.9,16.8c-1.3,1-1.7,1.7-0.1,1.9c0.7-0.7,1.6-0.7,2.3-1.4
	C258.3,17.1,257.6,17,256.9,16.8z M256.9,14.4c1.2-0.9,0.5-1.4,1.2-2.1C255.8,12.1,255.1,14.2,256.9,14.4z M260.7-19.3
	c3.1,1,3.9-3,0.7-2.1C260.3-20.2,264.1-20.4,260.7-19.3z M262.2-24.1c0.9-0.6,0.3-0.9,1.4-1.5c-0.9-0.4-1.7-0.1-2.6-0.2
	C259.2-24.8,260.6-24.4,262.2-24.1z M256.6-11.9c2.9,0.1-1.5,1.9,0.8,2.1c0.2-1.6,6.3-3.2,2.5-4.1C260.2-12.6,257.9-12.9,256.6-11.9
	z M252.3,6.2c0.3-0.3,0.6-0.5,0.9-0.7c-3.7,1.1-0.1,2.6-1.3,4c2.8-0.1,0.3-3.5,4.2-2.4c1.6-0.9-0.2-1,0.7-1.7
	C255.3,5.7,253.9,6.3,252.3,6.2z M250-1.6c0.3,0.5,1.8,0.9,3.7,0.4c1.7-1.6-2.2-3.2-4.9-1.7C250.8-2.8,252.5-2.2,250-1.6z
	 M249.1,5.4c0.7,0.2,1.4,0.3,2.2,0.5c2.2-1.5-0.9-0.8-0.3-1.5C250.3,4.4,249.7,5,249.1,5.4z M245,34.1c1.2-0.2,2.2-1.1,3.3-1.8
	c-0.7-0.1-1.5-0.3-2.2-0.4C244.3,33.1,246.7,33,245,34.1z M246.1,39.3c0.2-1.1,1.4-2.4-1.1-2.7C244.5,37.8,245.6,38.4,246.1,39.3z
	 M240,25.2c-1.1,1.9,0.4,1.9,2.9,1.6C242.9,25,240.2,27,240,25.2z M237.1,18.7c0.9,0.2,1.8,0.4,2.7,0.6c0.7-0.8,1.5-1.2,2.4-0.9
	c-0.9-0.9-2.6-1.6-3.1-2.7C238.5,16.7,237.4,17.8,237.1,18.7z M236.3,24.9c3.9-0.3,5.4-3.8,0.9-3.2
	C236.1,23.1,239.7,23.5,236.3,24.9z M231.9,13c-0.4,0.4-0.9,0.8-1.3,1.2c1.8,0.6,3.4-0.1,5.2,0.3c2.1-1.1-1.4-0.7,0.7-1.8
	c-1.1-0.4-1.9,1-3,0.8C233,13.2,232.4,13.1,231.9,13z M231.9,1.1c-0.5,0.4-0.9,0.8-1.4,1.1c0.7,0.2,1.4,0.4,2.1,0.6
	C232.9,2.1,234,1.2,231.9,1.1z M234-12.6c3,0.1,1.4-1.2,1.8-1.9C233-14.5,235.4-13.3,234-12.6z M231.7-10.3c2.3,0.7,0.4,0.7,0.3,2.1
	c0.9,0.1,1.6-1,2.5-0.8c0.7-1.2-1.5-1,1.2-2.1c-0.9-0.5-1.7-0.1-2.6-0.2C232.7-11,232.2-10.7,231.7-10.3z M230-4.9
	c1.7-1.3,2.2-2.3-0.4-2.6C227.6-6.1,229.6-5.7,230-4.9z M225-10.8c-1.7,1.2-2.1,4.1,0.7,5.2C226.7-7.6,224.9-9,225-10.8z
	 M213.7,55.7c0.3-0.3,0.6-0.5,0.9-0.7c-3.7,1.1-0.1,2.6-1.3,4c2.8-0.1,0.3-3.5,4.2-2.4c1.6-0.9-0.2-1,0.7-1.7
	C216.7,55.3,215.2,55.8,213.7,55.7z M211.3,48c0.3,0.5,1.8,0.9,3.7,0.4c1.7-1.6-2.2-3.2-4.9-1.7C212.1,46.7,213.9,47.3,211.3,48z
	 M210.4,55c0.7,0.2,1.4,0.3,2.2,0.5c2.2-1.5-0.9-0.8-0.3-1.5C211.6,53.9,211.1,54.5,210.4,55z M206.3,83.7c1.2-0.2,2.2-1.1,3.3-1.8
	c-0.7-0.1-1.5-0.3-2.2-0.4C205.6,82.6,208,82.5,206.3,83.7z M206.2,87c0.1,0.2,0.2,0.4,0.3,0.6c0.1,0.2,0.3,0.4,0.5,0.6
	c0.1,0,0.3,0.1,0.5,0c-0.1,0-0.3,0-0.4,0.1c0.1,0.2,0.3,0.3,0.4,0.5c0.2-1.1,1.4-2.4-1.1-2.7C206.2,86.4,206.2,86.7,206.2,87z
	 M204.2,76.4c0-0.8-0.5-0.9-1.2-0.9c0.1,0.3,0.2,0.6,0.2,1C203.6,76.5,203.9,76.4,204.2,76.4z M203.5,67.9c-0.3-0.3-0.8-0.7-1.2-1
	c0,0,0,0.1-0.1,0.1c-2.2,1.1-0.6-1.6-2.6-0.7c-0.1,0.1-0.2,0.3-0.3,0.4c-0.3,1.1,0.6,1.9,2,1.9C202,68,202.7,67.7,203.5,67.9z
	 M199.6,58.1c-0.1,0.3-0.1,0.4,0,0.6C199.6,58.5,199.6,58.3,199.6,58.1z M196,35.1c0.2,0.6,0.5,1.1,0.7,1.7c1-0.3,0.1-1.2,0.4-1.8
	C196.6,35,196.2,35,196,35.1z M188.8,28.2c4-1,0.2,1.3,2.4,2.2c0.1,0,0.1,0,0.2,0c1-0.9,2.4-0.3,3.2,0.2c0.2-0.1,0.3-0.1,0.5-0.2
	c-1.6-0.3-1.7-1-1.7-1.6c-0.5,0.2-1.1,0.3-1.8,0.2c0.5-0.6,1.5-1.2,1.4-1.6c-0.2,0-0.3-0.1-0.4-0.1
	C191.2,27.5,189.9,27.1,188.8,28.2z M185,40.9c0.6,0.1,1.3,0.1,1.8,0c-0.1-0.3-0.2-0.5-0.3-0.8c-0.5,0-0.9,0-1.1-0.4
	C185.2,40,185.1,40.5,185,40.9z M183.2,43.4c0.2-0.4,0.5-0.9,0.7-1.3c-0.3,0-0.6,0.1-0.9,0.3C182.6,43.1,182.8,43.3,183.2,43.4z
	 M163.8,50.2c2.5-0.5,1-2.5-0.6-2.9C161.8,48.7,163.7,49.2,163.8,50.2z M145.6-26c0.8,0.5,2.2-0.1,1.6,0.7c1.7-0.3,2.5-3-0.3-3.6
	C143.7-27.6,148.7-27.4,145.6-26z M140.2,19c0.2-0.2,2.4-1.7-0.4-2.4C138.1,17.8,139.9,18.3,140.2,19z M132.6,64.5
	c0.6-1.2,1.5-2.6-0.7-3C130.2,63.1,130.7,65,132.6,64.5z M129.1,101.9c0,0,0.1,0,0.1,0c0-0.1,0-0.2,0-0.3
	C129.2,101.7,129.2,101.8,129.1,101.9z M124.6,93.1c-0.1-0.6-0.1-1.2-0.2-1.8c-0.4-0.1-0.7-0.1-1,0.3
	C123.7,92.2,124.1,92.7,124.6,93.1z M108.2,20.6c-3.2,1.4,1.9,1.5-1.3,2.9c0.8,0.5,2.2-0.1,1.6,0.7C110.2,23.9,111,21.2,108.2,20.6z
	 M98,42.2c0.7,0.5,1.6,1.2,2.6,2c0.2,0,0.5-0.1,0.7-0.2c-0.6-0.3-0.4-0.9-0.5-1.4c-0.2-0.2-0.3-0.5-0.4-0.7c0,0,0,0,0,0
	C99.6,41.7,98.8,42.2,98,42.2z M100.6,67.6c0-0.4,0.1-0.7,0.1-1.1C100.3,67,100.4,67.3,100.6,67.6z M98,145c-0.1,1.1-0.3,3,2.2,2.2
	C101,145.9,100,144.3,98,145z M102.4,163.9c0.1-1.4-3.2,3.3,0.3,2.9C104.3,165.2,102.1,164.9,102.4,163.9z M103,177.9
	c1.3,1.3-0.3,3.7,1.6,4.8C105.1,180.8,106.3,177.3,103,177.9z M276.3,476.3c-2.6,3,1.9,2.6,2.6,4
	C281.5,477.5,276.2,478.3,276.3,476.3z M284.3,486c-0.1,1.1,1.3,0.8,0.3,2.7c1.1,0,1.6-0.7,2.5-1C287.6,485.8,286.1,485.8,284.3,486
	z M288.5,492.4l-0.7,2.3C289.9,494.8,290.8,491.5,288.5,492.4z M302.7,499.6c-2.1-0.1-2.2,2.1-4.3,2c-0.9,1.7,0.8,1,0.5,2.1
	c0.9-0.5,1.6-1.2,2.2-2.1c1.3-0.1,0.9,1.3-0.5,1.8c0.1,1.7,1.7-1,2.5-1.1C303.5,500.8,302.6,500.7,302.7,499.6z M303.7,506.1
	c1.4-0.2,2-1.3,3.2-1.8C306.9,502.1,304.2,504.5,303.7,506.1z M305.1,506.9c-0.6,1.6,0.3,1.8,1.8,1.3
	C307.5,506.6,306.6,506.4,305.1,506.9z M314.7,511.5c-0.3-1.7-3.3-0.8-2.9-3.2c-2.1,0.8,0.6,1.8-2.9,2.9c0.1,1.2,1.8,0.8,1.5,2.4
	C311.2,512.2,312.8,511.7,314.7,511.5z M484.3,636.9c-1.5-0.7-3.7,2.9-5.3,2.3c0,1.5-1.3,2-1.8,3.1c0.8,1.4,2.3-2,3.3-2.6
	c0.6-0.2,0.4,0.9,0.4,1.6C483,640.6,483.6,638.7,484.3,636.9z M486.8,638.2c-0.3-2.1-2.7,0.6-3.7,1.6c1,1,0.7,1,0.3,3.4
	C488.7,640.8,482.5,639.5,486.8,638.2z M488.4,645.1c0.7-1.6,2.1-2.6,2.4-4.6c-2.2,1.8-2.2,1.5-4.3,3.1
	C485.9,645.9,488.4,643.8,488.4,645.1z M491.2,641.5c0,0.8,0,1.7-0.6,2c0.4,0.5,1.2-0.1,2.1-1C492.9,641.3,492.4,640.9,491.2,641.5z
	 M622.8,623c-2.7,0.3-6.4,0.7-8.8,2.2c-0.6,0.4-0.4,1.3-0.5,2.1c2.9-0.9,4.6,0.3,6.4-0.1C621.4,626.1,622.8,625,622.8,623z
	 M629.6,626.7c-2.4,0.8-4.4,0.8-6.8,1.7c1.4,1.3,4,0.8,5.8,1.3C629.3,628.9,629.5,627.9,629.6,626.7z M639.3,626.9
	c-1.9-3.3-6.7,1.6-8.8,1.7l0,2.4C633.6,627.8,635.9,628,639.3,626.9z M716.8,596.2c-0.9-1.5-2.5-2.1-4.1-2.2c-0.1,1-0.1,2,0.5,1.6
	C714.9,593.1,715.2,596.4,716.8,596.2z M727.8,586.9c-0.1-1.7-2.6,0.4-3.2,1.7C725.3,589,727,588.5,727.8,586.9z M707.9,551.6
	c-0.1-2.5-0.8-0.6-2.4,0.3C705.4,553.7,707.2,552.9,707.9,551.6z M707.4,547.1c0.2-1.1,1.5-1.5,1-3c-0.8,0.7-2.9,3.7-3.3,2.7
	c-0.3,0.5-0.6,1.2-0.7,1.8c0.4-0.3,0.7-0.5,0.9-0.3c0.8-1.2,1.5-0.6,2.6-0.4C707.9,547.3,707.8,547,707.4,547.1z M717.1,497
	c-0.5,2.2,1.5-0.2,1.4,1.4C719.8,496.9,718.6,495.3,717.1,497z M724.8,502.4c-0.3-2.2-2.9-0.2-4.1-0.8
	C721.1,503.7,722.9,503.1,724.8,502.4z M734.1,497.4c-0.8,1.4-1.1,1.2-0.9-0.6c-0.4,0.6-0.8,1.1-1.4,1.5
	C731.4,500.2,734.4,499.5,734.1,497.4z M728.9,506.1c0-1.5-0.6-1.9-1.8-1.1C726.7,507.2,727.8,506.6,728.9,506.1z M738.2,499.9
	c-0.6,2-0.7,4.3-2.8,5.4c0.8-2.8,0.7-3,1-5.3c-1.2,1-2.3,1.7-1.8-0.5c-2.7,2.2-3.1,2.6-5.1,2.8c-0.9,1.8,0.5,2.4,1.8,1.7
	c-0.5,1.9-1.7,0-1.9,2.4c0.8,2.5,5.6-2.6,5.5,1.6C737.2,506.3,739.6,502,738.2,499.9z M766.5,537.3c-0.1-1.7-2.6,0.4-3.2,1.7
	C763.9,539.5,765.7,539,766.5,537.3z M328.1,127.4c-0.4-0.5-1.8-0.6-1.7-1.4c-1,0.2-0.2,0.8-1.3,0.9c5.4,0.4,3.1,4.6,6.4,6
	c0.7-3-0.5-5-1.8-6.9C329,126.1,328.6,126.8,328.1,127.4z M104.7,5c0.1-1.1,0.8-2.3-1.4-3C102.1,3.2,104.6,3.9,104.7,5z M190.6-3.9
	c1.4-1.5-2.1-0.3-0.8-1.8c-0.8-1-0.1,1.8-2.8,2.3C188.3-3.2,189.4-3.8,190.6-3.9z M162.9,19.4c-1.1-0.5-2.1-0.2-3,0.7
	c1.3-0.3,1.9,0.3,1.7,1.1C163.1,21.5,162.2,19.9,162.9,19.4z M173.5,11.9c-0.8,0.8,1.5,0.8,0.3,1.7c0.7,0.1,0.7-0.3,0.4-0.4
	c0.8-0.3,1.7,0,2.4-0.8C175.6,11.9,174.5,11.8,173.5,11.9z M190.2,16c0.9-0.6,0.2-1.3,1.3-1.2c0.7-1.4-0.9-0.5-1.8-1.6
	c2.5-0.4-0.2-4.3,2-3.6c1.8-1.1-3.4-1.8-6-1.8C187,11,186.6,13.4,190.2,16z M263.4-42.3c1,0.1,0.4-0.5,1.5-1
	c-1.8,0.3-0.9-0.6-3.1-0.9C260.8-42.5,262.6-42.8,263.4-42.3z M186.9,15c0.7,0.9-0.3,2.2,2,2.7C191,16.1,187.5,15.9,186.9,15z
	 M126.3,83.6c-1-0.6-1.6,0.6-2.5,0.4c-0.7,1,0.7,1.3,1,2C126.4,86.2,123.7,84.9,126.3,83.6z M242.5-13.7c1.5,0.2,0.3,1,2.2,1.1
	c0.6-1.2,1.4-2.4-1.4-2.8c-1,1.2,0.4,1.3-2.2,2.3C241.6-13,242.1-13.4,242.5-13.7z M298.1,0.1c0.6-0.8,0.3-1.4,0.7-2.1
	c-0.7,0-0.8,0.3-0.5,0.4c-0.6,0.5-1.2,1-1.9,1C296-0.2,297.4-0.1,298.1,0.1z M290.1,29.1c0.4-0.5-1.8-1.4,0.6-1.7
	c0.9-1.3-3-1.1-0.7-2.9C288.8,24.5,287.1,28.8,290.1,29.1z M285.7,39.1c-0.6,1.3-4.1,3-1.2,3.5c3.7-1.6-0.1-2.9,4.2-4
	C287.5,37.8,287,39.8,285.7,39.1z M282.8,76.1c2.7-1.1,5.1-2.8,7.7-4.3c-4.8,1.7,0.2-1.8-0.5-3.3c-1.2,0.4-1.8,0.3-1.2-0.6
	c-1.8,0.7-0.6,2.6-1,3.6C284.8,72.3,283.5,75.1,282.8,76.1z M284.1,82c-0.7-0.2-3-0.9-1.9-2.6c-1.8,1.1-0.2,3.2-0.7,4.7
	C283.5,84.1,281.8,82,284.1,82z M289.1,74c-1.5-0.5-1.6,0.8-0.8,0.9c-0.7,0.7-1.4,1.1-2.3,1.2c-0.3,0.6,0.3,0.8-0.1,1.4
	c0.7-0.8,3.7-2.3,1.6,0.2c0.9-0.1,1.5-1,2.1-1.7C288.3,75.8,288.1,75.1,289.1,74z M287.1,86.5c0.4,0.7,1.6,0.3,3.5,0.8
	c0.3-0.6-0.4-0.8,0.1-1.4C289.3,85.4,288.5,87,287.1,86.5z M314.7,89.2c-1.7,0.7-0.7-0.1-2.2-0.1c-0.8,1.4-2.4,0.4-3,2.1
	c0.5,0,1.1,0.1,1.6,0.1c1.1-1,2.3-2,2-0.3C314.7,90.9,313.1,90.1,314.7,89.2z M289.3,121.9c-0.7,0-0.9-0.2-0.7-0.5
	c0.3-0.9-1.3,0.4-0.4,0.5c-0.9,0.6-1.9,0.8-3,0.8C285,123.7,288.7,123.2,289.3,121.9z M328.5,116.3c-0.3-0.2,1.3-4.7-1.4-3.7
	c1.5-1.8,1.1-2.7-0.2-3.2c-2.2,2.3-0.9,3-2.4,5C328,113.3,326.8,115.8,328.5,116.3z M327.3,118.6c-1.1-0.3,0.2-1.8-2.2-1.4
	c0.1,1.4,2.9,1.5,1.5,3.7c5.2-2.3,0.4,4.2,3.5,4.6c0.8-0.4,1.3-1.3,2.2-1.4c-0.8-0.8-3.6-0.6-0.8-3.2c-2.4-0.6-1.7-2.7-2.2-4.2
	C328.4,116.9,327.9,117.9,327.3,118.6z M334.9,117.3c-0.3-1.1-1.3-2.2-1.7-3.4c-0.5-1.2-0.4-2.6,1.4-4.3c-2.4,1.3-2.9,3.3-2.6,4.9
	C332.4,116,333.7,117.3,334.9,117.3z M336.5,129.2c-0.2,1.2,0,2.2,0.3,3.2C338.7,131.5,337.4,129.8,336.5,129.2z M343.4,142.5
	c-2.2,1.7-3,1.3-3.3,0.1c-1.2,2.4,0.3,5.9,1.9,7.8c2.1-2.3-1.2-1.7,1.6-3.8c-3.3,1.6-0.3-2.1-3-1.8
	C341.4,143.3,344,143.8,343.4,142.5z M346.4,140.5c-2.2,0.2-2.6,0.7-2.1-0.9c-2.5,1.3,0.5,2.2,0.3,3.2
	C346.6,142.5,344.8,141.7,346.4,140.5z M345.1,152.5c-0.7-0.8-2.1-1.2-2.9-1.7c-0.7,2.4-0.3,4.2,0.9,5.5
	C345.6,154.4,345.8,153.3,345.1,152.5z M350.5,177.4c-0.1,0.9,0.8,1.3,1.7,2.2c0.3-0.5,0.6-1,1-1.5
	C350.8,178.9,352.4,177.1,350.5,177.4z M360.4,186.5c0,1.6,3.4-0.6,2.6,1.7c1.4-0.2,0.2-1.3,0.7-1.9L360.4,186.5z M368.2,204.1
	c0.6-0.3,1.2-0.6,2-0.7c1.4-2.2-0.9-2-1.2-3.2C365.2,203.3,371.8,200.2,368.2,204.1z M382.1,220.8c-0.7,1.1-2,1.2-3,1.8
	c0.3,0.9,2.7,0.2,1.3,2.2c4.6-2,2.7,1,4.1,1.8c1.4,0.4,1.3-1.7,2.7-1.3c-1.9-0.4-0.9-2.9-3.5-2.8c0.4-0.9,1.3-1.2,1.7-2.1
	c-1.3,1-2.7,0.6-3-0.1C382.5,219.4,381.2,221,382.1,220.8z M403.6,256.5c-1,2.6,3.7,0.5,2.3,3.4c0.8-0.3,1.1-1.4,1.6-2.2
	C404.4,258.7,406.7,255.5,403.6,256.5z M423.5,279.4c-0.4-1.1-1.9-1.3-1.6-3C420.5,277.6,422.3,280.4,423.5,279.4z M429.9,303.9
	c1.2-0.6,2.2-1.6,3.3-2.3c0.1-1-0.9-1.1-2-1c-1,1.6,0.7,0.8,0.9,1.3C431.7,302.9,430.3,301.2,429.9,303.9z M507.5,372.9
	c0.4-0.1,0.5-0.4,0.7-0.8c0.1-0.4,0.2-0.7,0.3-1.1c-1.5,0.6-0.9-1.1-1.5-1.5C505,371.5,507.9,371.4,507.5,372.9z M643.7,443.1
	c0-0.4-0.4-0.3-0.4-0.9l-1,0.5c0.5,1.8-2.2,1.3-1.7,3.1C642.5,445.6,641.9,443.5,643.7,443.1z M651.2,453.8c1.4-1.3,0-2.3-1.3-0.9
	c0,1.1-0.3,1.9-1.2,2.3C648.5,458.5,650.8,451.7,651.2,453.8z"/>
</svg>
